SplineFontDB: 3.0
FontName: Zepto-8
FullName: ZEPTO-8
FamilyName: Zepto-8
Weight: Book
Copyright: Sam Hocevar

Version: 1.0

ItalicAngle: 0
UnderlinePosition: -200
UnderlineWidth: 200
Ascent: 1000
Descent: 0
LayerCount: 2
Layer: 0 1 "Back" 1
Layer: 1 1 "Fore" 0

OS2Version: 2
OS2_WeightWidthSlopeOnly: 0
OS2_UseTypoMetrics: 0
PfmFamily: 81
TTFWeight: 400
TTFWidth: 5
LineGap: 0
VLineGap: 0
Panose: 0 0 4 0 0 0 0 0 0 0

OS2TypoAscent: 1000
OS2TypoAOffset: 0
OS2TypoDescent: -200
OS2TypoDOffset: 0
OS2TypoLinegap: 0
OS2WinAscent: 1000
OS2WinAOffset: 0
OS2WinDescent: 200
OS2WinDOffset: 0
HheadAscent: 1000
HheadAOffset: 0
HheadDescent: -200
HheadDOffset: 0
OS2SubXSize: 400
OS2SubYSize: 400
OS2SubXOff: 0
OS2SubYOff: -200
OS2SupXSize: 400
OS2SupYSize: 400
OS2SupXOff: 0
OS2SupYOff: 400
OS2StrikeYSize: 40
OS2StrikeYPos: 160
OS2CapHeight: 1000
OS2XHeight: 800
GaspTable: 1 65535 2 0
Encoding: UnicodeFull
DisplaySize: -48
AntiAlias: 1
FitToEm: 0
BeginChars: 1114112 243
StartChar: .notdef
Encoding: 65536 -1 0
Width: 800
VWidth: 1200
GlyphClass: 2
Flags: W
LayerCount: 2
Fore
SplineSet
0 0 m 1,0,-1
 0 1000 l 1,1,-1
 600 1000 l 1,2,-1
 600 0 l 1,3,-1
 0 0 l 1,0,-1
200 200 m 1,0,-1
 400 200 l 1,1,-1
 400 800 l 1,2,-1
 200 800 l 1,3,-1
 200 200 l 1,0,-1
EndSplineSet
EndChar

StartChar: space
Encoding: 65537 -1 1
Width: 800
VWidth: 1200
GlyphClass: 2
Flags: W
LayerCount: 2
Fore
SplineSet
0 0 m 1,0,-1
 0 1000 l 1,1,-1
 600 1000 l 1,2,-1
 600 0 l 1,3,-1
 0 0 l 1,0,-1
200 200 m 1,0,-1
 400 200 l 1,1,-1
 400 800 l 1,2,-1
 200 800 l 1,3,-1
 200 200 l 1,0,-1
EndSplineSet
EndChar

StartChar: glyph1
Encoding: 65538 -1 2
Width: 0
VWidth: 1200
GlyphClass: 2
Flags: W
LayerCount: 2
Fore
SplineSet
EndSplineSet
EndChar

StartChar: 9646
Encoding: 9646 9646 3
Width: 800
VWidth: 1200
GlyphClass: 2
Flags: W
LayerCount: 2
Fore
SplineSet
0 0 m 1,0,-1
 0 1000 l 1,1,-1
 600 1000 l 1,2,-1
 600 0 l 1,3,-1
 0 0 l 1,0,-1
EndSplineSet
EndChar

StartChar: 9632
Encoding: 9632 9632 4
Width: 800
VWidth: 1200
GlyphClass: 2
Flags: W
LayerCount: 2
Fore
SplineSet
0 200 m 1,0,-1
 0 800 l 1,1,-1
 600 800 l 1,2,-1
 600 200 l 1,3,-1
 0 200 l 1,0,-1
EndSplineSet
EndChar

StartChar: 9633
Encoding: 9633 9633 5
Width: 800
VWidth: 1200
GlyphClass: 2
Flags: W
LayerCount: 2
Fore
SplineSet
0 200 m 1,0,-1
 0 800 l 1,1,-1
 600 800 l 1,2,-1
 600 200 l 1,3,-1
 0 200 l 1,0,-1
200 400 m 1,0,-1
 400 400 l 1,1,-1
 400 600 l 1,2,-1
 200 600 l 1,3,-1
 200 400 l 1,0,-1
EndSplineSet
EndChar

StartChar: 8281
Encoding: 8281 8281 6
Width: 800
VWidth: 1200
GlyphClass: 2
Flags: W
LayerCount: 2
Fore
SplineSet
0 200 m 1,0,-1
 0 400 l 1,1,-1
 200 400 l 1,2,-1
 200 200 l 1,3,-1
 0 200 l 1,0,-1
0 600 m 1,0,-1
 0 800 l 1,1,-1
 200 800 l 1,2,-1
 200 600 l 1,3,-1
 0 600 l 1,0,-1
200 400 m 1,0,-1
 200 600 l 1,1,-1
 400 600 l 1,2,-1
 400 400 l 1,3,-1
 200 400 l 1,0,-1
400 200 m 1,0,-1
 400 400 l 1,1,-1
 600 400 l 1,2,-1
 600 200 l 1,3,-1
 400 200 l 1,0,-1
400 600 m 1,0,-1
 400 800 l 1,1,-1
 600 800 l 1,2,-1
 600 600 l 1,3,-1
 400 600 l 1,0,-1
EndSplineSet
EndChar

StartChar: 8280
Encoding: 8280 8280 7
Width: 800
VWidth: 1200
GlyphClass: 2
Flags: W
LayerCount: 2
Fore
SplineSet
0 200 m 1,0,-1
 0 400 l 1,1,-1
 200 400 l 1,2,-1
 200 200 l 1,3,-1
 0 200 l 1,0,-1
0 600 m 1,0,-1
 0 800 l 1,1,-1
 200 800 l 1,2,-1
 200 600 l 1,3,-1
 0 600 l 1,0,-1
400 200 m 1,0,-1
 400 400 l 1,1,-1
 600 400 l 1,2,-1
 600 200 l 1,3,-1
 400 200 l 1,0,-1
400 600 m 1,0,-1
 400 800 l 1,1,-1
 600 800 l 1,2,-1
 600 600 l 1,3,-1
 400 600 l 1,0,-1
EndSplineSet
EndChar

StartChar: 8214
Encoding: 8214 8214 8
Width: 800
VWidth: 1200
GlyphClass: 2
Flags: W
LayerCount: 2
Fore
SplineSet
0 200 m 1,0,-1
 0 800 l 1,1,-1
 200 800 l 1,2,-1
 200 200 l 1,3,-1
 0 200 l 1,0,-1
400 200 m 1,0,-1
 400 800 l 1,1,-1
 600 800 l 1,2,-1
 600 200 l 1,3,-1
 400 200 l 1,0,-1
EndSplineSet
EndChar

StartChar: 9664
Encoding: 9664 9664 9
Width: 800
VWidth: 1200
GlyphClass: 2
Flags: W
LayerCount: 2
Fore
SplineSet
0 400 m 1,0,-1
 0 600 l 1,1,-1
 200 600 l 1,2,-1
 200 800 l 1,3,-1
 400 800 l 1,4,-1
 400 1000 l 1,5,-1
 600 1000 l 1,6,-1
 600 0 l 1,7,-1
 400 0 l 1,8,-1
 400 200 l 1,9,-1
 200 200 l 1,10,-1
 200 400 l 1,11,-1
 0 400 l 1,0,-1
EndSplineSet
EndChar

StartChar: 9654
Encoding: 9654 9654 10
Width: 800
VWidth: 1200
GlyphClass: 2
Flags: W
LayerCount: 2
Fore
SplineSet
0 0 m 1,0,-1
 0 1000 l 1,1,-1
 200 1000 l 1,2,-1
 200 800 l 1,3,-1
 400 800 l 1,4,-1
 400 600 l 1,5,-1
 600 600 l 1,6,-1
 600 400 l 1,7,-1
 400 400 l 1,8,-1
 400 200 l 1,9,-1
 200 200 l 1,10,-1
 200 0 l 1,11,-1
 0 0 l 1,0,-1
EndSplineSet
EndChar

StartChar: 12300
Encoding: 12300 12300 11
Width: 800
VWidth: 1200
GlyphClass: 2
Flags: W
LayerCount: 2
Fore
SplineSet
0 200 m 1,0,-1
 0 1000 l 1,1,-1
 600 1000 l 1,2,-1
 600 800 l 1,3,-1
 200 800 l 1,4,-1
 200 200 l 1,5,-1
 0 200 l 1,0,-1
EndSplineSet
EndChar

StartChar: 12301
Encoding: 12301 12301 12
Width: 800
VWidth: 1200
GlyphClass: 2
Flags: W
LayerCount: 2
Fore
SplineSet
0 0 m 1,0,-1
 0 200 l 1,1,-1
 400 200 l 1,2,-1
 400 800 l 1,3,-1
 600 800 l 1,4,-1
 600 0 l 1,5,-1
 0 0 l 1,0,-1
EndSplineSet
EndChar

StartChar: 165
Encoding: 165 165 13
Width: 800
VWidth: 1200
GlyphClass: 2
Flags: W
LayerCount: 2
Fore
SplineSet
0 200 m 1,0,-1
 0 400 l 1,1,-1
 200 400 l 1,2,-1
 200 600 l 1,3,-1
 0 600 l 1,4,-1
 0 1000 l 1,5,-1
 200 1000 l 1,6,-1
 200 800 l 1,7,-1
 400 800 l 1,8,-1
 400 1000 l 1,9,-1
 600 1000 l 1,10,-1
 600 600 l 1,11,-1
 400 600 l 1,12,-1
 400 400 l 1,13,-1
 600 400 l 1,14,-1
 600 200 l 1,15,-1
 400 200 l 1,16,-1
 400 0 l 1,17,-1
 200 0 l 1,18,-1
 200 200 l 1,19,-1
 0 200 l 1,0,-1
EndSplineSet
EndChar

StartChar: 8226
Encoding: 8226 8226 14
Width: 800
VWidth: 1200
GlyphClass: 2
Flags: W
LayerCount: 2
Fore
SplineSet
200 400 m 1,0,-1
 200 600 l 1,1,-1
 400 600 l 1,2,-1
 400 400 l 1,3,-1
 200 400 l 1,0,-1
EndSplineSet
EndChar

StartChar: 12289
Encoding: 12289 12289 15
Width: 800
VWidth: 1200
GlyphClass: 2
Flags: W
LayerCount: 2
Fore
SplineSet
0 200 m 1,0,-1
 0 400 l 1,1,-1
 200 400 l 1,2,-1
 200 200 l 1,3,-1
 0 200 l 1,0,-1
200 0 m 1,0,-1
 200 200 l 1,1,-1
 400 200 l 1,2,-1
 400 0 l 1,3,-1
 200 0 l 1,0,-1
EndSplineSet
EndChar

StartChar: 12290
Encoding: 12290 12290 16
Width: 800
VWidth: 1200
GlyphClass: 2
Flags: W
LayerCount: 2
Fore
SplineSet
0 0 m 1,0,-1
 0 400 l 1,1,-1
 400 400 l 1,2,-1
 400 0 l 1,3,-1
 0 0 l 1,0,-1
EndSplineSet
EndChar

StartChar: 12443
Encoding: 12443 12443 17
Width: 800
VWidth: 1200
GlyphClass: 2
Flags: W
LayerCount: 2
Fore
SplineSet
0 600 m 1,0,-1
 0 1000 l 1,1,-1
 200 1000 l 1,2,-1
 200 600 l 1,3,-1
 0 600 l 1,0,-1
400 600 m 1,0,-1
 400 1000 l 1,1,-1
 600 1000 l 1,2,-1
 600 600 l 1,3,-1
 400 600 l 1,0,-1
EndSplineSet
EndChar

StartChar: 12444
Encoding: 12444 12444 18
Width: 800
VWidth: 1200
GlyphClass: 2
Flags: W
LayerCount: 2
Fore
SplineSet
0 600 m 1,0,-1
 0 800 l 1,1,-1
 200 800 l 1,2,-1
 200 600 l 1,3,-1
 0 600 l 1,0,-1
200 400 m 1,0,-1
 200 600 l 1,1,-1
 400 600 l 1,2,-1
 400 400 l 1,3,-1
 200 400 l 1,0,-1
200 800 m 1,0,-1
 200 1000 l 1,1,-1
 400 1000 l 1,2,-1
 400 800 l 1,3,-1
 200 800 l 1,0,-1
400 600 m 1,0,-1
 400 800 l 1,1,-1
 600 800 l 1,2,-1
 600 600 l 1,3,-1
 400 600 l 1,0,-1
EndSplineSet
EndChar

StartChar: 32
Encoding: 32 32 19
Width: 800
VWidth: 1200
GlyphClass: 2
Flags: W
LayerCount: 2
Fore
SplineSet
EndSplineSet
EndChar

StartChar: 33
Encoding: 33 33 20
Width: 800
VWidth: 1200
GlyphClass: 2
Flags: W
LayerCount: 2
Fore
SplineSet
200 0 m 1,0,-1
 200 200 l 1,1,-1
 400 200 l 1,2,-1
 400 0 l 1,3,-1
 200 0 l 1,0,-1
200 400 m 1,0,-1
 200 1000 l 1,1,-1
 400 1000 l 1,2,-1
 400 400 l 1,3,-1
 200 400 l 1,0,-1
EndSplineSet
EndChar

StartChar: 34
Encoding: 34 34 21
Width: 800
VWidth: 1200
GlyphClass: 2
Flags: W
LayerCount: 2
Fore
SplineSet
0 600 m 1,0,-1
 0 1000 l 1,1,-1
 200 1000 l 1,2,-1
 200 600 l 1,3,-1
 0 600 l 1,0,-1
400 600 m 1,0,-1
 400 1000 l 1,1,-1
 600 1000 l 1,2,-1
 600 600 l 1,3,-1
 400 600 l 1,0,-1
EndSplineSet
EndChar

StartChar: 35
Encoding: 35 35 22
Width: 800
VWidth: 1200
GlyphClass: 2
Flags: W
LayerCount: 2
Fore
SplineSet
0 0 m 1,0,-1
 0 1000 l 1,1,-1
 200 1000 l 1,2,-1
 200 800 l 1,3,-1
 400 800 l 1,4,-1
 400 1000 l 1,5,-1
 600 1000 l 1,6,-1
 600 0 l 1,7,-1
 400 0 l 1,8,-1
 400 200 l 1,9,-1
 200 200 l 1,10,-1
 200 0 l 1,11,-1
 0 0 l 1,0,-1
200 400 m 1,0,-1
 400 400 l 1,1,-1
 400 600 l 1,2,-1
 200 600 l 1,3,-1
 200 400 l 1,0,-1
EndSplineSet
EndChar

StartChar: 36
Encoding: 36 36 23
Width: 800
VWidth: 1200
GlyphClass: 2
Flags: W
LayerCount: 2
Fore
SplineSet
0 200 m 1,0,-1
 0 400 l 1,1,-1
 200 400 l 1,2,-1
 200 600 l 1,3,-1
 0 600 l 1,4,-1
 0 1000 l 1,5,-1
 600 1000 l 1,6,-1
 600 800 l 1,7,-1
 400 800 l 1,8,-1
 400 600 l 1,9,-1
 600 600 l 1,10,-1
 600 200 l 1,11,-1
 400 200 l 1,12,-1
 400 0 l 1,13,-1
 200 0 l 1,14,-1
 200 200 l 1,15,-1
 0 200 l 1,0,-1
EndSplineSet
EndChar

StartChar: 37
Encoding: 37 37 24
Width: 800
VWidth: 1200
GlyphClass: 2
Flags: W
LayerCount: 2
Fore
SplineSet
0 0 m 1,0,-1
 0 400 l 1,1,-1
 200 400 l 1,2,-1
 200 0 l 1,3,-1
 0 0 l 1,0,-1
0 800 m 1,0,-1
 0 1000 l 1,1,-1
 200 1000 l 1,2,-1
 200 800 l 1,3,-1
 0 800 l 1,0,-1
200 400 m 1,0,-1
 200 600 l 1,1,-1
 400 600 l 1,2,-1
 400 400 l 1,3,-1
 200 400 l 1,0,-1
400 0 m 1,0,-1
 400 200 l 1,1,-1
 600 200 l 1,2,-1
 600 0 l 1,3,-1
 400 0 l 1,0,-1
400 600 m 1,0,-1
 400 1000 l 1,1,-1
 600 1000 l 1,2,-1
 600 600 l 1,3,-1
 400 600 l 1,0,-1
EndSplineSet
EndChar

StartChar: 38
Encoding: 38 38 25
Width: 800
VWidth: 1200
GlyphClass: 2
Flags: W
LayerCount: 2
Fore
SplineSet
0 0 m 1,0,-1
 0 1000 l 1,1,-1
 400 1000 l 1,2,-1
 400 400 l 1,3,-1
 200 400 l 1,4,-1
 200 200 l 1,5,-1
 400 200 l 1,6,-1
 400 400 l 1,7,-1
 600 400 l 1,8,-1
 600 0 l 1,9,-1
 0 0 l 1,0,-1
EndSplineSet
EndChar

StartChar: 39
Encoding: 39 39 26
Width: 800
VWidth: 1200
GlyphClass: 2
Flags: W
LayerCount: 2
Fore
SplineSet
0 600 m 1,0,-1
 0 800 l 1,1,-1
 200 800 l 1,2,-1
 200 600 l 1,3,-1
 0 600 l 1,0,-1
200 800 m 1,0,-1
 200 1000 l 1,1,-1
 400 1000 l 1,2,-1
 400 800 l 1,3,-1
 200 800 l 1,0,-1
EndSplineSet
EndChar

StartChar: 40
Encoding: 40 40 27
Width: 800
VWidth: 1200
GlyphClass: 2
Flags: W
LayerCount: 2
Fore
SplineSet
0 200 m 1,0,-1
 0 800 l 1,1,-1
 200 800 l 1,2,-1
 200 200 l 1,3,-1
 0 200 l 1,0,-1
200 0 m 1,0,-1
 200 200 l 1,1,-1
 400 200 l 1,2,-1
 400 0 l 1,3,-1
 200 0 l 1,0,-1
200 800 m 1,0,-1
 200 1000 l 1,1,-1
 400 1000 l 1,2,-1
 400 800 l 1,3,-1
 200 800 l 1,0,-1
EndSplineSet
EndChar

StartChar: 41
Encoding: 41 41 28
Width: 800
VWidth: 1200
GlyphClass: 2
Flags: W
LayerCount: 2
Fore
SplineSet
200 0 m 1,0,-1
 200 200 l 1,1,-1
 400 200 l 1,2,-1
 400 0 l 1,3,-1
 200 0 l 1,0,-1
200 800 m 1,0,-1
 200 1000 l 1,1,-1
 400 1000 l 1,2,-1
 400 800 l 1,3,-1
 200 800 l 1,0,-1
400 200 m 1,0,-1
 400 800 l 1,1,-1
 600 800 l 1,2,-1
 600 200 l 1,3,-1
 400 200 l 1,0,-1
EndSplineSet
EndChar

StartChar: 42
Encoding: 42 42 29
Width: 800
VWidth: 1200
GlyphClass: 2
Flags: W
LayerCount: 2
Fore
SplineSet
0 0 m 1,0,-1
 0 200 l 1,1,-1
 200 200 l 1,2,-1
 200 0 l 1,3,-1
 0 0 l 1,0,-1
0 400 m 1,0,-1
 0 600 l 1,1,-1
 200 600 l 1,2,-1
 200 800 l 1,3,-1
 400 800 l 1,4,-1
 400 600 l 1,5,-1
 600 600 l 1,6,-1
 600 400 l 1,7,-1
 400 400 l 1,8,-1
 400 200 l 1,9,-1
 200 200 l 1,10,-1
 200 400 l 1,11,-1
 0 400 l 1,0,-1
0 800 m 1,0,-1
 0 1000 l 1,1,-1
 200 1000 l 1,2,-1
 200 800 l 1,3,-1
 0 800 l 1,0,-1
400 0 m 1,0,-1
 400 200 l 1,1,-1
 600 200 l 1,2,-1
 600 0 l 1,3,-1
 400 0 l 1,0,-1
400 800 m 1,0,-1
 400 1000 l 1,1,-1
 600 1000 l 1,2,-1
 600 800 l 1,3,-1
 400 800 l 1,0,-1
EndSplineSet
EndChar

StartChar: 43
Encoding: 43 43 30
Width: 800
VWidth: 1200
GlyphClass: 2
Flags: W
LayerCount: 2
Fore
SplineSet
0 400 m 1,0,-1
 0 600 l 1,1,-1
 200 600 l 1,2,-1
 200 800 l 1,3,-1
 400 800 l 1,4,-1
 400 600 l 1,5,-1
 600 600 l 1,6,-1
 600 400 l 1,7,-1
 400 400 l 1,8,-1
 400 200 l 1,9,-1
 200 200 l 1,10,-1
 200 400 l 1,11,-1
 0 400 l 1,0,-1
EndSplineSet
EndChar

StartChar: 44
Encoding: 44 44 31
Width: 800
VWidth: 1200
GlyphClass: 2
Flags: W
LayerCount: 2
Fore
SplineSet
0 0 m 1,0,-1
 0 200 l 1,1,-1
 200 200 l 1,2,-1
 200 0 l 1,3,-1
 0 0 l 1,0,-1
200 200 m 1,0,-1
 200 400 l 1,1,-1
 400 400 l 1,2,-1
 400 200 l 1,3,-1
 200 200 l 1,0,-1
EndSplineSet
EndChar

StartChar: 45
Encoding: 45 45 32
Width: 800
VWidth: 1200
GlyphClass: 2
Flags: W
LayerCount: 2
Fore
SplineSet
0 400 m 1,0,-1
 0 600 l 1,1,-1
 600 600 l 1,2,-1
 600 400 l 1,3,-1
 0 400 l 1,0,-1
EndSplineSet
EndChar

StartChar: 46
Encoding: 46 46 33
Width: 800
VWidth: 1200
GlyphClass: 2
Flags: W
LayerCount: 2
Fore
SplineSet
200 0 m 1,0,-1
 200 200 l 1,1,-1
 400 200 l 1,2,-1
 400 0 l 1,3,-1
 200 0 l 1,0,-1
EndSplineSet
EndChar

StartChar: 47
Encoding: 47 47 34
Width: 800
VWidth: 1200
GlyphClass: 2
Flags: W
LayerCount: 2
Fore
SplineSet
0 0 m 1,0,-1
 0 200 l 1,1,-1
 200 200 l 1,2,-1
 200 0 l 1,3,-1
 0 0 l 1,0,-1
200 200 m 1,0,-1
 200 800 l 1,1,-1
 400 800 l 1,2,-1
 400 200 l 1,3,-1
 200 200 l 1,0,-1
400 800 m 1,0,-1
 400 1000 l 1,1,-1
 600 1000 l 1,2,-1
 600 800 l 1,3,-1
 400 800 l 1,0,-1
EndSplineSet
EndChar

StartChar: 48
Encoding: 48 48 35
Width: 800
VWidth: 1200
GlyphClass: 2
Flags: W
LayerCount: 2
Fore
SplineSet
0 0 m 1,0,-1
 0 1000 l 1,1,-1
 600 1000 l 1,2,-1
 600 0 l 1,3,-1
 0 0 l 1,0,-1
200 200 m 1,0,-1
 400 200 l 1,1,-1
 400 800 l 1,2,-1
 200 800 l 1,3,-1
 200 200 l 1,0,-1
EndSplineSet
EndChar

StartChar: 49
Encoding: 49 49 36
Width: 800
VWidth: 1200
GlyphClass: 2
Flags: W
LayerCount: 2
Fore
SplineSet
0 0 m 1,0,-1
 0 200 l 1,1,-1
 200 200 l 1,2,-1
 200 800 l 1,3,-1
 0 800 l 1,4,-1
 0 1000 l 1,5,-1
 400 1000 l 1,6,-1
 400 200 l 1,7,-1
 600 200 l 1,8,-1
 600 0 l 1,9,-1
 0 0 l 1,0,-1
EndSplineSet
EndChar

StartChar: 50
Encoding: 50 50 37
Width: 800
VWidth: 1200
GlyphClass: 2
Flags: W
LayerCount: 2
Fore
SplineSet
0 0 m 1,0,-1
 0 600 l 1,1,-1
 400 600 l 1,2,-1
 400 800 l 1,3,-1
 0 800 l 1,4,-1
 0 1000 l 1,5,-1
 600 1000 l 1,6,-1
 600 400 l 1,7,-1
 200 400 l 1,8,-1
 200 200 l 1,9,-1
 600 200 l 1,10,-1
 600 0 l 1,11,-1
 0 0 l 1,0,-1
EndSplineSet
EndChar

StartChar: 51
Encoding: 51 51 38
Width: 800
VWidth: 1200
GlyphClass: 2
Flags: W
LayerCount: 2
Fore
SplineSet
0 0 m 1,0,-1
 0 200 l 1,1,-1
 400 200 l 1,2,-1
 400 400 l 1,3,-1
 200 400 l 1,4,-1
 200 600 l 1,5,-1
 400 600 l 1,6,-1
 400 800 l 1,7,-1
 0 800 l 1,8,-1
 0 1000 l 1,9,-1
 600 1000 l 1,10,-1
 600 0 l 1,11,-1
 0 0 l 1,0,-1
EndSplineSet
EndChar

StartChar: 52
Encoding: 52 52 39
Width: 800
VWidth: 1200
GlyphClass: 2
Flags: W
LayerCount: 2
Fore
SplineSet
0 400 m 1,0,-1
 0 1000 l 1,1,-1
 200 1000 l 1,2,-1
 200 600 l 1,3,-1
 400 600 l 1,4,-1
 400 1000 l 1,5,-1
 600 1000 l 1,6,-1
 600 0 l 1,7,-1
 400 0 l 1,8,-1
 400 400 l 1,9,-1
 0 400 l 1,0,-1
EndSplineSet
EndChar

StartChar: 53
Encoding: 53 53 40
Width: 800
VWidth: 1200
GlyphClass: 2
Flags: W
LayerCount: 2
Fore
SplineSet
0 0 m 1,0,-1
 0 200 l 1,1,-1
 400 200 l 1,2,-1
 400 400 l 1,3,-1
 0 400 l 1,4,-1
 0 1000 l 1,5,-1
 600 1000 l 1,6,-1
 600 800 l 1,7,-1
 200 800 l 1,8,-1
 200 600 l 1,9,-1
 600 600 l 1,10,-1
 600 0 l 1,11,-1
 0 0 l 1,0,-1
EndSplineSet
EndChar

StartChar: 54
Encoding: 54 54 41
Width: 800
VWidth: 1200
GlyphClass: 2
Flags: W
LayerCount: 2
Fore
SplineSet
0 0 m 1,0,-1
 0 1000 l 1,1,-1
 200 1000 l 1,2,-1
 200 600 l 1,3,-1
 600 600 l 1,4,-1
 600 0 l 1,5,-1
 0 0 l 1,0,-1
200 200 m 1,0,-1
 400 200 l 1,1,-1
 400 400 l 1,2,-1
 200 400 l 1,3,-1
 200 200 l 1,0,-1
EndSplineSet
EndChar

StartChar: 55
Encoding: 55 55 42
Width: 800
VWidth: 1200
GlyphClass: 2
Flags: W
LayerCount: 2
Fore
SplineSet
0 800 m 1,0,-1
 0 1000 l 1,1,-1
 600 1000 l 1,2,-1
 600 0 l 1,3,-1
 400 0 l 1,4,-1
 400 800 l 1,5,-1
 0 800 l 1,0,-1
EndSplineSet
EndChar

StartChar: 56
Encoding: 56 56 43
Width: 800
VWidth: 1200
GlyphClass: 2
Flags: W
LayerCount: 2
Fore
SplineSet
0 0 m 1,0,-1
 0 1000 l 1,1,-1
 600 1000 l 1,2,-1
 600 0 l 1,3,-1
 0 0 l 1,0,-1
200 200 m 1,0,-1
 400 200 l 1,1,-1
 400 400 l 1,2,-1
 200 400 l 1,3,-1
 200 200 l 1,0,-1
200 600 m 1,0,-1
 400 600 l 1,1,-1
 400 800 l 1,2,-1
 200 800 l 1,3,-1
 200 600 l 1,0,-1
EndSplineSet
EndChar

StartChar: 57
Encoding: 57 57 44
Width: 800
VWidth: 1200
GlyphClass: 2
Flags: W
LayerCount: 2
Fore
SplineSet
0 400 m 1,0,-1
 0 1000 l 1,1,-1
 600 1000 l 1,2,-1
 600 0 l 1,3,-1
 400 0 l 1,4,-1
 400 400 l 1,5,-1
 0 400 l 1,0,-1
200 600 m 1,0,-1
 400 600 l 1,1,-1
 400 800 l 1,2,-1
 200 800 l 1,3,-1
 200 600 l 1,0,-1
EndSplineSet
EndChar

StartChar: 58
Encoding: 58 58 45
Width: 800
VWidth: 1200
GlyphClass: 2
Flags: W
LayerCount: 2
Fore
SplineSet
200 200 m 1,0,-1
 200 400 l 1,1,-1
 400 400 l 1,2,-1
 400 200 l 1,3,-1
 200 200 l 1,0,-1
200 600 m 1,0,-1
 200 800 l 1,1,-1
 400 800 l 1,2,-1
 400 600 l 1,3,-1
 200 600 l 1,0,-1
EndSplineSet
EndChar

StartChar: 59
Encoding: 59 59 46
Width: 800
VWidth: 1200
GlyphClass: 2
Flags: W
LayerCount: 2
Fore
SplineSet
0 0 m 1,0,-1
 0 200 l 1,1,-1
 200 200 l 1,2,-1
 200 0 l 1,3,-1
 0 0 l 1,0,-1
200 200 m 1,0,-1
 200 400 l 1,1,-1
 400 400 l 1,2,-1
 400 200 l 1,3,-1
 200 200 l 1,0,-1
200 600 m 1,0,-1
 200 800 l 1,1,-1
 400 800 l 1,2,-1
 400 600 l 1,3,-1
 200 600 l 1,0,-1
EndSplineSet
EndChar

StartChar: 60
Encoding: 60 60 47
Width: 800
VWidth: 1200
GlyphClass: 2
Flags: W
LayerCount: 2
Fore
SplineSet
0 400 m 1,0,-1
 0 600 l 1,1,-1
 200 600 l 1,2,-1
 200 400 l 1,3,-1
 0 400 l 1,0,-1
200 200 m 1,0,-1
 200 400 l 1,1,-1
 400 400 l 1,2,-1
 400 200 l 1,3,-1
 200 200 l 1,0,-1
200 600 m 1,0,-1
 200 800 l 1,1,-1
 400 800 l 1,2,-1
 400 600 l 1,3,-1
 200 600 l 1,0,-1
400 0 m 1,0,-1
 400 200 l 1,1,-1
 600 200 l 1,2,-1
 600 0 l 1,3,-1
 400 0 l 1,0,-1
400 800 m 1,0,-1
 400 1000 l 1,1,-1
 600 1000 l 1,2,-1
 600 800 l 1,3,-1
 400 800 l 1,0,-1
EndSplineSet
EndChar

StartChar: 61
Encoding: 61 61 48
Width: 800
VWidth: 1200
GlyphClass: 2
Flags: W
LayerCount: 2
Fore
SplineSet
0 200 m 1,0,-1
 0 400 l 1,1,-1
 600 400 l 1,2,-1
 600 200 l 1,3,-1
 0 200 l 1,0,-1
0 600 m 1,0,-1
 0 800 l 1,1,-1
 600 800 l 1,2,-1
 600 600 l 1,3,-1
 0 600 l 1,0,-1
EndSplineSet
EndChar

StartChar: 62
Encoding: 62 62 49
Width: 800
VWidth: 1200
GlyphClass: 2
Flags: W
LayerCount: 2
Fore
SplineSet
0 0 m 1,0,-1
 0 200 l 1,1,-1
 200 200 l 1,2,-1
 200 0 l 1,3,-1
 0 0 l 1,0,-1
0 800 m 1,0,-1
 0 1000 l 1,1,-1
 200 1000 l 1,2,-1
 200 800 l 1,3,-1
 0 800 l 1,0,-1
200 200 m 1,0,-1
 200 400 l 1,1,-1
 400 400 l 1,2,-1
 400 200 l 1,3,-1
 200 200 l 1,0,-1
200 600 m 1,0,-1
 200 800 l 1,1,-1
 400 800 l 1,2,-1
 400 600 l 1,3,-1
 200 600 l 1,0,-1
400 400 m 1,0,-1
 400 600 l 1,1,-1
 600 600 l 1,2,-1
 600 400 l 1,3,-1
 400 400 l 1,0,-1
EndSplineSet
EndChar

StartChar: 63
Encoding: 63 63 50
Width: 800
VWidth: 1200
GlyphClass: 2
Flags: W
LayerCount: 2
Fore
SplineSet
0 800 m 1,0,-1
 0 1000 l 1,1,-1
 600 1000 l 1,2,-1
 600 400 l 1,3,-1
 200 400 l 1,4,-1
 200 600 l 1,5,-1
 400 600 l 1,6,-1
 400 800 l 1,7,-1
 0 800 l 1,0,-1
200 0 m 1,0,-1
 200 200 l 1,1,-1
 400 200 l 1,2,-1
 400 0 l 1,3,-1
 200 0 l 1,0,-1
EndSplineSet
EndChar

StartChar: 64
Encoding: 64 64 51
Width: 800
VWidth: 1200
GlyphClass: 2
Flags: W
LayerCount: 2
Fore
SplineSet
0 200 m 1,0,-1
 0 800 l 1,1,-1
 200 800 l 1,2,-1
 200 200 l 1,3,-1
 0 200 l 1,0,-1
200 0 m 1,0,-1
 200 200 l 1,1,-1
 600 200 l 1,2,-1
 600 0 l 1,3,-1
 200 0 l 1,0,-1
200 800 m 1,0,-1
 200 1000 l 1,1,-1
 400 1000 l 1,2,-1
 400 800 l 1,3,-1
 200 800 l 1,0,-1
400 400 m 1,0,-1
 400 800 l 1,1,-1
 600 800 l 1,2,-1
 600 400 l 1,3,-1
 400 400 l 1,0,-1
EndSplineSet
EndChar

StartChar: 65
Encoding: 65 65 52
Width: 800
VWidth: 1200
GlyphClass: 2
Flags: W
LayerCount: 2
Fore
SplineSet
0 0 m 1,0,-1
 0 1000 l 1,1,-1
 600 1000 l 1,2,-1
 600 0 l 1,3,-1
 400 0 l 1,4,-1
 400 400 l 1,5,-1
 200 400 l 1,6,-1
 200 0 l 1,7,-1
 0 0 l 1,0,-1
200 600 m 1,0,-1
 400 600 l 1,1,-1
 400 800 l 1,2,-1
 200 800 l 1,3,-1
 200 600 l 1,0,-1
EndSplineSet
EndChar

StartChar: 66
Encoding: 66 66 53
Width: 800
VWidth: 1200
GlyphClass: 2
Flags: W
LayerCount: 2
Fore
SplineSet
0 0 m 1,0,-1
 0 1000 l 1,1,-1
 600 1000 l 1,2,-1
 600 600 l 1,3,-1
 400 600 l 1,4,-1
 400 800 l 1,5,-1
 200 800 l 1,6,-1
 200 600 l 1,7,-1
 400 600 l 1,8,-1
 400 400 l 1,9,-1
 200 400 l 1,10,-1
 200 200 l 1,11,-1
 400 200 l 1,12,-1
 400 400 l 1,13,-1
 600 400 l 1,14,-1
 600 0 l 1,15,-1
 0 0 l 1,0,-1
EndSplineSet
EndChar

StartChar: 67
Encoding: 67 67 54
Width: 800
VWidth: 1200
GlyphClass: 2
Flags: W
LayerCount: 2
Fore
SplineSet
0 200 m 1,0,-1
 0 800 l 1,1,-1
 200 800 l 1,2,-1
 200 200 l 1,3,-1
 0 200 l 1,0,-1
200 0 m 1,0,-1
 200 200 l 1,1,-1
 600 200 l 1,2,-1
 600 0 l 1,3,-1
 200 0 l 1,0,-1
200 800 m 1,0,-1
 200 1000 l 1,1,-1
 600 1000 l 1,2,-1
 600 800 l 1,3,-1
 200 800 l 1,0,-1
EndSplineSet
EndChar

StartChar: 68
Encoding: 68 68 55
Width: 800
VWidth: 1200
GlyphClass: 2
Flags: W
LayerCount: 2
Fore
SplineSet
0 0 m 1,0,-1
 0 1000 l 1,1,-1
 400 1000 l 1,2,-1
 400 800 l 1,3,-1
 200 800 l 1,4,-1
 200 200 l 1,5,-1
 400 200 l 1,6,-1
 400 800 l 1,7,-1
 600 800 l 1,8,-1
 600 0 l 1,9,-1
 0 0 l 1,0,-1
EndSplineSet
EndChar

StartChar: 69
Encoding: 69 69 56
Width: 800
VWidth: 1200
GlyphClass: 2
Flags: W
LayerCount: 2
Fore
SplineSet
0 0 m 1,0,-1
 0 1000 l 1,1,-1
 600 1000 l 1,2,-1
 600 800 l 1,3,-1
 200 800 l 1,4,-1
 200 600 l 1,5,-1
 400 600 l 1,6,-1
 400 400 l 1,7,-1
 200 400 l 1,8,-1
 200 200 l 1,9,-1
 600 200 l 1,10,-1
 600 0 l 1,11,-1
 0 0 l 1,0,-1
EndSplineSet
EndChar

StartChar: 70
Encoding: 70 70 57
Width: 800
VWidth: 1200
GlyphClass: 2
Flags: W
LayerCount: 2
Fore
SplineSet
0 0 m 1,0,-1
 0 1000 l 1,1,-1
 600 1000 l 1,2,-1
 600 800 l 1,3,-1
 200 800 l 1,4,-1
 200 600 l 1,5,-1
 400 600 l 1,6,-1
 400 400 l 1,7,-1
 200 400 l 1,8,-1
 200 0 l 1,9,-1
 0 0 l 1,0,-1
EndSplineSet
EndChar

StartChar: 71
Encoding: 71 71 58
Width: 800
VWidth: 1200
GlyphClass: 2
Flags: W
LayerCount: 2
Fore
SplineSet
0 0 m 1,0,-1
 0 800 l 1,1,-1
 200 800 l 1,2,-1
 200 200 l 1,3,-1
 400 200 l 1,4,-1
 400 400 l 1,5,-1
 600 400 l 1,6,-1
 600 0 l 1,7,-1
 0 0 l 1,0,-1
200 800 m 1,0,-1
 200 1000 l 1,1,-1
 600 1000 l 1,2,-1
 600 800 l 1,3,-1
 200 800 l 1,0,-1
EndSplineSet
EndChar

StartChar: 72
Encoding: 72 72 59
Width: 800
VWidth: 1200
GlyphClass: 2
Flags: W
LayerCount: 2
Fore
SplineSet
0 0 m 1,0,-1
 0 1000 l 1,1,-1
 200 1000 l 1,2,-1
 200 600 l 1,3,-1
 400 600 l 1,4,-1
 400 1000 l 1,5,-1
 600 1000 l 1,6,-1
 600 0 l 1,7,-1
 400 0 l 1,8,-1
 400 400 l 1,9,-1
 200 400 l 1,10,-1
 200 0 l 1,11,-1
 0 0 l 1,0,-1
EndSplineSet
EndChar

StartChar: 73
Encoding: 73 73 60
Width: 800
VWidth: 1200
GlyphClass: 2
Flags: W
LayerCount: 2
Fore
SplineSet
0 0 m 1,0,-1
 0 200 l 1,1,-1
 200 200 l 1,2,-1
 200 800 l 1,3,-1
 0 800 l 1,4,-1
 0 1000 l 1,5,-1
 600 1000 l 1,6,-1
 600 800 l 1,7,-1
 400 800 l 1,8,-1
 400 200 l 1,9,-1
 600 200 l 1,10,-1
 600 0 l 1,11,-1
 0 0 l 1,0,-1
EndSplineSet
EndChar

StartChar: 74
Encoding: 74 74 61
Width: 800
VWidth: 1200
GlyphClass: 2
Flags: W
LayerCount: 2
Fore
SplineSet
0 0 m 1,0,-1
 0 200 l 1,1,-1
 200 200 l 1,2,-1
 200 800 l 1,3,-1
 0 800 l 1,4,-1
 0 1000 l 1,5,-1
 600 1000 l 1,6,-1
 600 800 l 1,7,-1
 400 800 l 1,8,-1
 400 0 l 1,9,-1
 0 0 l 1,0,-1
EndSplineSet
EndChar

StartChar: 75
Encoding: 75 75 62
Width: 800
VWidth: 1200
GlyphClass: 2
Flags: W
LayerCount: 2
Fore
SplineSet
0 0 m 1,0,-1
 0 1000 l 1,1,-1
 200 1000 l 1,2,-1
 200 600 l 1,3,-1
 400 600 l 1,4,-1
 400 400 l 1,5,-1
 200 400 l 1,6,-1
 200 0 l 1,7,-1
 0 0 l 1,0,-1
400 0 m 1,0,-1
 400 400 l 1,1,-1
 600 400 l 1,2,-1
 600 0 l 1,3,-1
 400 0 l 1,0,-1
400 600 m 1,0,-1
 400 1000 l 1,1,-1
 600 1000 l 1,2,-1
 600 600 l 1,3,-1
 400 600 l 1,0,-1
EndSplineSet
EndChar

StartChar: 76
Encoding: 76 76 63
Width: 800
VWidth: 1200
GlyphClass: 2
Flags: W
LayerCount: 2
Fore
SplineSet
0 0 m 1,0,-1
 0 1000 l 1,1,-1
 200 1000 l 1,2,-1
 200 200 l 1,3,-1
 600 200 l 1,4,-1
 600 0 l 1,5,-1
 0 0 l 1,0,-1
EndSplineSet
EndChar

StartChar: 77
Encoding: 77 77 64
Width: 800
VWidth: 1200
GlyphClass: 2
Flags: W
LayerCount: 2
Fore
SplineSet
0 0 m 1,0,-1
 0 1000 l 1,1,-1
 600 1000 l 1,2,-1
 600 0 l 1,3,-1
 400 0 l 1,4,-1
 400 600 l 1,5,-1
 200 600 l 1,6,-1
 200 0 l 1,7,-1
 0 0 l 1,0,-1
EndSplineSet
EndChar

StartChar: 78
Encoding: 78 78 65
Width: 800
VWidth: 1200
GlyphClass: 2
Flags: W
LayerCount: 2
Fore
SplineSet
0 0 m 1,0,-1
 0 1000 l 1,1,-1
 400 1000 l 1,2,-1
 400 800 l 1,3,-1
 200 800 l 1,4,-1
 200 0 l 1,5,-1
 0 0 l 1,0,-1
400 0 m 1,0,-1
 400 800 l 1,1,-1
 600 800 l 1,2,-1
 600 0 l 1,3,-1
 400 0 l 1,0,-1
EndSplineSet
EndChar

StartChar: 79
Encoding: 79 79 66
Width: 800
VWidth: 1200
GlyphClass: 2
Flags: W
LayerCount: 2
Fore
SplineSet
0 0 m 1,0,-1
 0 800 l 1,1,-1
 200 800 l 1,2,-1
 200 200 l 1,3,-1
 400 200 l 1,4,-1
 400 0 l 1,5,-1
 0 0 l 1,0,-1
200 800 m 1,0,-1
 200 1000 l 1,1,-1
 600 1000 l 1,2,-1
 600 200 l 1,3,-1
 400 200 l 1,4,-1
 400 800 l 1,5,-1
 200 800 l 1,0,-1
EndSplineSet
EndChar

StartChar: 80
Encoding: 80 80 67
Width: 800
VWidth: 1200
GlyphClass: 2
Flags: W
LayerCount: 2
Fore
SplineSet
0 0 m 1,0,-1
 0 1000 l 1,1,-1
 600 1000 l 1,2,-1
 600 400 l 1,3,-1
 200 400 l 1,4,-1
 200 0 l 1,5,-1
 0 0 l 1,0,-1
200 600 m 1,0,-1
 400 600 l 1,1,-1
 400 800 l 1,2,-1
 200 800 l 1,3,-1
 200 600 l 1,0,-1
EndSplineSet
EndChar

StartChar: 81
Encoding: 81 81 68
Width: 800
VWidth: 1200
GlyphClass: 2
Flags: W
LayerCount: 2
Fore
SplineSet
0 200 m 1,0,-1
 0 800 l 1,1,-1
 200 800 l 1,2,-1
 200 400 l 1,3,-1
 400 400 l 1,4,-1
 400 200 l 1,5,-1
 600 200 l 1,6,-1
 600 0 l 1,7,-1
 200 0 l 1,8,-1
 200 200 l 1,9,-1
 0 200 l 1,0,-1
200 800 m 1,0,-1
 200 1000 l 1,1,-1
 400 1000 l 1,2,-1
 400 800 l 1,3,-1
 200 800 l 1,0,-1
400 400 m 1,0,-1
 400 800 l 1,1,-1
 600 800 l 1,2,-1
 600 400 l 1,3,-1
 400 400 l 1,0,-1
EndSplineSet
EndChar

StartChar: 82
Encoding: 82 82 69
Width: 800
VWidth: 1200
GlyphClass: 2
Flags: W
LayerCount: 2
Fore
SplineSet
0 0 m 1,0,-1
 0 1000 l 1,1,-1
 600 1000 l 1,2,-1
 600 600 l 1,3,-1
 400 600 l 1,4,-1
 400 800 l 1,5,-1
 200 800 l 1,6,-1
 200 600 l 1,7,-1
 400 600 l 1,8,-1
 400 400 l 1,9,-1
 200 400 l 1,10,-1
 200 0 l 1,11,-1
 0 0 l 1,0,-1
400 0 m 1,0,-1
 400 400 l 1,1,-1
 600 400 l 1,2,-1
 600 0 l 1,3,-1
 400 0 l 1,0,-1
EndSplineSet
EndChar

StartChar: 83
Encoding: 83 83 70
Width: 800
VWidth: 1200
GlyphClass: 2
Flags: W
LayerCount: 2
Fore
SplineSet
0 0 m 1,0,-1
 0 200 l 1,1,-1
 400 200 l 1,2,-1
 400 0 l 1,3,-1
 0 0 l 1,0,-1
0 400 m 1,0,-1
 0 800 l 1,1,-1
 200 800 l 1,2,-1
 200 600 l 1,3,-1
 600 600 l 1,4,-1
 600 200 l 1,5,-1
 400 200 l 1,6,-1
 400 400 l 1,7,-1
 0 400 l 1,0,-1
200 800 m 1,0,-1
 200 1000 l 1,1,-1
 600 1000 l 1,2,-1
 600 800 l 1,3,-1
 200 800 l 1,0,-1
EndSplineSet
EndChar

StartChar: 84
Encoding: 84 84 71
Width: 800
VWidth: 1200
GlyphClass: 2
Flags: W
LayerCount: 2
Fore
SplineSet
0 800 m 1,0,-1
 0 1000 l 1,1,-1
 600 1000 l 1,2,-1
 600 800 l 1,3,-1
 400 800 l 1,4,-1
 400 0 l 1,5,-1
 200 0 l 1,6,-1
 200 800 l 1,7,-1
 0 800 l 1,0,-1
EndSplineSet
EndChar

StartChar: 85
Encoding: 85 85 72
Width: 800
VWidth: 1200
GlyphClass: 2
Flags: W
LayerCount: 2
Fore
SplineSet
0 200 m 1,0,-1
 0 1000 l 1,1,-1
 200 1000 l 1,2,-1
 200 200 l 1,3,-1
 0 200 l 1,0,-1
200 0 m 1,0,-1
 200 200 l 1,1,-1
 400 200 l 1,2,-1
 400 1000 l 1,3,-1
 600 1000 l 1,4,-1
 600 0 l 1,5,-1
 200 0 l 1,0,-1
EndSplineSet
EndChar

StartChar: 86
Encoding: 86 86 73
Width: 800
VWidth: 1200
GlyphClass: 2
Flags: W
LayerCount: 2
Fore
SplineSet
0 200 m 1,0,-1
 0 1000 l 1,1,-1
 200 1000 l 1,2,-1
 200 400 l 1,3,-1
 400 400 l 1,4,-1
 400 1000 l 1,5,-1
 600 1000 l 1,6,-1
 600 200 l 1,7,-1
 400 200 l 1,8,-1
 400 0 l 1,9,-1
 200 0 l 1,10,-1
 200 200 l 1,11,-1
 0 200 l 1,0,-1
EndSplineSet
EndChar

StartChar: 87
Encoding: 87 87 74
Width: 800
VWidth: 1200
GlyphClass: 2
Flags: W
LayerCount: 2
Fore
SplineSet
0 0 m 1,0,-1
 0 1000 l 1,1,-1
 200 1000 l 1,2,-1
 200 400 l 1,3,-1
 400 400 l 1,4,-1
 400 1000 l 1,5,-1
 600 1000 l 1,6,-1
 600 0 l 1,7,-1
 0 0 l 1,0,-1
EndSplineSet
EndChar

StartChar: 88
Encoding: 88 88 75
Width: 800
VWidth: 1200
GlyphClass: 2
Flags: W
LayerCount: 2
Fore
SplineSet
0 0 m 1,0,-1
 0 400 l 1,1,-1
 200 400 l 1,2,-1
 200 0 l 1,3,-1
 0 0 l 1,0,-1
0 600 m 1,0,-1
 0 1000 l 1,1,-1
 200 1000 l 1,2,-1
 200 600 l 1,3,-1
 0 600 l 1,0,-1
200 400 m 1,0,-1
 200 600 l 1,1,-1
 400 600 l 1,2,-1
 400 400 l 1,3,-1
 200 400 l 1,0,-1
400 0 m 1,0,-1
 400 400 l 1,1,-1
 600 400 l 1,2,-1
 600 0 l 1,3,-1
 400 0 l 1,0,-1
400 600 m 1,0,-1
 400 1000 l 1,1,-1
 600 1000 l 1,2,-1
 600 600 l 1,3,-1
 400 600 l 1,0,-1
EndSplineSet
EndChar

StartChar: 89
Encoding: 89 89 76
Width: 800
VWidth: 1200
GlyphClass: 2
Flags: W
LayerCount: 2
Fore
SplineSet
0 0 m 1,0,-1
 0 200 l 1,1,-1
 400 200 l 1,2,-1
 400 400 l 1,3,-1
 0 400 l 1,4,-1
 0 1000 l 1,5,-1
 200 1000 l 1,6,-1
 200 600 l 1,7,-1
 400 600 l 1,8,-1
 400 1000 l 1,9,-1
 600 1000 l 1,10,-1
 600 0 l 1,11,-1
 0 0 l 1,0,-1
EndSplineSet
EndChar

StartChar: 90
Encoding: 90 90 77
Width: 800
VWidth: 1200
GlyphClass: 2
Flags: W
LayerCount: 2
Fore
SplineSet
0 0 m 1,0,-1
 0 400 l 1,1,-1
 200 400 l 1,2,-1
 200 200 l 1,3,-1
 600 200 l 1,4,-1
 600 0 l 1,5,-1
 0 0 l 1,0,-1
0 800 m 1,0,-1
 0 1000 l 1,1,-1
 600 1000 l 1,2,-1
 600 600 l 1,3,-1
 400 600 l 1,4,-1
 400 800 l 1,5,-1
 0 800 l 1,0,-1
200 400 m 1,0,-1
 200 600 l 1,1,-1
 400 600 l 1,2,-1
 400 400 l 1,3,-1
 200 400 l 1,0,-1
EndSplineSet
EndChar

StartChar: 91
Encoding: 91 91 78
Width: 800
VWidth: 1200
GlyphClass: 2
Flags: W
LayerCount: 2
Fore
SplineSet
0 0 m 1,0,-1
 0 1000 l 1,1,-1
 400 1000 l 1,2,-1
 400 800 l 1,3,-1
 200 800 l 1,4,-1
 200 200 l 1,5,-1
 400 200 l 1,6,-1
 400 0 l 1,7,-1
 0 0 l 1,0,-1
EndSplineSet
EndChar

StartChar: 92
Encoding: 92 92 79
Width: 800
VWidth: 1200
GlyphClass: 2
Flags: W
LayerCount: 2
Fore
SplineSet
0 800 m 1,0,-1
 0 1000 l 1,1,-1
 200 1000 l 1,2,-1
 200 800 l 1,3,-1
 0 800 l 1,0,-1
200 200 m 1,0,-1
 200 800 l 1,1,-1
 400 800 l 1,2,-1
 400 200 l 1,3,-1
 200 200 l 1,0,-1
400 0 m 1,0,-1
 400 200 l 1,1,-1
 600 200 l 1,2,-1
 600 0 l 1,3,-1
 400 0 l 1,0,-1
EndSplineSet
EndChar

StartChar: 93
Encoding: 93 93 80
Width: 800
VWidth: 1200
GlyphClass: 2
Flags: W
LayerCount: 2
Fore
SplineSet
200 0 m 1,0,-1
 200 200 l 1,1,-1
 400 200 l 1,2,-1
 400 800 l 1,3,-1
 200 800 l 1,4,-1
 200 1000 l 1,5,-1
 600 1000 l 1,6,-1
 600 0 l 1,7,-1
 200 0 l 1,0,-1
EndSplineSet
EndChar

StartChar: 94
Encoding: 94 94 81
Width: 800
VWidth: 1200
GlyphClass: 2
Flags: W
LayerCount: 2
Fore
SplineSet
0 600 m 1,0,-1
 0 800 l 1,1,-1
 200 800 l 1,2,-1
 200 600 l 1,3,-1
 0 600 l 1,0,-1
200 800 m 1,0,-1
 200 1000 l 1,1,-1
 400 1000 l 1,2,-1
 400 800 l 1,3,-1
 200 800 l 1,0,-1
400 600 m 1,0,-1
 400 800 l 1,1,-1
 600 800 l 1,2,-1
 600 600 l 1,3,-1
 400 600 l 1,0,-1
EndSplineSet
EndChar

StartChar: 95
Encoding: 95 95 82
Width: 800
VWidth: 1200
GlyphClass: 2
Flags: W
LayerCount: 2
Fore
SplineSet
0 0 m 1,0,-1
 0 200 l 1,1,-1
 600 200 l 1,2,-1
 600 0 l 1,3,-1
 0 0 l 1,0,-1
EndSplineSet
EndChar

StartChar: 96
Encoding: 96 96 83
Width: 800
VWidth: 1200
GlyphClass: 2
Flags: W
LayerCount: 2
Fore
SplineSet
200 800 m 1,0,-1
 200 1000 l 1,1,-1
 400 1000 l 1,2,-1
 400 800 l 1,3,-1
 200 800 l 1,0,-1
400 600 m 1,0,-1
 400 800 l 1,1,-1
 600 800 l 1,2,-1
 600 600 l 1,3,-1
 400 600 l 1,0,-1
EndSplineSet
EndChar

StartChar: 97
Encoding: 97 97 84
Width: 800
VWidth: 1200
GlyphClass: 2
Flags: W
LayerCount: 2
Fore
SplineSet
0 0 m 1,0,-1
 0 800 l 1,1,-1
 600 800 l 1,2,-1
 600 0 l 1,3,-1
 400 0 l 1,4,-1
 400 200 l 1,5,-1
 200 200 l 1,6,-1
 200 0 l 1,7,-1
 0 0 l 1,0,-1
200 400 m 1,0,-1
 400 400 l 1,1,-1
 400 600 l 1,2,-1
 200 600 l 1,3,-1
 200 400 l 1,0,-1
EndSplineSet
EndChar

StartChar: 98
Encoding: 98 98 85
Width: 800
VWidth: 1200
GlyphClass: 2
Flags: W
LayerCount: 2
Fore
SplineSet
0 0 m 1,0,-1
 0 800 l 1,1,-1
 400 800 l 1,2,-1
 400 400 l 1,3,-1
 200 400 l 1,4,-1
 200 200 l 1,5,-1
 400 200 l 1,6,-1
 400 400 l 1,7,-1
 600 400 l 1,8,-1
 600 0 l 1,9,-1
 0 0 l 1,0,-1
EndSplineSet
EndChar

StartChar: 99
Encoding: 99 99 86
Width: 800
VWidth: 1200
GlyphClass: 2
Flags: W
LayerCount: 2
Fore
SplineSet
0 0 m 1,0,-1
 0 800 l 1,1,-1
 600 800 l 1,2,-1
 600 600 l 1,3,-1
 200 600 l 1,4,-1
 200 200 l 1,5,-1
 600 200 l 1,6,-1
 600 0 l 1,7,-1
 0 0 l 1,0,-1
EndSplineSet
EndChar

StartChar: 100
Encoding: 100 100 87
Width: 800
VWidth: 1200
GlyphClass: 2
Flags: W
LayerCount: 2
Fore
SplineSet
0 0 m 1,0,-1
 0 800 l 1,1,-1
 400 800 l 1,2,-1
 400 600 l 1,3,-1
 200 600 l 1,4,-1
 200 200 l 1,5,-1
 400 200 l 1,6,-1
 400 0 l 1,7,-1
 0 0 l 1,0,-1
400 200 m 1,0,-1
 400 600 l 1,1,-1
 600 600 l 1,2,-1
 600 200 l 1,3,-1
 400 200 l 1,0,-1
EndSplineSet
EndChar

StartChar: 101
Encoding: 101 101 88
Width: 800
VWidth: 1200
GlyphClass: 2
Flags: W
LayerCount: 2
Fore
SplineSet
0 0 m 1,0,-1
 0 800 l 1,1,-1
 600 800 l 1,2,-1
 600 600 l 1,3,-1
 400 600 l 1,4,-1
 400 400 l 1,5,-1
 200 400 l 1,6,-1
 200 200 l 1,7,-1
 600 200 l 1,8,-1
 600 0 l 1,9,-1
 0 0 l 1,0,-1
EndSplineSet
EndChar

StartChar: 102
Encoding: 102 102 89
Width: 800
VWidth: 1200
GlyphClass: 2
Flags: W
LayerCount: 2
Fore
SplineSet
0 0 m 1,0,-1
 0 800 l 1,1,-1
 600 800 l 1,2,-1
 600 600 l 1,3,-1
 400 600 l 1,4,-1
 400 400 l 1,5,-1
 200 400 l 1,6,-1
 200 0 l 1,7,-1
 0 0 l 1,0,-1
EndSplineSet
EndChar

StartChar: 103
Encoding: 103 103 90
Width: 800
VWidth: 1200
GlyphClass: 2
Flags: W
LayerCount: 2
Fore
SplineSet
0 0 m 1,0,-1
 0 800 l 1,1,-1
 600 800 l 1,2,-1
 600 600 l 1,3,-1
 200 600 l 1,4,-1
 200 200 l 1,5,-1
 400 200 l 1,6,-1
 400 400 l 1,7,-1
 600 400 l 1,8,-1
 600 0 l 1,9,-1
 0 0 l 1,0,-1
EndSplineSet
EndChar

StartChar: 104
Encoding: 104 104 91
Width: 800
VWidth: 1200
GlyphClass: 2
Flags: W
LayerCount: 2
Fore
SplineSet
0 0 m 1,0,-1
 0 800 l 1,1,-1
 200 800 l 1,2,-1
 200 400 l 1,3,-1
 400 400 l 1,4,-1
 400 800 l 1,5,-1
 600 800 l 1,6,-1
 600 0 l 1,7,-1
 400 0 l 1,8,-1
 400 200 l 1,9,-1
 200 200 l 1,10,-1
 200 0 l 1,11,-1
 0 0 l 1,0,-1
EndSplineSet
EndChar

StartChar: 105
Encoding: 105 105 92
Width: 800
VWidth: 1200
GlyphClass: 2
Flags: W
LayerCount: 2
Fore
SplineSet
0 0 m 1,0,-1
 0 200 l 1,1,-1
 200 200 l 1,2,-1
 200 600 l 1,3,-1
 0 600 l 1,4,-1
 0 800 l 1,5,-1
 600 800 l 1,6,-1
 600 600 l 1,7,-1
 400 600 l 1,8,-1
 400 200 l 1,9,-1
 600 200 l 1,10,-1
 600 0 l 1,11,-1
 0 0 l 1,0,-1
EndSplineSet
EndChar

StartChar: 106
Encoding: 106 106 93
Width: 800
VWidth: 1200
GlyphClass: 2
Flags: W
LayerCount: 2
Fore
SplineSet
0 0 m 1,0,-1
 0 200 l 1,1,-1
 200 200 l 1,2,-1
 200 600 l 1,3,-1
 0 600 l 1,4,-1
 0 800 l 1,5,-1
 600 800 l 1,6,-1
 600 600 l 1,7,-1
 400 600 l 1,8,-1
 400 0 l 1,9,-1
 0 0 l 1,0,-1
EndSplineSet
EndChar

StartChar: 107
Encoding: 107 107 94
Width: 800
VWidth: 1200
GlyphClass: 2
Flags: W
LayerCount: 2
Fore
SplineSet
0 0 m 1,0,-1
 0 800 l 1,1,-1
 200 800 l 1,2,-1
 200 600 l 1,3,-1
 400 600 l 1,4,-1
 400 400 l 1,5,-1
 200 400 l 1,6,-1
 200 0 l 1,7,-1
 0 0 l 1,0,-1
400 0 m 1,0,-1
 400 400 l 1,1,-1
 600 400 l 1,2,-1
 600 0 l 1,3,-1
 400 0 l 1,0,-1
400 600 m 1,0,-1
 400 800 l 1,1,-1
 600 800 l 1,2,-1
 600 600 l 1,3,-1
 400 600 l 1,0,-1
EndSplineSet
EndChar

StartChar: 108
Encoding: 108 108 95
Width: 800
VWidth: 1200
GlyphClass: 2
Flags: W
LayerCount: 2
Fore
SplineSet
0 0 m 1,0,-1
 0 800 l 1,1,-1
 200 800 l 1,2,-1
 200 200 l 1,3,-1
 600 200 l 1,4,-1
 600 0 l 1,5,-1
 0 0 l 1,0,-1
EndSplineSet
EndChar

StartChar: 109
Encoding: 109 109 96
Width: 800
VWidth: 1200
GlyphClass: 2
Flags: W
LayerCount: 2
Fore
SplineSet
0 0 m 1,0,-1
 0 800 l 1,1,-1
 600 800 l 1,2,-1
 600 0 l 1,3,-1
 400 0 l 1,4,-1
 400 400 l 1,5,-1
 200 400 l 1,6,-1
 200 0 l 1,7,-1
 0 0 l 1,0,-1
EndSplineSet
EndChar

StartChar: 110
Encoding: 110 110 97
Width: 800
VWidth: 1200
GlyphClass: 2
Flags: W
LayerCount: 2
Fore
SplineSet
0 0 m 1,0,-1
 0 800 l 1,1,-1
 400 800 l 1,2,-1
 400 600 l 1,3,-1
 200 600 l 1,4,-1
 200 0 l 1,5,-1
 0 0 l 1,0,-1
400 0 m 1,0,-1
 400 600 l 1,1,-1
 600 600 l 1,2,-1
 600 0 l 1,3,-1
 400 0 l 1,0,-1
EndSplineSet
EndChar

StartChar: 111
Encoding: 111 111 98
Width: 800
VWidth: 1200
GlyphClass: 2
Flags: W
LayerCount: 2
Fore
SplineSet
0 0 m 1,0,-1
 0 600 l 1,1,-1
 200 600 l 1,2,-1
 200 200 l 1,3,-1
 400 200 l 1,4,-1
 400 0 l 1,5,-1
 0 0 l 1,0,-1
200 600 m 1,0,-1
 200 800 l 1,1,-1
 600 800 l 1,2,-1
 600 200 l 1,3,-1
 400 200 l 1,4,-1
 400 600 l 1,5,-1
 200 600 l 1,0,-1
EndSplineSet
EndChar

StartChar: 112
Encoding: 112 112 99
Width: 800
VWidth: 1200
GlyphClass: 2
Flags: W
LayerCount: 2
Fore
SplineSet
0 0 m 1,0,-1
 0 800 l 1,1,-1
 600 800 l 1,2,-1
 600 200 l 1,3,-1
 200 200 l 1,4,-1
 200 0 l 1,5,-1
 0 0 l 1,0,-1
200 400 m 1,0,-1
 400 400 l 1,1,-1
 400 600 l 1,2,-1
 200 600 l 1,3,-1
 200 400 l 1,0,-1
EndSplineSet
EndChar

StartChar: 113
Encoding: 113 113 100
Width: 800
VWidth: 1200
GlyphClass: 2
Flags: W
LayerCount: 2
Fore
SplineSet
0 200 m 1,0,-1
 0 600 l 1,1,-1
 200 600 l 1,2,-1
 200 400 l 1,3,-1
 400 400 l 1,4,-1
 400 200 l 1,5,-1
 600 200 l 1,6,-1
 600 0 l 1,7,-1
 200 0 l 1,8,-1
 200 200 l 1,9,-1
 0 200 l 1,0,-1
200 600 m 1,0,-1
 200 800 l 1,1,-1
 400 800 l 1,2,-1
 400 600 l 1,3,-1
 200 600 l 1,0,-1
400 400 m 1,0,-1
 400 600 l 1,1,-1
 600 600 l 1,2,-1
 600 400 l 1,3,-1
 400 400 l 1,0,-1
EndSplineSet
EndChar

StartChar: 114
Encoding: 114 114 101
Width: 800
VWidth: 1200
GlyphClass: 2
Flags: W
LayerCount: 2
Fore
SplineSet
0 0 m 1,0,-1
 0 800 l 1,1,-1
 600 800 l 1,2,-1
 600 400 l 1,3,-1
 400 400 l 1,4,-1
 400 600 l 1,5,-1
 200 600 l 1,6,-1
 200 400 l 1,7,-1
 400 400 l 1,8,-1
 400 200 l 1,9,-1
 200 200 l 1,10,-1
 200 0 l 1,11,-1
 0 0 l 1,0,-1
400 0 m 1,0,-1
 400 200 l 1,1,-1
 600 200 l 1,2,-1
 600 0 l 1,3,-1
 400 0 l 1,0,-1
EndSplineSet
EndChar

StartChar: 115
Encoding: 115 115 102
Width: 800
VWidth: 1200
GlyphClass: 2
Flags: W
LayerCount: 2
Fore
SplineSet
0 0 m 1,0,-1
 0 200 l 1,1,-1
 400 200 l 1,2,-1
 400 0 l 1,3,-1
 0 0 l 1,0,-1
0 400 m 1,0,-1
 0 600 l 1,1,-1
 200 600 l 1,2,-1
 200 400 l 1,3,-1
 0 400 l 1,0,-1
200 600 m 1,0,-1
 200 800 l 1,1,-1
 600 800 l 1,2,-1
 600 600 l 1,3,-1
 200 600 l 1,0,-1
400 200 m 1,0,-1
 400 400 l 1,1,-1
 600 400 l 1,2,-1
 600 200 l 1,3,-1
 400 200 l 1,0,-1
EndSplineSet
EndChar

StartChar: 116
Encoding: 116 116 103
Width: 800
VWidth: 1200
GlyphClass: 2
Flags: W
LayerCount: 2
Fore
SplineSet
0 600 m 1,0,-1
 0 800 l 1,1,-1
 600 800 l 1,2,-1
 600 600 l 1,3,-1
 400 600 l 1,4,-1
 400 0 l 1,5,-1
 200 0 l 1,6,-1
 200 600 l 1,7,-1
 0 600 l 1,0,-1
EndSplineSet
EndChar

StartChar: 117
Encoding: 117 117 104
Width: 800
VWidth: 1200
GlyphClass: 2
Flags: W
LayerCount: 2
Fore
SplineSet
0 200 m 1,0,-1
 0 800 l 1,1,-1
 200 800 l 1,2,-1
 200 200 l 1,3,-1
 0 200 l 1,0,-1
200 0 m 1,0,-1
 200 200 l 1,1,-1
 400 200 l 1,2,-1
 400 800 l 1,3,-1
 600 800 l 1,4,-1
 600 0 l 1,5,-1
 200 0 l 1,0,-1
EndSplineSet
EndChar

StartChar: 118
Encoding: 118 118 105
Width: 800
VWidth: 1200
GlyphClass: 2
Flags: W
LayerCount: 2
Fore
SplineSet
0 200 m 1,0,-1
 0 800 l 1,1,-1
 200 800 l 1,2,-1
 200 400 l 1,3,-1
 400 400 l 1,4,-1
 400 800 l 1,5,-1
 600 800 l 1,6,-1
 600 200 l 1,7,-1
 400 200 l 1,8,-1
 400 0 l 1,9,-1
 200 0 l 1,10,-1
 200 200 l 1,11,-1
 0 200 l 1,0,-1
EndSplineSet
EndChar

StartChar: 119
Encoding: 119 119 106
Width: 800
VWidth: 1200
GlyphClass: 2
Flags: W
LayerCount: 2
Fore
SplineSet
0 0 m 1,0,-1
 0 800 l 1,1,-1
 200 800 l 1,2,-1
 200 400 l 1,3,-1
 400 400 l 1,4,-1
 400 800 l 1,5,-1
 600 800 l 1,6,-1
 600 0 l 1,7,-1
 0 0 l 1,0,-1
EndSplineSet
EndChar

StartChar: 120
Encoding: 120 120 107
Width: 800
VWidth: 1200
GlyphClass: 2
Flags: W
LayerCount: 2
Fore
SplineSet
0 0 m 1,0,-1
 0 400 l 1,1,-1
 200 400 l 1,2,-1
 200 0 l 1,3,-1
 0 0 l 1,0,-1
0 600 m 1,0,-1
 0 800 l 1,1,-1
 200 800 l 1,2,-1
 200 600 l 1,3,-1
 0 600 l 1,0,-1
200 400 m 1,0,-1
 200 600 l 1,1,-1
 400 600 l 1,2,-1
 400 400 l 1,3,-1
 200 400 l 1,0,-1
400 0 m 1,0,-1
 400 400 l 1,1,-1
 600 400 l 1,2,-1
 600 0 l 1,3,-1
 400 0 l 1,0,-1
400 600 m 1,0,-1
 400 800 l 1,1,-1
 600 800 l 1,2,-1
 600 600 l 1,3,-1
 400 600 l 1,0,-1
EndSplineSet
EndChar

StartChar: 121
Encoding: 121 121 108
Width: 800
VWidth: 1200
GlyphClass: 2
Flags: W
LayerCount: 2
Fore
SplineSet
0 0 m 1,0,-1
 0 200 l 1,1,-1
 400 200 l 1,2,-1
 400 400 l 1,3,-1
 0 400 l 1,4,-1
 0 800 l 1,5,-1
 200 800 l 1,6,-1
 200 600 l 1,7,-1
 400 600 l 1,8,-1
 400 800 l 1,9,-1
 600 800 l 1,10,-1
 600 0 l 1,11,-1
 0 0 l 1,0,-1
EndSplineSet
EndChar

StartChar: 122
Encoding: 122 122 109
Width: 800
VWidth: 1200
GlyphClass: 2
Flags: W
LayerCount: 2
Fore
SplineSet
0 0 m 1,0,-1
 0 400 l 1,1,-1
 200 400 l 1,2,-1
 200 200 l 1,3,-1
 600 200 l 1,4,-1
 600 0 l 1,5,-1
 0 0 l 1,0,-1
0 600 m 1,0,-1
 0 800 l 1,1,-1
 600 800 l 1,2,-1
 600 400 l 1,3,-1
 400 400 l 1,4,-1
 400 600 l 1,5,-1
 0 600 l 1,0,-1
EndSplineSet
EndChar

StartChar: 123
Encoding: 123 123 110
Width: 800
VWidth: 1200
GlyphClass: 2
Flags: W
LayerCount: 2
Fore
SplineSet
0 400 m 1,0,-1
 0 600 l 1,1,-1
 200 600 l 1,2,-1
 200 1000 l 1,3,-1
 600 1000 l 1,4,-1
 600 800 l 1,5,-1
 400 800 l 1,6,-1
 400 200 l 1,7,-1
 600 200 l 1,8,-1
 600 0 l 1,9,-1
 200 0 l 1,10,-1
 200 400 l 1,11,-1
 0 400 l 1,0,-1
EndSplineSet
EndChar

StartChar: 124
Encoding: 124 124 111
Width: 800
VWidth: 1200
GlyphClass: 2
Flags: W
LayerCount: 2
Fore
SplineSet
200 0 m 1,0,-1
 200 1000 l 1,1,-1
 400 1000 l 1,2,-1
 400 0 l 1,3,-1
 200 0 l 1,0,-1
EndSplineSet
EndChar

StartChar: 125
Encoding: 125 125 112
Width: 800
VWidth: 1200
GlyphClass: 2
Flags: W
LayerCount: 2
Fore
SplineSet
0 0 m 1,0,-1
 0 200 l 1,1,-1
 200 200 l 1,2,-1
 200 800 l 1,3,-1
 0 800 l 1,4,-1
 0 1000 l 1,5,-1
 400 1000 l 1,6,-1
 400 600 l 1,7,-1
 600 600 l 1,8,-1
 600 400 l 1,9,-1
 400 400 l 1,10,-1
 400 0 l 1,11,-1
 0 0 l 1,0,-1
EndSplineSet
EndChar

StartChar: 126
Encoding: 126 126 113
Width: 800
VWidth: 1200
GlyphClass: 2
Flags: W
LayerCount: 2
Fore
SplineSet
0 200 m 1,0,-1
 0 600 l 1,1,-1
 400 600 l 1,2,-1
 400 800 l 1,3,-1
 600 800 l 1,4,-1
 600 400 l 1,5,-1
 200 400 l 1,6,-1
 200 200 l 1,7,-1
 0 200 l 1,0,-1
EndSplineSet
EndChar

StartChar: 9675
Encoding: 9675 9675 114
Width: 800
VWidth: 1200
GlyphClass: 2
Flags: W
LayerCount: 2
Fore
SplineSet
0 400 m 1,0,-1
 0 600 l 1,1,-1
 200 600 l 1,2,-1
 200 400 l 1,3,-1
 0 400 l 1,0,-1
200 200 m 1,0,-1
 200 400 l 1,1,-1
 400 400 l 1,2,-1
 400 200 l 1,3,-1
 200 200 l 1,0,-1
200 600 m 1,0,-1
 200 800 l 1,1,-1
 400 800 l 1,2,-1
 400 600 l 1,3,-1
 200 600 l 1,0,-1
400 400 m 1,0,-1
 400 600 l 1,1,-1
 600 600 l 1,2,-1
 600 400 l 1,3,-1
 400 400 l 1,0,-1
EndSplineSet
EndChar

StartChar: 9608
Encoding: 9608 9608 115
Width: 1600
VWidth: 1200
GlyphClass: 2
Flags: W
LayerCount: 2
Fore
SplineSet
0 0 m 1,0,-1
 0 1000 l 1,1,-1
 1400 1000 l 1,2,-1
 1400 0 l 1,3,-1
 0 0 l 1,0,-1
EndSplineSet
EndChar

StartChar: 9618
Encoding: 9618 9618 116
Width: 1600
VWidth: 1200
GlyphClass: 2
Flags: W
LayerCount: 2
Fore
SplineSet
0 0 m 1,0,-1
 0 200 l 1,1,-1
 200 200 l 1,2,-1
 200 0 l 1,3,-1
 0 0 l 1,0,-1
0 400 m 1,0,-1
 0 600 l 1,1,-1
 200 600 l 1,2,-1
 200 400 l 1,3,-1
 0 400 l 1,0,-1
0 800 m 1,0,-1
 0 1000 l 1,1,-1
 200 1000 l 1,2,-1
 200 800 l 1,3,-1
 0 800 l 1,0,-1
200 200 m 1,0,-1
 200 400 l 1,1,-1
 400 400 l 1,2,-1
 400 200 l 1,3,-1
 200 200 l 1,0,-1
200 600 m 1,0,-1
 200 800 l 1,1,-1
 400 800 l 1,2,-1
 400 600 l 1,3,-1
 200 600 l 1,0,-1
400 0 m 1,0,-1
 400 200 l 1,1,-1
 600 200 l 1,2,-1
 600 0 l 1,3,-1
 400 0 l 1,0,-1
400 400 m 1,0,-1
 400 600 l 1,1,-1
 600 600 l 1,2,-1
 600 400 l 1,3,-1
 400 400 l 1,0,-1
400 800 m 1,0,-1
 400 1000 l 1,1,-1
 600 1000 l 1,2,-1
 600 800 l 1,3,-1
 400 800 l 1,0,-1
600 200 m 1,0,-1
 600 400 l 1,1,-1
 800 400 l 1,2,-1
 800 200 l 1,3,-1
 600 200 l 1,0,-1
600 600 m 1,0,-1
 600 800 l 1,1,-1
 800 800 l 1,2,-1
 800 600 l 1,3,-1
 600 600 l 1,0,-1
800 0 m 1,0,-1
 800 200 l 1,1,-1
 1000 200 l 1,2,-1
 1000 0 l 1,3,-1
 800 0 l 1,0,-1
800 400 m 1,0,-1
 800 600 l 1,1,-1
 1000 600 l 1,2,-1
 1000 400 l 1,3,-1
 800 400 l 1,0,-1
800 800 m 1,0,-1
 800 1000 l 1,1,-1
 1000 1000 l 1,2,-1
 1000 800 l 1,3,-1
 800 800 l 1,0,-1
1000 200 m 1,0,-1
 1000 400 l 1,1,-1
 1200 400 l 1,2,-1
 1200 200 l 1,3,-1
 1000 200 l 1,0,-1
1000 600 m 1,0,-1
 1000 800 l 1,1,-1
 1200 800 l 1,2,-1
 1200 600 l 1,3,-1
 1000 600 l 1,0,-1
1200 0 m 1,0,-1
 1200 200 l 1,1,-1
 1400 200 l 1,2,-1
 1400 0 l 1,3,-1
 1200 0 l 1,0,-1
1200 400 m 1,0,-1
 1200 600 l 1,1,-1
 1400 600 l 1,2,-1
 1400 400 l 1,3,-1
 1200 400 l 1,0,-1
1200 800 m 1,0,-1
 1200 1000 l 1,1,-1
 1400 1000 l 1,2,-1
 1400 800 l 1,3,-1
 1200 800 l 1,0,-1
EndSplineSet
EndChar

StartChar: 128049
Encoding: 128049 128049 117
Width: 1600
VWidth: 1200
GlyphClass: 2
Flags: W
LayerCount: 2
Fore
SplineSet
0 200 m 1,0,-1
 0 1000 l 1,1,-1
 200 1000 l 1,2,-1
 200 800 l 1,3,-1
 1200 800 l 1,4,-1
 1200 1000 l 1,5,-1
 1400 1000 l 1,6,-1
 1400 200 l 1,7,-1
 1200 200 l 1,8,-1
 1200 600 l 1,9,-1
 1000 600 l 1,10,-1
 1000 200 l 1,11,-1
 1200 200 l 1,12,-1
 1200 0 l 1,13,-1
 200 0 l 1,14,-1
 200 200 l 1,15,-1
 400 200 l 1,16,-1
 400 600 l 1,17,-1
 200 600 l 1,18,-1
 200 200 l 1,19,-1
 0 200 l 1,0,-1
EndSplineSet
EndChar

StartChar: 11015
Encoding: 11015 11015 118
Width: 1600
VWidth: 1200
GlyphClass: 2
Flags: W
LayerCount: 2
Fore
SplineSet
0 200 m 1,0,-1
 0 800 l 1,1,-1
 200 800 l 1,2,-1
 200 1000 l 1,3,-1
 1200 1000 l 1,4,-1
 1200 800 l 1,5,-1
 1400 800 l 1,6,-1
 1400 200 l 1,7,-1
 1200 200 l 1,8,-1
 1200 0 l 1,9,-1
 200 0 l 1,10,-1
 200 200 l 1,11,-1
 0 200 l 1,0,-1
400 400 m 1,0,-1
 600 400 l 1,1,-1
 600 200 l 1,2,-1
 800 200 l 1,3,-1
 800 400 l 1,4,-1
 1000 400 l 1,5,-1
 1000 800 l 1,6,-1
 400 800 l 1,7,-1
 400 400 l 1,0,-1
EndSplineSet
EndChar

StartChar: 9617
Encoding: 9617 9617 119
Width: 1600
VWidth: 1200
GlyphClass: 2
Flags: W
LayerCount: 2
Fore
SplineSet
0 0 m 1,0,-1
 0 200 l 1,1,-1
 200 200 l 1,2,-1
 200 0 l 1,3,-1
 0 0 l 1,0,-1
0 400 m 1,0,-1
 0 600 l 1,1,-1
 200 600 l 1,2,-1
 200 400 l 1,3,-1
 0 400 l 1,0,-1
0 800 m 1,0,-1
 0 1000 l 1,1,-1
 200 1000 l 1,2,-1
 200 800 l 1,3,-1
 0 800 l 1,0,-1
400 200 m 1,0,-1
 400 400 l 1,1,-1
 600 400 l 1,2,-1
 600 200 l 1,3,-1
 400 200 l 1,0,-1
400 600 m 1,0,-1
 400 800 l 1,1,-1
 600 800 l 1,2,-1
 600 600 l 1,3,-1
 400 600 l 1,0,-1
800 0 m 1,0,-1
 800 200 l 1,1,-1
 1000 200 l 1,2,-1
 1000 0 l 1,3,-1
 800 0 l 1,0,-1
800 400 m 1,0,-1
 800 600 l 1,1,-1
 1000 600 l 1,2,-1
 1000 400 l 1,3,-1
 800 400 l 1,0,-1
800 800 m 1,0,-1
 800 1000 l 1,1,-1
 1000 1000 l 1,2,-1
 1000 800 l 1,3,-1
 800 800 l 1,0,-1
1200 200 m 1,0,-1
 1200 400 l 1,1,-1
 1400 400 l 1,2,-1
 1400 200 l 1,3,-1
 1200 200 l 1,0,-1
1200 600 m 1,0,-1
 1200 800 l 1,1,-1
 1400 800 l 1,2,-1
 1400 600 l 1,3,-1
 1200 600 l 1,0,-1
EndSplineSet
EndChar

StartChar: 10045
Encoding: 10045 10045 120
Width: 1600
VWidth: 1200
GlyphClass: 2
Flags: W
LayerCount: 2
Fore
SplineSet
200 200 m 1,0,-1
 200 400 l 1,1,-1
 400 400 l 1,2,-1
 400 1000 l 1,3,-1
 600 1000 l 1,4,-1
 600 800 l 1,5,-1
 1200 800 l 1,6,-1
 1200 600 l 1,7,-1
 1000 600 l 1,8,-1
 1000 0 l 1,9,-1
 800 0 l 1,10,-1
 800 200 l 1,11,-1
 200 200 l 1,0,-1
EndSplineSet
EndChar

StartChar: 9679
Encoding: 9679 9679 121
Width: 1600
VWidth: 1200
GlyphClass: 2
Flags: W
LayerCount: 2
Fore
SplineSet
200 200 m 1,0,-1
 200 800 l 1,1,-1
 400 800 l 1,2,-1
 400 1000 l 1,3,-1
 1000 1000 l 1,4,-1
 1000 800 l 1,5,-1
 800 800 l 1,6,-1
 800 600 l 1,7,-1
 1000 600 l 1,8,-1
 1000 800 l 1,9,-1
 1200 800 l 1,10,-1
 1200 200 l 1,11,-1
 1000 200 l 1,12,-1
 1000 0 l 1,13,-1
 400 0 l 1,14,-1
 400 200 l 1,15,-1
 200 200 l 1,0,-1
EndSplineSet
EndChar

StartChar: 9829
Encoding: 9829 9829 122
Width: 1600
VWidth: 1200
GlyphClass: 2
Flags: W
LayerCount: 2
Fore
SplineSet
200 400 m 1,0,-1
 200 1000 l 1,1,-1
 600 1000 l 1,2,-1
 600 800 l 1,3,-1
 800 800 l 1,4,-1
 800 1000 l 1,5,-1
 1200 1000 l 1,6,-1
 1200 400 l 1,7,-1
 1000 400 l 1,8,-1
 1000 200 l 1,9,-1
 800 200 l 1,10,-1
 800 0 l 1,11,-1
 600 0 l 1,12,-1
 600 200 l 1,13,-1
 400 200 l 1,14,-1
 400 400 l 1,15,-1
 200 400 l 1,0,-1
EndSplineSet
EndChar

StartChar: 9737
Encoding: 9737 9737 123
Width: 1600
VWidth: 1200
GlyphClass: 2
Flags: W
LayerCount: 2
Fore
SplineSet
0 400 m 1,0,-1
 0 600 l 1,1,-1
 200 600 l 1,2,-1
 200 800 l 1,3,-1
 400 800 l 1,4,-1
 400 1000 l 1,5,-1
 1000 1000 l 1,6,-1
 1000 800 l 1,7,-1
 1200 800 l 1,8,-1
 1200 600 l 1,9,-1
 1400 600 l 1,10,-1
 1400 400 l 1,11,-1
 1200 400 l 1,12,-1
 1200 200 l 1,13,-1
 1000 200 l 1,14,-1
 1000 0 l 1,15,-1
 400 0 l 1,16,-1
 400 200 l 1,17,-1
 200 200 l 1,18,-1
 200 400 l 1,19,-1
 0 400 l 1,0,-1
600 200 m 1,0,-1
 800 200 l 1,1,-1
 800 800 l 1,2,-1
 600 800 l 1,3,-1
 600 200 l 1,0,-1
EndSplineSet
EndChar

StartChar: 50883
Encoding: 50883 50883 124
Width: 1600
VWidth: 1200
GlyphClass: 2
Flags: W
LayerCount: 2
Fore
SplineSet
200 400 m 1,0,-1
 200 600 l 1,1,-1
 400 600 l 1,2,-1
 400 1000 l 1,3,-1
 1000 1000 l 1,4,-1
 1000 600 l 1,5,-1
 1200 600 l 1,6,-1
 1200 400 l 1,7,-1
 1000 400 l 1,8,-1
 1000 0 l 1,9,-1
 800 0 l 1,10,-1
 800 200 l 1,11,-1
 600 200 l 1,12,-1
 600 0 l 1,13,-1
 400 0 l 1,14,-1
 400 400 l 1,15,-1
 200 400 l 1,0,-1
EndSplineSet
EndChar

StartChar: 8962
Encoding: 8962 8962 125
Width: 1600
VWidth: 1200
GlyphClass: 2
Flags: W
LayerCount: 2
Fore
SplineSet
0 400 m 1,0,-1
 0 600 l 1,1,-1
 200 600 l 1,2,-1
 200 800 l 1,3,-1
 400 800 l 1,4,-1
 400 1000 l 1,5,-1
 1000 1000 l 1,6,-1
 1000 800 l 1,7,-1
 1200 800 l 1,8,-1
 1200 600 l 1,9,-1
 1400 600 l 1,10,-1
 1400 400 l 1,11,-1
 1200 400 l 1,12,-1
 1200 0 l 1,13,-1
 600 0 l 1,14,-1
 600 400 l 1,15,-1
 400 400 l 1,16,-1
 400 0 l 1,17,-1
 200 0 l 1,18,-1
 200 400 l 1,19,-1
 0 400 l 1,0,-1
800 200 m 1,0,-1
 1000 200 l 1,1,-1
 1000 400 l 1,2,-1
 800 400 l 1,3,-1
 800 200 l 1,0,-1
EndSplineSet
EndChar

StartChar: 11013
Encoding: 11013 11013 126
Width: 1600
VWidth: 1200
GlyphClass: 2
Flags: W
LayerCount: 2
Fore
SplineSet
0 200 m 1,0,-1
 0 800 l 1,1,-1
 200 800 l 1,2,-1
 200 1000 l 1,3,-1
 1200 1000 l 1,4,-1
 1200 800 l 1,5,-1
 1400 800 l 1,6,-1
 1400 200 l 1,7,-1
 1200 200 l 1,8,-1
 1200 0 l 1,9,-1
 200 0 l 1,10,-1
 200 200 l 1,11,-1
 0 200 l 1,0,-1
400 400 m 1,0,-1
 600 400 l 1,1,-1
 600 200 l 1,2,-1
 1000 200 l 1,3,-1
 1000 800 l 1,4,-1
 600 800 l 1,5,-1
 600 600 l 1,6,-1
 400 600 l 1,7,-1
 400 400 l 1,0,-1
EndSplineSet
EndChar

StartChar: 128528
Encoding: 128528 128528 127
Width: 1600
VWidth: 1200
GlyphClass: 2
Flags: W
LayerCount: 2
Fore
SplineSet
0 0 m 1,0,-1
 0 1000 l 1,1,-1
 1400 1000 l 1,2,-1
 1400 0 l 1,3,-1
 0 0 l 1,0,-1
200 200 m 1,0,-1
 1200 200 l 1,1,-1
 1200 400 l 1,2,-1
 200 400 l 1,3,-1
 200 200 l 1,0,-1
200 600 m 1,0,-1
 400 600 l 1,1,-1
 400 800 l 1,2,-1
 200 800 l 1,3,-1
 200 600 l 1,0,-1
1000 600 m 1,0,-1
 1200 600 l 1,1,-1
 1200 800 l 1,2,-1
 1000 800 l 1,3,-1
 1000 600 l 1,0,-1
EndSplineSet
EndChar

StartChar: 9834
Encoding: 9834 9834 128
Width: 1600
VWidth: 1200
GlyphClass: 2
Flags: W
LayerCount: 2
Fore
SplineSet
200 0 m 1,0,-1
 200 400 l 1,1,-1
 600 400 l 1,2,-1
 600 1000 l 1,3,-1
 1200 1000 l 1,4,-1
 1200 800 l 1,5,-1
 800 800 l 1,6,-1
 800 0 l 1,7,-1
 200 0 l 1,0,-1
EndSplineSet
EndChar

StartChar: 127358
Encoding: 127358 127358 129
Width: 1600
VWidth: 1200
GlyphClass: 2
Flags: W
LayerCount: 2
Fore
SplineSet
0 200 m 1,0,-1
 0 800 l 1,1,-1
 200 800 l 1,2,-1
 200 1000 l 1,3,-1
 1200 1000 l 1,4,-1
 1200 800 l 1,5,-1
 1400 800 l 1,6,-1
 1400 200 l 1,7,-1
 1200 200 l 1,8,-1
 1200 0 l 1,9,-1
 200 0 l 1,10,-1
 200 200 l 1,11,-1
 0 200 l 1,0,-1
400 200 m 1,0,-1
 1000 200 l 1,1,-1
 1000 800 l 1,2,-1
 400 800 l 1,3,-1
 400 200 l 1,0,-1
600 400 m 1,0,-1
 600 600 l 1,1,-1
 800 600 l 1,2,-1
 800 400 l 1,3,-1
 600 400 l 1,0,-1
EndSplineSet
EndChar

StartChar: 9670
Encoding: 9670 9670 130
Width: 1600
VWidth: 1200
GlyphClass: 2
Flags: W
LayerCount: 2
Fore
SplineSet
200 400 m 1,0,-1
 200 600 l 1,1,-1
 400 600 l 1,2,-1
 400 800 l 1,3,-1
 600 800 l 1,4,-1
 600 1000 l 1,5,-1
 800 1000 l 1,6,-1
 800 800 l 1,7,-1
 1000 800 l 1,8,-1
 1000 600 l 1,9,-1
 1200 600 l 1,10,-1
 1200 400 l 1,11,-1
 1000 400 l 1,12,-1
 1000 200 l 1,13,-1
 800 200 l 1,14,-1
 800 0 l 1,15,-1
 600 0 l 1,16,-1
 600 200 l 1,17,-1
 400 200 l 1,18,-1
 400 400 l 1,19,-1
 200 400 l 1,0,-1
EndSplineSet
EndChar

StartChar: 8230
Encoding: 8230 8230 131
Width: 1600
VWidth: 1200
GlyphClass: 2
Flags: W
LayerCount: 2
Fore
SplineSet
0 400 m 1,0,-1
 0 600 l 1,1,-1
 200 600 l 1,2,-1
 200 400 l 1,3,-1
 0 400 l 1,0,-1
400 400 m 1,0,-1
 400 600 l 1,1,-1
 600 600 l 1,2,-1
 600 400 l 1,3,-1
 400 400 l 1,0,-1
800 400 m 1,0,-1
 800 600 l 1,1,-1
 1000 600 l 1,2,-1
 1000 400 l 1,3,-1
 800 400 l 1,0,-1
1200 400 m 1,0,-1
 1200 600 l 1,1,-1
 1400 600 l 1,2,-1
 1400 400 l 1,3,-1
 1200 400 l 1,0,-1
EndSplineSet
EndChar

StartChar: 10145
Encoding: 10145 10145 132
Width: 1600
VWidth: 1200
GlyphClass: 2
Flags: W
LayerCount: 2
Fore
SplineSet
0 200 m 1,0,-1
 0 800 l 1,1,-1
 200 800 l 1,2,-1
 200 1000 l 1,3,-1
 1200 1000 l 1,4,-1
 1200 800 l 1,5,-1
 1400 800 l 1,6,-1
 1400 200 l 1,7,-1
 1200 200 l 1,8,-1
 1200 0 l 1,9,-1
 200 0 l 1,10,-1
 200 200 l 1,11,-1
 0 200 l 1,0,-1
400 200 m 1,0,-1
 800 200 l 1,1,-1
 800 400 l 1,2,-1
 1000 400 l 1,3,-1
 1000 600 l 1,4,-1
 800 600 l 1,5,-1
 800 800 l 1,6,-1
 400 800 l 1,7,-1
 400 200 l 1,0,-1
EndSplineSet
EndChar

StartChar: 9733
Encoding: 9733 9733 133
Width: 1600
VWidth: 1200
GlyphClass: 2
Flags: W
LayerCount: 2
Fore
SplineSet
0 400 m 1,0,-1
 0 600 l 1,1,-1
 400 600 l 1,2,-1
 400 800 l 1,3,-1
 600 800 l 1,4,-1
 600 1000 l 1,5,-1
 800 1000 l 1,6,-1
 800 800 l 1,7,-1
 1000 800 l 1,8,-1
 1000 600 l 1,9,-1
 1400 600 l 1,10,-1
 1400 400 l 1,11,-1
 1200 400 l 1,12,-1
 1200 0 l 1,13,-1
 1000 0 l 1,14,-1
 1000 200 l 1,15,-1
 400 200 l 1,16,-1
 400 0 l 1,17,-1
 200 0 l 1,18,-1
 200 400 l 1,19,-1
 0 400 l 1,0,-1
EndSplineSet
EndChar

StartChar: 10711
Encoding: 10711 10711 134
Width: 1600
VWidth: 1200
GlyphClass: 2
Flags: W
LayerCount: 2
Fore
SplineSet
200 0 m 1,0,-1
 200 200 l 1,1,-1
 400 200 l 1,2,-1
 400 400 l 1,3,-1
 600 400 l 1,4,-1
 600 600 l 1,5,-1
 400 600 l 1,6,-1
 400 800 l 1,7,-1
 200 800 l 1,8,-1
 200 1000 l 1,9,-1
 1200 1000 l 1,10,-1
 1200 800 l 1,11,-1
 1000 800 l 1,12,-1
 1000 600 l 1,13,-1
 800 600 l 1,14,-1
 800 400 l 1,15,-1
 1000 400 l 1,16,-1
 1000 200 l 1,17,-1
 1200 200 l 1,18,-1
 1200 0 l 1,19,-1
 200 0 l 1,0,-1
EndSplineSet
EndChar

StartChar: 11014
Encoding: 11014 11014 135
Width: 1600
VWidth: 1200
GlyphClass: 2
Flags: W
LayerCount: 2
Fore
SplineSet
0 200 m 1,0,-1
 0 800 l 1,1,-1
 200 800 l 1,2,-1
 200 1000 l 1,3,-1
 1200 1000 l 1,4,-1
 1200 800 l 1,5,-1
 1400 800 l 1,6,-1
 1400 200 l 1,7,-1
 1200 200 l 1,8,-1
 1200 0 l 1,9,-1
 200 0 l 1,10,-1
 200 200 l 1,11,-1
 0 200 l 1,0,-1
400 200 m 1,0,-1
 1000 200 l 1,1,-1
 1000 600 l 1,2,-1
 800 600 l 1,3,-1
 800 800 l 1,4,-1
 600 800 l 1,5,-1
 600 600 l 1,6,-1
 400 600 l 1,7,-1
 400 200 l 1,0,-1
EndSplineSet
EndChar

StartChar: 711
Encoding: 711 711 136
Width: 1600
VWidth: 1200
GlyphClass: 2
Flags: W
LayerCount: 2
Fore
SplineSet
0 600 m 1,0,-1
 0 800 l 1,1,-1
 200 800 l 1,2,-1
 200 600 l 1,3,-1
 0 600 l 1,0,-1
200 400 m 1,0,-1
 200 600 l 1,1,-1
 400 600 l 1,2,-1
 400 400 l 1,3,-1
 200 400 l 1,0,-1
400 600 m 1,0,-1
 400 800 l 1,1,-1
 600 800 l 1,2,-1
 600 600 l 1,3,-1
 400 600 l 1,0,-1
800 400 m 1,0,-1
 800 600 l 1,1,-1
 1000 600 l 1,2,-1
 1000 400 l 1,3,-1
 800 400 l 1,0,-1
1000 200 m 1,0,-1
 1000 400 l 1,1,-1
 1200 400 l 1,2,-1
 1200 200 l 1,3,-1
 1000 200 l 1,0,-1
1200 400 m 1,0,-1
 1200 600 l 1,1,-1
 1400 600 l 1,2,-1
 1400 400 l 1,3,-1
 1200 400 l 1,0,-1
EndSplineSet
EndChar

StartChar: 8743
Encoding: 8743 8743 137
Width: 1600
VWidth: 1200
GlyphClass: 2
Flags: W
LayerCount: 2
Fore
SplineSet
0 600 m 1,0,-1
 0 800 l 1,1,-1
 200 800 l 1,2,-1
 200 600 l 1,3,-1
 0 600 l 1,0,-1
200 400 m 1,0,-1
 200 600 l 1,1,-1
 400 600 l 1,2,-1
 400 400 l 1,3,-1
 200 400 l 1,0,-1
400 200 m 1,0,-1
 400 400 l 1,1,-1
 600 400 l 1,2,-1
 600 200 l 1,3,-1
 400 200 l 1,0,-1
600 400 m 1,0,-1
 600 600 l 1,1,-1
 800 600 l 1,2,-1
 800 400 l 1,3,-1
 600 400 l 1,0,-1
800 600 m 1,0,-1
 800 800 l 1,1,-1
 1000 800 l 1,2,-1
 1000 600 l 1,3,-1
 800 600 l 1,0,-1
1000 400 m 1,0,-1
 1000 600 l 1,1,-1
 1200 600 l 1,2,-1
 1200 400 l 1,3,-1
 1000 400 l 1,0,-1
1200 200 m 1,0,-1
 1200 400 l 1,1,-1
 1400 400 l 1,2,-1
 1400 200 l 1,3,-1
 1200 200 l 1,0,-1
EndSplineSet
EndChar

StartChar: 10062
Encoding: 10062 10062 138
Width: 1600
VWidth: 1200
GlyphClass: 2
Flags: W
LayerCount: 2
Fore
SplineSet
0 200 m 1,0,-1
 0 800 l 1,1,-1
 200 800 l 1,2,-1
 200 1000 l 1,3,-1
 1200 1000 l 1,4,-1
 1200 800 l 1,5,-1
 1400 800 l 1,6,-1
 1400 200 l 1,7,-1
 1200 200 l 1,8,-1
 1200 0 l 1,9,-1
 200 0 l 1,10,-1
 200 200 l 1,11,-1
 0 200 l 1,0,-1
400 200 m 1,0,-1
 600 200 l 1,1,-1
 600 400 l 1,2,-1
 400 400 l 1,3,-1
 400 200 l 1,0,-1
400 600 m 1,0,-1
 600 600 l 1,1,-1
 600 800 l 1,2,-1
 400 800 l 1,3,-1
 400 600 l 1,0,-1
600 400 m 1,0,-1
 800 400 l 1,1,-1
 800 600 l 1,2,-1
 600 600 l 1,3,-1
 600 400 l 1,0,-1
800 200 m 1,0,-1
 1000 200 l 1,1,-1
 1000 400 l 1,2,-1
 800 400 l 1,3,-1
 800 200 l 1,0,-1
800 600 m 1,0,-1
 1000 600 l 1,1,-1
 1000 800 l 1,2,-1
 800 800 l 1,3,-1
 800 600 l 1,0,-1
EndSplineSet
EndChar

StartChar: 9636
Encoding: 9636 9636 139
Width: 1600
VWidth: 1200
GlyphClass: 2
Flags: W
LayerCount: 2
Fore
SplineSet
0 0 m 1,0,-1
 0 200 l 1,1,-1
 1400 200 l 1,2,-1
 1400 0 l 1,3,-1
 0 0 l 1,0,-1
0 400 m 1,0,-1
 0 600 l 1,1,-1
 1400 600 l 1,2,-1
 1400 400 l 1,3,-1
 0 400 l 1,0,-1
0 800 m 1,0,-1
 0 1000 l 1,1,-1
 1400 1000 l 1,2,-1
 1400 800 l 1,3,-1
 0 800 l 1,0,-1
EndSplineSet
EndChar

StartChar: 9637
Encoding: 9637 9637 140
Width: 1600
VWidth: 1200
GlyphClass: 2
Flags: W
LayerCount: 2
Fore
SplineSet
0 0 m 1,0,-1
 0 1000 l 1,1,-1
 200 1000 l 1,2,-1
 200 0 l 1,3,-1
 0 0 l 1,0,-1
400 0 m 1,0,-1
 400 1000 l 1,1,-1
 600 1000 l 1,2,-1
 600 0 l 1,3,-1
 400 0 l 1,0,-1
800 0 m 1,0,-1
 800 1000 l 1,1,-1
 1000 1000 l 1,2,-1
 1000 0 l 1,3,-1
 800 0 l 1,0,-1
1200 0 m 1,0,-1
 1200 1000 l 1,1,-1
 1400 1000 l 1,2,-1
 1400 0 l 1,3,-1
 1200 0 l 1,0,-1
EndSplineSet
EndChar

StartChar: 12354
Encoding: 12354 12354 141
Width: 1600
VWidth: 1200
GlyphClass: 2
Flags: W
LayerCount: 2
Fore
SplineSet
0 200 m 1,0,-1
 0 400 l 1,1,-1
 200 400 l 1,2,-1
 200 200 l 1,3,-1
 0 200 l 1,0,-1
200 0 m 1,0,-1
 200 200 l 1,1,-1
 400 200 l 1,2,-1
 400 400 l 1,3,-1
 200 400 l 1,4,-1
 200 600 l 1,5,-1
 400 600 l 1,6,-1
 400 800 l 1,7,-1
 200 800 l 1,8,-1
 200 1000 l 1,9,-1
 800 1000 l 1,10,-1
 800 800 l 1,11,-1
 600 800 l 1,12,-1
 600 600 l 1,13,-1
 1000 600 l 1,14,-1
 1000 400 l 1,15,-1
 800 400 l 1,16,-1
 800 200 l 1,17,-1
 600 200 l 1,18,-1
 600 0 l 1,19,-1
 200 0 l 1,0,-1
1000 0 m 1,0,-1
 1000 400 l 1,1,-1
 1200 400 l 1,2,-1
 1200 0 l 1,3,-1
 1000 0 l 1,0,-1
EndSplineSet
EndChar

StartChar: 12356
Encoding: 12356 12356 142
Width: 1600
VWidth: 1200
GlyphClass: 2
Flags: W
LayerCount: 2
Fore
SplineSet
0 200 m 1,0,-1
 0 1000 l 1,1,-1
 200 1000 l 1,2,-1
 200 200 l 1,3,-1
 0 200 l 1,0,-1
200 0 m 1,0,-1
 200 200 l 1,1,-1
 400 200 l 1,2,-1
 400 0 l 1,3,-1
 200 0 l 1,0,-1
400 200 m 1,0,-1
 400 400 l 1,1,-1
 600 400 l 1,2,-1
 600 200 l 1,3,-1
 400 200 l 1,0,-1
800 600 m 1,0,-1
 800 800 l 1,1,-1
 1000 800 l 1,2,-1
 1000 600 l 1,3,-1
 800 600 l 1,0,-1
1000 200 m 1,0,-1
 1000 600 l 1,1,-1
 1200 600 l 1,2,-1
 1200 200 l 1,3,-1
 1000 200 l 1,0,-1
EndSplineSet
EndChar

StartChar: 12358
Encoding: 12358 12358 143
Width: 1600
VWidth: 1200
GlyphClass: 2
Flags: W
LayerCount: 2
Fore
SplineSet
200 400 m 1,0,-1
 200 600 l 1,1,-1
 1200 600 l 1,2,-1
 1200 200 l 1,3,-1
 1000 200 l 1,4,-1
 1000 400 l 1,5,-1
 200 400 l 1,0,-1
400 800 m 1,0,-1
 400 1000 l 1,1,-1
 1000 1000 l 1,2,-1
 1000 800 l 1,3,-1
 400 800 l 1,0,-1
600 0 m 1,0,-1
 600 200 l 1,1,-1
 1000 200 l 1,2,-1
 1000 0 l 1,3,-1
 600 0 l 1,0,-1
EndSplineSet
EndChar

StartChar: 12360
Encoding: 12360 12360 144
Width: 1600
VWidth: 1200
GlyphClass: 2
Flags: W
LayerCount: 2
Fore
SplineSet
200 0 m 1,0,-1
 200 200 l 1,1,-1
 400 200 l 1,2,-1
 400 0 l 1,3,-1
 200 0 l 1,0,-1
200 600 m 1,0,-1
 200 800 l 1,1,-1
 600 800 l 1,2,-1
 600 1000 l 1,3,-1
 800 1000 l 1,4,-1
 800 800 l 1,5,-1
 1000 800 l 1,6,-1
 1000 600 l 1,7,-1
 800 600 l 1,8,-1
 800 400 l 1,9,-1
 600 400 l 1,10,-1
 600 600 l 1,11,-1
 200 600 l 1,0,-1
400 200 m 1,0,-1
 400 400 l 1,1,-1
 600 400 l 1,2,-1
 600 200 l 1,3,-1
 400 200 l 1,0,-1
600 0 m 1,0,-1
 600 200 l 1,1,-1
 1000 200 l 1,2,-1
 1000 0 l 1,3,-1
 600 0 l 1,0,-1
1000 200 m 1,0,-1
 1000 400 l 1,1,-1
 1200 400 l 1,2,-1
 1200 200 l 1,3,-1
 1000 200 l 1,0,-1
EndSplineSet
EndChar

StartChar: 12362
Encoding: 12362 12362 145
Width: 1600
VWidth: 1200
GlyphClass: 2
Flags: W
LayerCount: 2
Fore
SplineSet
0 200 m 1,0,-1
 0 400 l 1,1,-1
 200 400 l 1,2,-1
 200 200 l 1,3,-1
 0 200 l 1,0,-1
200 0 m 1,0,-1
 200 200 l 1,1,-1
 400 200 l 1,2,-1
 400 400 l 1,3,-1
 200 400 l 1,4,-1
 200 600 l 1,5,-1
 400 600 l 1,6,-1
 400 800 l 1,7,-1
 200 800 l 1,8,-1
 200 1000 l 1,9,-1
 800 1000 l 1,10,-1
 800 800 l 1,11,-1
 600 800 l 1,12,-1
 600 600 l 1,13,-1
 1200 600 l 1,14,-1
 1200 400 l 1,15,-1
 600 400 l 1,16,-1
 600 0 l 1,17,-1
 200 0 l 1,0,-1
1000 0 m 1,0,-1
 1000 200 l 1,1,-1
 1200 200 l 1,2,-1
 1200 0 l 1,3,-1
 1000 0 l 1,0,-1
1200 200 m 1,0,-1
 1200 400 l 1,1,-1
 1400 400 l 1,2,-1
 1400 200 l 1,3,-1
 1200 200 l 1,0,-1
1200 800 m 1,0,-1
 1200 1000 l 1,1,-1
 1400 1000 l 1,2,-1
 1400 800 l 1,3,-1
 1200 800 l 1,0,-1
EndSplineSet
EndChar

StartChar: 12363
Encoding: 12363 12363 146
Width: 1600
VWidth: 1200
GlyphClass: 2
Flags: W
LayerCount: 2
Fore
SplineSet
0 600 m 1,0,-1
 0 800 l 1,1,-1
 200 800 l 1,2,-1
 200 1000 l 1,3,-1
 400 1000 l 1,4,-1
 400 800 l 1,5,-1
 1000 800 l 1,6,-1
 1000 200 l 1,7,-1
 800 200 l 1,8,-1
 800 600 l 1,9,-1
 400 600 l 1,10,-1
 400 0 l 1,11,-1
 200 0 l 1,12,-1
 200 600 l 1,13,-1
 0 600 l 1,0,-1
600 0 m 1,0,-1
 600 200 l 1,1,-1
 800 200 l 1,2,-1
 800 0 l 1,3,-1
 600 0 l 1,0,-1
1000 800 m 1,0,-1
 1000 1000 l 1,1,-1
 1200 1000 l 1,2,-1
 1200 800 l 1,3,-1
 1000 800 l 1,0,-1
1200 600 m 1,0,-1
 1200 800 l 1,1,-1
 1400 800 l 1,2,-1
 1400 600 l 1,3,-1
 1200 600 l 1,0,-1
EndSplineSet
EndChar

StartChar: 12365
Encoding: 12365 12365 147
Width: 1600
VWidth: 1200
GlyphClass: 2
Flags: W
LayerCount: 2
Fore
SplineSet
200 200 m 1,0,-1
 200 400 l 1,1,-1
 400 400 l 1,2,-1
 400 200 l 1,3,-1
 200 200 l 1,0,-1
200 600 m 1,0,-1
 200 800 l 1,1,-1
 400 800 l 1,2,-1
 400 1000 l 1,3,-1
 1000 1000 l 1,4,-1
 1000 800 l 1,5,-1
 1200 800 l 1,6,-1
 1200 600 l 1,7,-1
 1000 600 l 1,8,-1
 1000 400 l 1,9,-1
 400 400 l 1,10,-1
 400 600 l 1,11,-1
 200 600 l 1,0,-1
400 0 m 1,0,-1
 400 200 l 1,1,-1
 1000 200 l 1,2,-1
 1000 0 l 1,3,-1
 400 0 l 1,0,-1
EndSplineSet
EndChar

StartChar: 12367
Encoding: 12367 12367 148
Width: 1600
VWidth: 1200
GlyphClass: 2
Flags: W
LayerCount: 2
Fore
SplineSet
200 400 m 1,0,-1
 200 600 l 1,1,-1
 400 600 l 1,2,-1
 400 400 l 1,3,-1
 200 400 l 1,0,-1
400 200 m 1,0,-1
 400 400 l 1,1,-1
 800 400 l 1,2,-1
 800 200 l 1,3,-1
 400 200 l 1,0,-1
400 600 m 1,0,-1
 400 800 l 1,1,-1
 800 800 l 1,2,-1
 800 600 l 1,3,-1
 400 600 l 1,0,-1
800 0 m 1,0,-1
 800 200 l 1,1,-1
 1200 200 l 1,2,-1
 1200 0 l 1,3,-1
 800 0 l 1,0,-1
800 800 m 1,0,-1
 800 1000 l 1,1,-1
 1200 1000 l 1,2,-1
 1200 800 l 1,3,-1
 800 800 l 1,0,-1
EndSplineSet
EndChar

StartChar: 12369
Encoding: 12369 12369 149
Width: 1600
VWidth: 1200
GlyphClass: 2
Flags: W
LayerCount: 2
Fore
SplineSet
200 0 m 1,0,-1
 200 1000 l 1,1,-1
 400 1000 l 1,2,-1
 400 0 l 1,3,-1
 200 0 l 1,0,-1
600 600 m 1,0,-1
 600 800 l 1,1,-1
 1000 800 l 1,2,-1
 1000 1000 l 1,3,-1
 1200 1000 l 1,4,-1
 1200 800 l 1,5,-1
 1400 800 l 1,6,-1
 1400 600 l 1,7,-1
 1200 600 l 1,8,-1
 1200 200 l 1,9,-1
 1000 200 l 1,10,-1
 1000 600 l 1,11,-1
 600 600 l 1,0,-1
800 0 m 1,0,-1
 800 200 l 1,1,-1
 1000 200 l 1,2,-1
 1000 0 l 1,3,-1
 800 0 l 1,0,-1
EndSplineSet
EndChar

StartChar: 12371
Encoding: 12371 12371 150
Width: 1600
VWidth: 1200
GlyphClass: 2
Flags: W
LayerCount: 2
Fore
SplineSet
200 200 m 1,0,-1
 200 400 l 1,1,-1
 400 400 l 1,2,-1
 400 200 l 1,3,-1
 200 200 l 1,0,-1
200 800 m 1,0,-1
 200 1000 l 1,1,-1
 800 1000 l 1,2,-1
 800 800 l 1,3,-1
 200 800 l 1,0,-1
400 0 m 1,0,-1
 400 200 l 1,1,-1
 1200 200 l 1,2,-1
 1200 0 l 1,3,-1
 400 0 l 1,0,-1
800 600 m 1,0,-1
 800 800 l 1,1,-1
 1000 800 l 1,2,-1
 1000 600 l 1,3,-1
 800 600 l 1,0,-1
EndSplineSet
EndChar

StartChar: 12373
Encoding: 12373 12373 151
Width: 1600
VWidth: 1200
GlyphClass: 2
Flags: W
LayerCount: 2
Fore
SplineSet
0 200 m 1,0,-1
 0 400 l 1,1,-1
 200 400 l 1,2,-1
 200 200 l 1,3,-1
 0 200 l 1,0,-1
200 0 m 1,0,-1
 200 200 l 1,1,-1
 1000 200 l 1,2,-1
 1000 0 l 1,3,-1
 200 0 l 1,0,-1
200 400 m 1,0,-1
 200 600 l 1,1,-1
 600 600 l 1,2,-1
 600 800 l 1,3,-1
 200 800 l 1,4,-1
 200 1000 l 1,5,-1
 1200 1000 l 1,6,-1
 1200 800 l 1,7,-1
 800 800 l 1,8,-1
 800 400 l 1,9,-1
 200 400 l 1,0,-1
EndSplineSet
EndChar

StartChar: 12375
Encoding: 12375 12375 152
Width: 1600
VWidth: 1200
GlyphClass: 2
Flags: W
LayerCount: 2
Fore
SplineSet
200 200 m 1,0,-1
 200 1000 l 1,1,-1
 400 1000 l 1,2,-1
 400 200 l 1,3,-1
 200 200 l 1,0,-1
400 0 m 1,0,-1
 400 200 l 1,1,-1
 1000 200 l 1,2,-1
 1000 0 l 1,3,-1
 400 0 l 1,0,-1
1000 200 m 1,0,-1
 1000 400 l 1,1,-1
 1200 400 l 1,2,-1
 1200 200 l 1,3,-1
 1000 200 l 1,0,-1
EndSplineSet
EndChar

StartChar: 12377
Encoding: 12377 12377 153
Width: 1600
VWidth: 1200
GlyphClass: 2
Flags: W
LayerCount: 2
Fore
SplineSet
200 600 m 1,0,-1
 200 800 l 1,1,-1
 600 800 l 1,2,-1
 600 1000 l 1,3,-1
 800 1000 l 1,4,-1
 800 800 l 1,5,-1
 1200 800 l 1,6,-1
 1200 600 l 1,7,-1
 800 600 l 1,8,-1
 800 0 l 1,9,-1
 600 0 l 1,10,-1
 600 200 l 1,11,-1
 400 200 l 1,12,-1
 400 400 l 1,13,-1
 600 400 l 1,14,-1
 600 600 l 1,15,-1
 200 600 l 1,0,-1
EndSplineSet
EndChar

StartChar: 12379
Encoding: 12379 12379 154
Width: 1600
VWidth: 1200
GlyphClass: 2
Flags: W
LayerCount: 2
Fore
SplineSet
200 200 m 1,0,-1
 200 1000 l 1,1,-1
 400 1000 l 1,2,-1
 400 800 l 1,3,-1
 800 800 l 1,4,-1
 800 1000 l 1,5,-1
 1000 1000 l 1,6,-1
 1000 800 l 1,7,-1
 1200 800 l 1,8,-1
 1200 600 l 1,9,-1
 1000 600 l 1,10,-1
 1000 400 l 1,11,-1
 800 400 l 1,12,-1
 800 600 l 1,13,-1
 400 600 l 1,14,-1
 400 200 l 1,15,-1
 200 200 l 1,0,-1
400 0 m 1,0,-1
 400 200 l 1,1,-1
 1000 200 l 1,2,-1
 1000 0 l 1,3,-1
 400 0 l 1,0,-1
EndSplineSet
EndChar

StartChar: 12381
Encoding: 12381 12381 155
Width: 1600
VWidth: 1200
GlyphClass: 2
Flags: W
LayerCount: 2
Fore
SplineSet
200 400 m 1,0,-1
 200 600 l 1,1,-1
 800 600 l 1,2,-1
 800 800 l 1,3,-1
 400 800 l 1,4,-1
 400 1000 l 1,5,-1
 1200 1000 l 1,6,-1
 1200 800 l 1,7,-1
 1000 800 l 1,8,-1
 1000 600 l 1,9,-1
 1400 600 l 1,10,-1
 1400 400 l 1,11,-1
 800 400 l 1,12,-1
 800 200 l 1,13,-1
 600 200 l 1,14,-1
 600 400 l 1,15,-1
 200 400 l 1,0,-1
800 0 m 1,0,-1
 800 200 l 1,1,-1
 1400 200 l 1,2,-1
 1400 0 l 1,3,-1
 800 0 l 1,0,-1
EndSplineSet
EndChar

StartChar: 12383
Encoding: 12383 12383 156
Width: 1600
VWidth: 1200
GlyphClass: 2
Flags: W
LayerCount: 2
Fore
SplineSet
200 0 m 1,0,-1
 200 400 l 1,1,-1
 400 400 l 1,2,-1
 400 0 l 1,3,-1
 200 0 l 1,0,-1
200 600 m 1,0,-1
 200 800 l 1,1,-1
 400 800 l 1,2,-1
 400 1000 l 1,3,-1
 600 1000 l 1,4,-1
 600 800 l 1,5,-1
 800 800 l 1,6,-1
 800 600 l 1,7,-1
 600 600 l 1,8,-1
 600 400 l 1,9,-1
 400 400 l 1,10,-1
 400 600 l 1,11,-1
 200 600 l 1,0,-1
800 0 m 1,0,-1
 800 200 l 1,1,-1
 1400 200 l 1,2,-1
 1400 0 l 1,3,-1
 800 0 l 1,0,-1
800 400 m 1,0,-1
 800 600 l 1,1,-1
 1200 600 l 1,2,-1
 1200 400 l 1,3,-1
 800 400 l 1,0,-1
EndSplineSet
EndChar

StartChar: 12385
Encoding: 12385 12385 157
Width: 1600
VWidth: 1200
GlyphClass: 2
Flags: W
LayerCount: 2
Fore
SplineSet
0 600 m 1,0,-1
 0 800 l 1,1,-1
 400 800 l 1,2,-1
 400 1000 l 1,3,-1
 600 1000 l 1,4,-1
 600 800 l 1,5,-1
 1200 800 l 1,6,-1
 1200 600 l 1,7,-1
 1000 600 l 1,8,-1
 1000 400 l 1,9,-1
 1200 400 l 1,10,-1
 1200 200 l 1,11,-1
 1000 200 l 1,12,-1
 1000 0 l 1,13,-1
 200 0 l 1,14,-1
 200 200 l 1,15,-1
 800 200 l 1,16,-1
 800 400 l 1,17,-1
 400 400 l 1,18,-1
 400 600 l 1,19,-1
 0 600 l 1,0,-1
EndSplineSet
EndChar

StartChar: 12388
Encoding: 12388 12388 158
Width: 1600
VWidth: 1200
GlyphClass: 2
Flags: W
LayerCount: 2
Fore
SplineSet
0 600 m 1,0,-1
 0 800 l 1,1,-1
 400 800 l 1,2,-1
 400 600 l 1,3,-1
 0 600 l 1,0,-1
400 800 m 1,0,-1
 400 1000 l 1,1,-1
 1200 1000 l 1,2,-1
 1200 800 l 1,3,-1
 400 800 l 1,0,-1
600 0 m 1,0,-1
 600 200 l 1,1,-1
 1000 200 l 1,2,-1
 1000 0 l 1,3,-1
 600 0 l 1,0,-1
1000 200 m 1,0,-1
 1000 400 l 1,1,-1
 1200 400 l 1,2,-1
 1200 200 l 1,3,-1
 1000 200 l 1,0,-1
1200 400 m 1,0,-1
 1200 800 l 1,1,-1
 1400 800 l 1,2,-1
 1400 400 l 1,3,-1
 1200 400 l 1,0,-1
EndSplineSet
EndChar

StartChar: 12390
Encoding: 12390 12390 159
Width: 1600
VWidth: 1200
GlyphClass: 2
Flags: W
LayerCount: 2
Fore
SplineSet
200 800 m 1,0,-1
 200 1000 l 1,1,-1
 1200 1000 l 1,2,-1
 1200 800 l 1,3,-1
 1000 800 l 1,4,-1
 1000 600 l 1,5,-1
 800 600 l 1,6,-1
 800 800 l 1,7,-1
 200 800 l 1,0,-1
600 200 m 1,0,-1
 600 600 l 1,1,-1
 800 600 l 1,2,-1
 800 200 l 1,3,-1
 600 200 l 1,0,-1
800 0 m 1,0,-1
 800 200 l 1,1,-1
 1000 200 l 1,2,-1
 1000 0 l 1,3,-1
 800 0 l 1,0,-1
EndSplineSet
EndChar

StartChar: 12392
Encoding: 12392 12392 160
Width: 1600
VWidth: 1200
GlyphClass: 2
Flags: W
LayerCount: 2
Fore
SplineSet
200 200 m 1,0,-1
 200 400 l 1,1,-1
 400 400 l 1,2,-1
 400 200 l 1,3,-1
 200 200 l 1,0,-1
400 0 m 1,0,-1
 400 200 l 1,1,-1
 1200 200 l 1,2,-1
 1200 0 l 1,3,-1
 400 0 l 1,0,-1
400 400 m 1,0,-1
 400 600 l 1,1,-1
 600 600 l 1,2,-1
 600 400 l 1,3,-1
 400 400 l 1,0,-1
600 600 m 1,0,-1
 600 1000 l 1,1,-1
 800 1000 l 1,2,-1
 800 800 l 1,3,-1
 1200 800 l 1,4,-1
 1200 600 l 1,5,-1
 600 600 l 1,0,-1
EndSplineSet
EndChar

StartChar: 12394
Encoding: 12394 12394 161
Width: 1600
VWidth: 1200
GlyphClass: 2
Flags: W
LayerCount: 2
Fore
SplineSet
0 200 m 1,0,-1
 0 400 l 1,1,-1
 200 400 l 1,2,-1
 200 200 l 1,3,-1
 0 200 l 1,0,-1
0 600 m 1,0,-1
 0 800 l 1,1,-1
 200 800 l 1,2,-1
 200 1000 l 1,3,-1
 400 1000 l 1,4,-1
 400 800 l 1,5,-1
 800 800 l 1,6,-1
 800 600 l 1,7,-1
 400 600 l 1,8,-1
 400 400 l 1,9,-1
 200 400 l 1,10,-1
 200 600 l 1,11,-1
 0 600 l 1,0,-1
600 0 m 1,0,-1
 600 400 l 1,1,-1
 1000 400 l 1,2,-1
 1000 600 l 1,3,-1
 1200 600 l 1,4,-1
 1200 200 l 1,5,-1
 1000 200 l 1,6,-1
 1000 0 l 1,7,-1
 600 0 l 1,0,-1
1000 800 m 1,0,-1
 1000 1000 l 1,1,-1
 1400 1000 l 1,2,-1
 1400 800 l 1,3,-1
 1000 800 l 1,0,-1
1200 0 m 1,0,-1
 1200 200 l 1,1,-1
 1400 200 l 1,2,-1
 1400 0 l 1,3,-1
 1200 0 l 1,0,-1
EndSplineSet
EndChar

StartChar: 12395
Encoding: 12395 12395 162
Width: 1600
VWidth: 1200
GlyphClass: 2
Flags: W
LayerCount: 2
Fore
SplineSet
200 0 m 1,0,-1
 200 1000 l 1,1,-1
 400 1000 l 1,2,-1
 400 0 l 1,3,-1
 200 0 l 1,0,-1
600 200 m 1,0,-1
 600 400 l 1,1,-1
 800 400 l 1,2,-1
 800 200 l 1,3,-1
 600 200 l 1,0,-1
600 800 m 1,0,-1
 600 1000 l 1,1,-1
 1400 1000 l 1,2,-1
 1400 600 l 1,3,-1
 1200 600 l 1,4,-1
 1200 800 l 1,5,-1
 600 800 l 1,0,-1
800 0 m 1,0,-1
 800 200 l 1,1,-1
 1400 200 l 1,2,-1
 1400 0 l 1,3,-1
 800 0 l 1,0,-1
EndSplineSet
EndChar

StartChar: 12396
Encoding: 12396 12396 163
Width: 1600
VWidth: 1200
GlyphClass: 2
Flags: W
LayerCount: 2
Fore
SplineSet
0 200 m 1,0,-1
 0 600 l 1,1,-1
 200 600 l 1,2,-1
 200 800 l 1,3,-1
 600 800 l 1,4,-1
 600 1000 l 1,5,-1
 800 1000 l 1,6,-1
 800 800 l 1,7,-1
 1200 800 l 1,8,-1
 1200 600 l 1,9,-1
 800 600 l 1,10,-1
 800 200 l 1,11,-1
 600 200 l 1,12,-1
 600 0 l 1,13,-1
 200 0 l 1,14,-1
 200 200 l 1,15,-1
 400 200 l 1,16,-1
 400 400 l 1,17,-1
 600 400 l 1,18,-1
 600 600 l 1,19,-1
 400 600 l 1,20,-1
 400 400 l 1,21,-1
 200 400 l 1,22,-1
 200 200 l 1,23,-1
 0 200 l 1,0,-1
0 800 m 1,0,-1
 0 1000 l 1,1,-1
 200 1000 l 1,2,-1
 200 800 l 1,3,-1
 0 800 l 1,0,-1
1000 0 m 1,0,-1
 1000 400 l 1,1,-1
 1200 400 l 1,2,-1
 1200 600 l 1,3,-1
 1400 600 l 1,4,-1
 1400 0 l 1,5,-1
 1000 0 l 1,0,-1
EndSplineSet
EndChar

StartChar: 12397
Encoding: 12397 12397 164
Width: 1600
VWidth: 1200
GlyphClass: 2
Flags: W
LayerCount: 2
Fore
SplineSet
0 200 m 1,0,-1
 0 400 l 1,1,-1
 200 400 l 1,2,-1
 200 600 l 1,3,-1
 0 600 l 1,4,-1
 0 800 l 1,5,-1
 200 800 l 1,6,-1
 200 1000 l 1,7,-1
 400 1000 l 1,8,-1
 400 600 l 1,9,-1
 600 600 l 1,10,-1
 600 400 l 1,11,-1
 400 400 l 1,12,-1
 400 0 l 1,13,-1
 200 0 l 1,14,-1
 200 200 l 1,15,-1
 0 200 l 1,0,-1
600 600 m 1,0,-1
 600 800 l 1,1,-1
 800 800 l 1,2,-1
 800 600 l 1,3,-1
 600 600 l 1,0,-1
800 800 m 1,0,-1
 800 1000 l 1,1,-1
 1200 1000 l 1,2,-1
 1200 800 l 1,3,-1
 800 800 l 1,0,-1
1000 0 m 1,0,-1
 1000 400 l 1,1,-1
 1200 400 l 1,2,-1
 1200 800 l 1,3,-1
 1400 800 l 1,4,-1
 1400 0 l 1,5,-1
 1000 0 l 1,0,-1
EndSplineSet
EndChar

StartChar: 12398
Encoding: 12398 12398 165
Width: 1600
VWidth: 1200
GlyphClass: 2
Flags: W
LayerCount: 2
Fore
SplineSet
0 200 m 1,0,-1
 0 600 l 1,1,-1
 200 600 l 1,2,-1
 200 200 l 1,3,-1
 0 200 l 1,0,-1
200 0 m 1,0,-1
 200 200 l 1,1,-1
 600 200 l 1,2,-1
 600 0 l 1,3,-1
 200 0 l 1,0,-1
200 600 m 1,0,-1
 200 800 l 1,1,-1
 400 800 l 1,2,-1
 400 600 l 1,3,-1
 200 600 l 1,0,-1
400 800 m 1,0,-1
 400 1000 l 1,1,-1
 1200 1000 l 1,2,-1
 1200 800 l 1,3,-1
 800 800 l 1,4,-1
 800 200 l 1,5,-1
 600 200 l 1,6,-1
 600 800 l 1,7,-1
 400 800 l 1,0,-1
1000 0 m 1,0,-1
 1000 200 l 1,1,-1
 1200 200 l 1,2,-1
 1200 0 l 1,3,-1
 1000 0 l 1,0,-1
1200 200 m 1,0,-1
 1200 800 l 1,1,-1
 1400 800 l 1,2,-1
 1400 200 l 1,3,-1
 1200 200 l 1,0,-1
EndSplineSet
EndChar

StartChar: 12399
Encoding: 12399 12399 166
Width: 1600
VWidth: 1200
GlyphClass: 2
Flags: W
LayerCount: 2
Fore
SplineSet
200 0 m 1,0,-1
 200 1000 l 1,1,-1
 400 1000 l 1,2,-1
 400 0 l 1,3,-1
 200 0 l 1,0,-1
600 0 m 1,0,-1
 600 400 l 1,1,-1
 800 400 l 1,2,-1
 800 600 l 1,3,-1
 600 600 l 1,4,-1
 600 800 l 1,5,-1
 800 800 l 1,6,-1
 800 1000 l 1,7,-1
 1000 1000 l 1,8,-1
 1000 800 l 1,9,-1
 1200 800 l 1,10,-1
 1200 600 l 1,11,-1
 1000 600 l 1,12,-1
 1000 400 l 1,13,-1
 1200 400 l 1,14,-1
 1200 200 l 1,15,-1
 1000 200 l 1,16,-1
 1000 0 l 1,17,-1
 600 0 l 1,0,-1
1200 0 m 1,0,-1
 1200 200 l 1,1,-1
 1400 200 l 1,2,-1
 1400 0 l 1,3,-1
 1200 0 l 1,0,-1
EndSplineSet
EndChar

StartChar: 12402
Encoding: 12402 12402 167
Width: 1600
VWidth: 1200
GlyphClass: 2
Flags: W
LayerCount: 2
Fore
SplineSet
0 800 m 1,0,-1
 0 1000 l 1,1,-1
 400 1000 l 1,2,-1
 400 200 l 1,3,-1
 200 200 l 1,4,-1
 200 800 l 1,5,-1
 0 800 l 1,0,-1
400 0 m 1,0,-1
 400 200 l 1,1,-1
 1000 200 l 1,2,-1
 1000 0 l 1,3,-1
 400 0 l 1,0,-1
1000 200 m 1,0,-1
 1000 1000 l 1,1,-1
 1200 1000 l 1,2,-1
 1200 800 l 1,3,-1
 1400 800 l 1,4,-1
 1400 600 l 1,5,-1
 1200 600 l 1,6,-1
 1200 200 l 1,7,-1
 1000 200 l 1,0,-1
EndSplineSet
EndChar

StartChar: 12405
Encoding: 12405 12405 168
Width: 1600
VWidth: 1200
GlyphClass: 2
Flags: W
LayerCount: 2
Fore
SplineSet
0 0 m 1,0,-1
 0 200 l 1,1,-1
 200 200 l 1,2,-1
 200 0 l 1,3,-1
 0 0 l 1,0,-1
200 200 m 1,0,-1
 200 400 l 1,1,-1
 400 400 l 1,2,-1
 400 200 l 1,3,-1
 200 200 l 1,0,-1
400 0 m 1,0,-1
 400 200 l 1,1,-1
 600 200 l 1,2,-1
 600 600 l 1,3,-1
 800 600 l 1,4,-1
 800 0 l 1,5,-1
 400 0 l 1,0,-1
400 800 m 1,0,-1
 400 1000 l 1,1,-1
 800 1000 l 1,2,-1
 800 800 l 1,3,-1
 400 800 l 1,0,-1
1000 200 m 1,0,-1
 1000 400 l 1,1,-1
 1200 400 l 1,2,-1
 1200 200 l 1,3,-1
 1000 200 l 1,0,-1
1200 0 m 1,0,-1
 1200 200 l 1,1,-1
 1400 200 l 1,2,-1
 1400 0 l 1,3,-1
 1200 0 l 1,0,-1
EndSplineSet
EndChar

StartChar: 12408
Encoding: 12408 12408 169
Width: 1600
VWidth: 1200
GlyphClass: 2
Flags: W
LayerCount: 2
Fore
SplineSet
0 200 m 1,0,-1
 0 400 l 1,1,-1
 200 400 l 1,2,-1
 200 200 l 1,3,-1
 0 200 l 1,0,-1
200 400 m 1,0,-1
 200 600 l 1,1,-1
 400 600 l 1,2,-1
 400 400 l 1,3,-1
 200 400 l 1,0,-1
400 600 m 1,0,-1
 400 800 l 1,1,-1
 800 800 l 1,2,-1
 800 600 l 1,3,-1
 400 600 l 1,0,-1
800 400 m 1,0,-1
 800 600 l 1,1,-1
 1000 600 l 1,2,-1
 1000 400 l 1,3,-1
 800 400 l 1,0,-1
1000 200 m 1,0,-1
 1000 400 l 1,1,-1
 1200 400 l 1,2,-1
 1200 200 l 1,3,-1
 1000 200 l 1,0,-1
1200 0 m 1,0,-1
 1200 200 l 1,1,-1
 1400 200 l 1,2,-1
 1400 0 l 1,3,-1
 1200 0 l 1,0,-1
EndSplineSet
EndChar

StartChar: 12411
Encoding: 12411 12411 170
Width: 1600
VWidth: 1200
GlyphClass: 2
Flags: W
LayerCount: 2
Fore
SplineSet
0 0 m 1,0,-1
 0 1000 l 1,1,-1
 200 1000 l 1,2,-1
 200 0 l 1,3,-1
 0 0 l 1,0,-1
400 0 m 1,0,-1
 400 200 l 1,1,-1
 600 200 l 1,2,-1
 600 400 l 1,3,-1
 400 400 l 1,4,-1
 400 600 l 1,5,-1
 800 600 l 1,6,-1
 800 800 l 1,7,-1
 400 800 l 1,8,-1
 400 1000 l 1,9,-1
 1200 1000 l 1,10,-1
 1200 800 l 1,11,-1
 1000 800 l 1,12,-1
 1000 600 l 1,13,-1
 1200 600 l 1,14,-1
 1200 400 l 1,15,-1
 1000 400 l 1,16,-1
 1000 200 l 1,17,-1
 800 200 l 1,18,-1
 800 0 l 1,19,-1
 400 0 l 1,0,-1
1000 0 m 1,0,-1
 1000 200 l 1,1,-1
 1400 200 l 1,2,-1
 1400 0 l 1,3,-1
 1000 0 l 1,0,-1
EndSplineSet
EndChar

StartChar: 12414
Encoding: 12414 12414 171
Width: 1600
VWidth: 1200
GlyphClass: 2
Flags: W
LayerCount: 2
Fore
SplineSet
200 200 m 1,0,-1
 200 400 l 1,1,-1
 600 400 l 1,2,-1
 600 600 l 1,3,-1
 200 600 l 1,4,-1
 200 800 l 1,5,-1
 400 800 l 1,6,-1
 400 1000 l 1,7,-1
 1000 1000 l 1,8,-1
 1000 800 l 1,9,-1
 1200 800 l 1,10,-1
 1200 600 l 1,11,-1
 800 600 l 1,12,-1
 800 400 l 1,13,-1
 1000 400 l 1,14,-1
 1000 200 l 1,15,-1
 800 200 l 1,16,-1
 800 0 l 1,17,-1
 400 0 l 1,18,-1
 400 200 l 1,19,-1
 200 200 l 1,0,-1
1000 0 m 1,0,-1
 1000 200 l 1,1,-1
 1200 200 l 1,2,-1
 1200 0 l 1,3,-1
 1000 0 l 1,0,-1
EndSplineSet
EndChar

StartChar: 12415
Encoding: 12415 12415 172
Width: 1600
VWidth: 1200
GlyphClass: 2
Flags: W
LayerCount: 2
Fore
SplineSet
200 200 m 1,0,-1
 200 600 l 1,1,-1
 400 600 l 1,2,-1
 400 800 l 1,3,-1
 200 800 l 1,4,-1
 200 1000 l 1,5,-1
 600 1000 l 1,6,-1
 600 600 l 1,7,-1
 1000 600 l 1,8,-1
 1000 800 l 1,9,-1
 1200 800 l 1,10,-1
 1200 600 l 1,11,-1
 1400 600 l 1,12,-1
 1400 400 l 1,13,-1
 1200 400 l 1,14,-1
 1200 200 l 1,15,-1
 1000 200 l 1,16,-1
 1000 400 l 1,17,-1
 600 400 l 1,18,-1
 600 200 l 1,19,-1
 200 200 l 1,0,-1
800 0 m 1,0,-1
 800 200 l 1,1,-1
 1000 200 l 1,2,-1
 1000 0 l 1,3,-1
 800 0 l 1,0,-1
EndSplineSet
EndChar

StartChar: 12416
Encoding: 12416 12416 173
Width: 1600
VWidth: 1200
GlyphClass: 2
Flags: W
LayerCount: 2
Fore
SplineSet
200 200 m 1,0,-1
 200 400 l 1,1,-1
 400 400 l 1,2,-1
 400 600 l 1,3,-1
 200 600 l 1,4,-1
 200 800 l 1,5,-1
 400 800 l 1,6,-1
 400 1000 l 1,7,-1
 600 1000 l 1,8,-1
 600 800 l 1,9,-1
 800 800 l 1,10,-1
 800 600 l 1,11,-1
 600 600 l 1,12,-1
 600 200 l 1,13,-1
 1200 200 l 1,14,-1
 1200 0 l 1,15,-1
 400 0 l 1,16,-1
 400 200 l 1,17,-1
 200 200 l 1,0,-1
1000 800 m 1,0,-1
 1000 1000 l 1,1,-1
 1200 1000 l 1,2,-1
 1200 800 l 1,3,-1
 1000 800 l 1,0,-1
1200 200 m 1,0,-1
 1200 400 l 1,1,-1
 1400 400 l 1,2,-1
 1400 200 l 1,3,-1
 1200 200 l 1,0,-1
1200 600 m 1,0,-1
 1200 800 l 1,1,-1
 1400 800 l 1,2,-1
 1400 600 l 1,3,-1
 1200 600 l 1,0,-1
EndSplineSet
EndChar

StartChar: 12417
Encoding: 12417 12417 174
Width: 1600
VWidth: 1200
GlyphClass: 2
Flags: W
LayerCount: 2
Fore
SplineSet
200 200 m 1,0,-1
 200 600 l 1,1,-1
 400 600 l 1,2,-1
 400 400 l 1,3,-1
 600 400 l 1,4,-1
 600 200 l 1,5,-1
 200 200 l 1,0,-1
200 800 m 1,0,-1
 200 1000 l 1,1,-1
 400 1000 l 1,2,-1
 400 800 l 1,3,-1
 200 800 l 1,0,-1
400 600 m 1,0,-1
 400 800 l 1,1,-1
 600 800 l 1,2,-1
 600 1000 l 1,3,-1
 800 1000 l 1,4,-1
 800 800 l 1,5,-1
 1200 800 l 1,6,-1
 1200 600 l 1,7,-1
 1000 600 l 1,8,-1
 1000 400 l 1,9,-1
 600 400 l 1,10,-1
 600 600 l 1,11,-1
 400 600 l 1,0,-1
800 0 m 1,0,-1
 800 200 l 1,1,-1
 1200 200 l 1,2,-1
 1200 0 l 1,3,-1
 800 0 l 1,0,-1
1200 200 m 1,0,-1
 1200 600 l 1,1,-1
 1400 600 l 1,2,-1
 1400 200 l 1,3,-1
 1200 200 l 1,0,-1
EndSplineSet
EndChar

StartChar: 12418
Encoding: 12418 12418 175
Width: 1600
VWidth: 1200
GlyphClass: 2
Flags: W
LayerCount: 2
Fore
SplineSet
200 400 m 1,0,-1
 200 600 l 1,1,-1
 400 600 l 1,2,-1
 400 800 l 1,3,-1
 200 800 l 1,4,-1
 200 1000 l 1,5,-1
 1000 1000 l 1,6,-1
 1000 800 l 1,7,-1
 600 800 l 1,8,-1
 600 600 l 1,9,-1
 1000 600 l 1,10,-1
 1000 400 l 1,11,-1
 600 400 l 1,12,-1
 600 200 l 1,13,-1
 400 200 l 1,14,-1
 400 400 l 1,15,-1
 200 400 l 1,0,-1
600 0 m 1,0,-1
 600 200 l 1,1,-1
 1200 200 l 1,2,-1
 1200 0 l 1,3,-1
 600 0 l 1,0,-1
1200 200 m 1,0,-1
 1200 400 l 1,1,-1
 1400 400 l 1,2,-1
 1400 200 l 1,3,-1
 1200 200 l 1,0,-1
EndSplineSet
EndChar

StartChar: 12420
Encoding: 12420 12420 176
Width: 1600
VWidth: 1200
GlyphClass: 2
Flags: W
LayerCount: 2
Fore
SplineSet
200 600 m 1,0,-1
 200 800 l 1,1,-1
 400 800 l 1,2,-1
 400 1000 l 1,3,-1
 600 1000 l 1,4,-1
 600 800 l 1,5,-1
 1000 800 l 1,6,-1
 1000 1000 l 1,7,-1
 1200 1000 l 1,8,-1
 1200 800 l 1,9,-1
 1400 800 l 1,10,-1
 1400 400 l 1,11,-1
 1000 400 l 1,12,-1
 1000 600 l 1,13,-1
 600 600 l 1,14,-1
 600 400 l 1,15,-1
 400 400 l 1,16,-1
 400 600 l 1,17,-1
 200 600 l 1,0,-1
600 0 m 1,0,-1
 600 400 l 1,1,-1
 800 400 l 1,2,-1
 800 0 l 1,3,-1
 600 0 l 1,0,-1
EndSplineSet
EndChar

StartChar: 12422
Encoding: 12422 12422 177
Width: 1600
VWidth: 1200
GlyphClass: 2
Flags: W
LayerCount: 2
Fore
SplineSet
200 400 m 1,0,-1
 200 1000 l 1,1,-1
 400 1000 l 1,2,-1
 400 800 l 1,3,-1
 600 800 l 1,4,-1
 600 600 l 1,5,-1
 400 600 l 1,6,-1
 400 400 l 1,7,-1
 200 400 l 1,0,-1
600 0 m 1,0,-1
 600 200 l 1,1,-1
 800 200 l 1,2,-1
 800 0 l 1,3,-1
 600 0 l 1,0,-1
600 800 m 1,0,-1
 600 1000 l 1,1,-1
 1200 1000 l 1,2,-1
 1200 800 l 1,3,-1
 1000 800 l 1,4,-1
 1000 400 l 1,5,-1
 1200 400 l 1,6,-1
 1200 200 l 1,7,-1
 800 200 l 1,8,-1
 800 800 l 1,9,-1
 600 800 l 1,0,-1
1200 400 m 1,0,-1
 1200 800 l 1,1,-1
 1400 800 l 1,2,-1
 1400 400 l 1,3,-1
 1200 400 l 1,0,-1
EndSplineSet
EndChar

StartChar: 12424
Encoding: 12424 12424 178
Width: 1600
VWidth: 1200
GlyphClass: 2
Flags: W
LayerCount: 2
Fore
SplineSet
200 0 m 1,0,-1
 200 400 l 1,1,-1
 600 400 l 1,2,-1
 600 1000 l 1,3,-1
 800 1000 l 1,4,-1
 800 800 l 1,5,-1
 1200 800 l 1,6,-1
 1200 600 l 1,7,-1
 800 600 l 1,8,-1
 800 400 l 1,9,-1
 1000 400 l 1,10,-1
 1000 200 l 1,11,-1
 600 200 l 1,12,-1
 600 0 l 1,13,-1
 200 0 l 1,0,-1
1000 0 m 1,0,-1
 1000 200 l 1,1,-1
 1200 200 l 1,2,-1
 1200 0 l 1,3,-1
 1000 0 l 1,0,-1
EndSplineSet
EndChar

StartChar: 12425
Encoding: 12425 12425 179
Width: 1600
VWidth: 1200
GlyphClass: 2
Flags: W
LayerCount: 2
Fore
SplineSet
200 400 m 1,0,-1
 200 800 l 1,1,-1
 400 800 l 1,2,-1
 400 600 l 1,3,-1
 1200 600 l 1,4,-1
 1200 200 l 1,5,-1
 1000 200 l 1,6,-1
 1000 400 l 1,7,-1
 200 400 l 1,0,-1
400 0 m 1,0,-1
 400 200 l 1,1,-1
 1000 200 l 1,2,-1
 1000 0 l 1,3,-1
 400 0 l 1,0,-1
600 800 m 1,0,-1
 600 1000 l 1,1,-1
 800 1000 l 1,2,-1
 800 800 l 1,3,-1
 600 800 l 1,0,-1
EndSplineSet
EndChar

StartChar: 12426
Encoding: 12426 12426 180
Width: 1600
VWidth: 1200
GlyphClass: 2
Flags: W
LayerCount: 2
Fore
SplineSet
200 400 m 1,0,-1
 200 1000 l 1,1,-1
 400 1000 l 1,2,-1
 400 400 l 1,3,-1
 200 400 l 1,0,-1
400 200 m 1,0,-1
 400 400 l 1,1,-1
 600 400 l 1,2,-1
 600 200 l 1,3,-1
 400 200 l 1,0,-1
800 0 m 1,0,-1
 800 200 l 1,1,-1
 1000 200 l 1,2,-1
 1000 0 l 1,3,-1
 800 0 l 1,0,-1
1000 200 m 1,0,-1
 1000 800 l 1,1,-1
 1200 800 l 1,2,-1
 1200 200 l 1,3,-1
 1000 200 l 1,0,-1
EndSplineSet
EndChar

StartChar: 12427
Encoding: 12427 12427 181
Width: 1600
VWidth: 1200
GlyphClass: 2
Flags: W
LayerCount: 2
Fore
SplineSet
200 200 m 1,0,-1
 200 400 l 1,1,-1
 400 400 l 1,2,-1
 400 200 l 1,3,-1
 200 200 l 1,0,-1
400 400 m 1,0,-1
 400 600 l 1,1,-1
 800 600 l 1,2,-1
 800 800 l 1,3,-1
 400 800 l 1,4,-1
 400 1000 l 1,5,-1
 1200 1000 l 1,6,-1
 1200 800 l 1,7,-1
 1000 800 l 1,8,-1
 1000 600 l 1,9,-1
 1400 600 l 1,10,-1
 1400 200 l 1,11,-1
 1200 200 l 1,12,-1
 1200 0 l 1,13,-1
 800 0 l 1,14,-1
 800 400 l 1,15,-1
 400 400 l 1,0,-1
EndSplineSet
EndChar

StartChar: 12428
Encoding: 12428 12428 182
Width: 1600
VWidth: 1200
GlyphClass: 2
Flags: W
LayerCount: 2
Fore
SplineSet
200 200 m 1,0,-1
 200 400 l 1,1,-1
 400 400 l 1,2,-1
 400 600 l 1,3,-1
 200 600 l 1,4,-1
 200 800 l 1,5,-1
 400 800 l 1,6,-1
 400 1000 l 1,7,-1
 600 1000 l 1,8,-1
 600 600 l 1,9,-1
 800 600 l 1,10,-1
 800 400 l 1,11,-1
 600 400 l 1,12,-1
 600 0 l 1,13,-1
 400 0 l 1,14,-1
 400 200 l 1,15,-1
 200 200 l 1,0,-1
800 600 m 1,0,-1
 800 800 l 1,1,-1
 1200 800 l 1,2,-1
 1200 200 l 1,3,-1
 1400 200 l 1,4,-1
 1400 0 l 1,5,-1
 1000 0 l 1,6,-1
 1000 600 l 1,7,-1
 800 600 l 1,0,-1
EndSplineSet
EndChar

StartChar: 12429
Encoding: 12429 12429 183
Width: 1600
VWidth: 1200
GlyphClass: 2
Flags: W
LayerCount: 2
Fore
SplineSet
200 200 m 1,0,-1
 200 400 l 1,1,-1
 400 400 l 1,2,-1
 400 200 l 1,3,-1
 200 200 l 1,0,-1
400 400 m 1,0,-1
 400 600 l 1,1,-1
 800 600 l 1,2,-1
 800 800 l 1,3,-1
 400 800 l 1,4,-1
 400 1000 l 1,5,-1
 1200 1000 l 1,6,-1
 1200 800 l 1,7,-1
 1000 800 l 1,8,-1
 1000 600 l 1,9,-1
 1400 600 l 1,10,-1
 1400 200 l 1,11,-1
 1200 200 l 1,12,-1
 1200 400 l 1,13,-1
 400 400 l 1,0,-1
800 0 m 1,0,-1
 800 200 l 1,1,-1
 1200 200 l 1,2,-1
 1200 0 l 1,3,-1
 800 0 l 1,0,-1
EndSplineSet
EndChar

StartChar: 12431
Encoding: 12431 12431 184
Width: 1600
VWidth: 1200
GlyphClass: 2
Flags: W
LayerCount: 2
Fore
SplineSet
0 200 m 1,0,-1
 0 400 l 1,1,-1
 200 400 l 1,2,-1
 200 600 l 1,3,-1
 0 600 l 1,4,-1
 0 800 l 1,5,-1
 200 800 l 1,6,-1
 200 1000 l 1,7,-1
 400 1000 l 1,8,-1
 400 600 l 1,9,-1
 600 600 l 1,10,-1
 600 400 l 1,11,-1
 400 400 l 1,12,-1
 400 0 l 1,13,-1
 200 0 l 1,14,-1
 200 200 l 1,15,-1
 0 200 l 1,0,-1
600 600 m 1,0,-1
 600 800 l 1,1,-1
 800 800 l 1,2,-1
 800 600 l 1,3,-1
 600 600 l 1,0,-1
800 0 m 1,0,-1
 800 200 l 1,1,-1
 1000 200 l 1,2,-1
 1000 0 l 1,3,-1
 800 0 l 1,0,-1
800 800 m 1,0,-1
 800 1000 l 1,1,-1
 1200 1000 l 1,2,-1
 1200 800 l 1,3,-1
 800 800 l 1,0,-1
1000 200 m 1,0,-1
 1000 400 l 1,1,-1
 1200 400 l 1,2,-1
 1200 200 l 1,3,-1
 1000 200 l 1,0,-1
1200 400 m 1,0,-1
 1200 800 l 1,1,-1
 1400 800 l 1,2,-1
 1400 400 l 1,3,-1
 1200 400 l 1,0,-1
EndSplineSet
EndChar

StartChar: 12434
Encoding: 12434 12434 185
Width: 1600
VWidth: 1200
GlyphClass: 2
Flags: W
LayerCount: 2
Fore
SplineSet
200 800 m 1,0,-1
 200 1000 l 1,1,-1
 800 1000 l 1,2,-1
 800 800 l 1,3,-1
 600 800 l 1,4,-1
 600 600 l 1,5,-1
 1000 600 l 1,6,-1
 1000 400 l 1,7,-1
 800 400 l 1,8,-1
 800 200 l 1,9,-1
 1000 200 l 1,10,-1
 1000 400 l 1,11,-1
 1200 400 l 1,12,-1
 1200 200 l 1,13,-1
 1400 200 l 1,14,-1
 1400 0 l 1,15,-1
 600 0 l 1,16,-1
 600 400 l 1,17,-1
 400 400 l 1,18,-1
 400 800 l 1,19,-1
 200 800 l 1,0,-1
1000 600 m 1,0,-1
 1000 800 l 1,1,-1
 1400 800 l 1,2,-1
 1400 600 l 1,3,-1
 1000 600 l 1,0,-1
EndSplineSet
EndChar

StartChar: 12435
Encoding: 12435 12435 186
Width: 1600
VWidth: 1200
GlyphClass: 2
Flags: W
LayerCount: 2
Fore
SplineSet
0 0 m 1,0,-1
 0 400 l 1,1,-1
 200 400 l 1,2,-1
 200 0 l 1,3,-1
 0 0 l 1,0,-1
200 400 m 1,0,-1
 200 1000 l 1,1,-1
 400 1000 l 1,2,-1
 400 800 l 1,3,-1
 800 800 l 1,4,-1
 800 600 l 1,5,-1
 400 600 l 1,6,-1
 400 400 l 1,7,-1
 200 400 l 1,0,-1
800 0 m 1,0,-1
 800 600 l 1,1,-1
 1000 600 l 1,2,-1
 1000 200 l 1,3,-1
 1200 200 l 1,4,-1
 1200 0 l 1,5,-1
 800 0 l 1,0,-1
1200 200 m 1,0,-1
 1200 400 l 1,1,-1
 1400 400 l 1,2,-1
 1400 200 l 1,3,-1
 1200 200 l 1,0,-1
EndSplineSet
EndChar

StartChar: 12387
Encoding: 12387 12387 187
Width: 1600
VWidth: 1200
GlyphClass: 2
Flags: W
LayerCount: 2
Fore
SplineSet
200 400 m 1,0,-1
 200 600 l 1,1,-1
 800 600 l 1,2,-1
 800 400 l 1,3,-1
 200 400 l 1,0,-1
600 0 m 1,0,-1
 600 200 l 1,1,-1
 800 200 l 1,2,-1
 800 0 l 1,3,-1
 600 0 l 1,0,-1
800 200 m 1,0,-1
 800 400 l 1,1,-1
 1000 400 l 1,2,-1
 1000 200 l 1,3,-1
 800 200 l 1,0,-1
EndSplineSet
EndChar

StartChar: 12419
Encoding: 12419 12419 188
Width: 1600
VWidth: 1200
GlyphClass: 2
Flags: W
LayerCount: 2
Fore
SplineSet
0 400 m 1,0,-1
 0 600 l 1,1,-1
 200 600 l 1,2,-1
 200 800 l 1,3,-1
 400 800 l 1,4,-1
 400 600 l 1,5,-1
 600 600 l 1,6,-1
 600 800 l 1,7,-1
 800 800 l 1,8,-1
 800 600 l 1,9,-1
 1000 600 l 1,10,-1
 1000 200 l 1,11,-1
 600 200 l 1,12,-1
 600 400 l 1,13,-1
 400 400 l 1,14,-1
 400 200 l 1,15,-1
 200 200 l 1,16,-1
 200 400 l 1,17,-1
 0 400 l 1,0,-1
400 0 m 1,0,-1
 400 200 l 1,1,-1
 600 200 l 1,2,-1
 600 0 l 1,3,-1
 400 0 l 1,0,-1
EndSplineSet
EndChar

StartChar: 12421
Encoding: 12421 12421 189
Width: 1600
VWidth: 1200
GlyphClass: 2
Flags: W
LayerCount: 2
Fore
SplineSet
0 0 m 1,0,-1
 0 600 l 1,1,-1
 400 600 l 1,2,-1
 400 800 l 1,3,-1
 600 800 l 1,4,-1
 600 600 l 1,5,-1
 800 600 l 1,6,-1
 800 400 l 1,7,-1
 600 400 l 1,8,-1
 600 200 l 1,9,-1
 800 200 l 1,10,-1
 800 0 l 1,11,-1
 400 0 l 1,12,-1
 400 400 l 1,13,-1
 200 400 l 1,14,-1
 200 0 l 1,15,-1
 0 0 l 1,0,-1
800 200 m 1,0,-1
 800 400 l 1,1,-1
 1000 400 l 1,2,-1
 1000 200 l 1,3,-1
 800 200 l 1,0,-1
EndSplineSet
EndChar

StartChar: 12423
Encoding: 12423 12423 190
Width: 1600
VWidth: 1200
GlyphClass: 2
Flags: W
LayerCount: 2
Fore
SplineSet
0 0 m 1,0,-1
 0 200 l 1,1,-1
 200 200 l 1,2,-1
 200 0 l 1,3,-1
 0 0 l 1,0,-1
200 200 m 1,0,-1
 200 800 l 1,1,-1
 400 800 l 1,2,-1
 400 600 l 1,3,-1
 800 600 l 1,4,-1
 800 400 l 1,5,-1
 400 400 l 1,6,-1
 400 200 l 1,7,-1
 200 200 l 1,0,-1
400 0 m 1,0,-1
 400 200 l 1,1,-1
 1000 200 l 1,2,-1
 1000 0 l 1,3,-1
 400 0 l 1,0,-1
EndSplineSet
EndChar

StartChar: 12450
Encoding: 12450 12450 191
Width: 1600
VWidth: 1200
GlyphClass: 2
Flags: W
LayerCount: 2
Fore
SplineSet
200 0 m 1,0,-1
 200 200 l 1,1,-1
 400 200 l 1,2,-1
 400 0 l 1,3,-1
 200 0 l 1,0,-1
200 800 m 1,0,-1
 200 1000 l 1,1,-1
 1200 1000 l 1,2,-1
 1200 600 l 1,3,-1
 1000 600 l 1,4,-1
 1000 800 l 1,5,-1
 200 800 l 1,0,-1
400 200 m 1,0,-1
 400 600 l 1,1,-1
 600 600 l 1,2,-1
 600 200 l 1,3,-1
 400 200 l 1,0,-1
800 400 m 1,0,-1
 800 600 l 1,1,-1
 1000 600 l 1,2,-1
 1000 400 l 1,3,-1
 800 400 l 1,0,-1
EndSplineSet
EndChar

StartChar: 12452
Encoding: 12452 12452 192
Width: 1600
VWidth: 1200
GlyphClass: 2
Flags: W
LayerCount: 2
Fore
SplineSet
200 600 m 1,0,-1
 200 800 l 1,1,-1
 800 800 l 1,2,-1
 800 0 l 1,3,-1
 600 0 l 1,4,-1
 600 600 l 1,5,-1
 200 600 l 1,0,-1
800 800 m 1,0,-1
 800 1000 l 1,1,-1
 1200 1000 l 1,2,-1
 1200 800 l 1,3,-1
 800 800 l 1,0,-1
EndSplineSet
EndChar

StartChar: 12454
Encoding: 12454 12454 193
Width: 1600
VWidth: 1200
GlyphClass: 2
Flags: W
LayerCount: 2
Fore
SplineSet
200 600 m 1,0,-1
 200 800 l 1,1,-1
 600 800 l 1,2,-1
 600 1000 l 1,3,-1
 800 1000 l 1,4,-1
 800 800 l 1,5,-1
 1200 800 l 1,6,-1
 1200 400 l 1,7,-1
 1000 400 l 1,8,-1
 1000 600 l 1,9,-1
 200 600 l 1,0,-1
400 0 m 1,0,-1
 400 200 l 1,1,-1
 800 200 l 1,2,-1
 800 0 l 1,3,-1
 400 0 l 1,0,-1
800 200 m 1,0,-1
 800 400 l 1,1,-1
 1000 400 l 1,2,-1
 1000 200 l 1,3,-1
 800 200 l 1,0,-1
EndSplineSet
EndChar

StartChar: 12456
Encoding: 12456 12456 194
Width: 1600
VWidth: 1200
GlyphClass: 2
Flags: W
LayerCount: 2
Fore
SplineSet
200 0 m 1,0,-1
 200 200 l 1,1,-1
 600 200 l 1,2,-1
 600 800 l 1,3,-1
 400 800 l 1,4,-1
 400 1000 l 1,5,-1
 1000 1000 l 1,6,-1
 1000 800 l 1,7,-1
 800 800 l 1,8,-1
 800 200 l 1,9,-1
 1200 200 l 1,10,-1
 1200 0 l 1,11,-1
 200 0 l 1,0,-1
EndSplineSet
EndChar

StartChar: 12458
Encoding: 12458 12458 195
Width: 1600
VWidth: 1200
GlyphClass: 2
Flags: W
LayerCount: 2
Fore
SplineSet
200 200 m 1,0,-1
 200 400 l 1,1,-1
 600 400 l 1,2,-1
 600 200 l 1,3,-1
 200 200 l 1,0,-1
200 600 m 1,0,-1
 200 800 l 1,1,-1
 800 800 l 1,2,-1
 800 1000 l 1,3,-1
 1000 1000 l 1,4,-1
 1000 800 l 1,5,-1
 1400 800 l 1,6,-1
 1400 600 l 1,7,-1
 1000 600 l 1,8,-1
 1000 0 l 1,9,-1
 600 0 l 1,10,-1
 600 200 l 1,11,-1
 800 200 l 1,12,-1
 800 400 l 1,13,-1
 600 400 l 1,14,-1
 600 600 l 1,15,-1
 200 600 l 1,0,-1
EndSplineSet
EndChar

StartChar: 12459
Encoding: 12459 12459 196
Width: 1600
VWidth: 1200
GlyphClass: 2
Flags: W
LayerCount: 2
Fore
SplineSet
200 0 m 1,0,-1
 200 400 l 1,1,-1
 400 400 l 1,2,-1
 400 0 l 1,3,-1
 200 0 l 1,0,-1
200 600 m 1,0,-1
 200 800 l 1,1,-1
 400 800 l 1,2,-1
 400 1000 l 1,3,-1
 600 1000 l 1,4,-1
 600 800 l 1,5,-1
 1200 800 l 1,6,-1
 1200 0 l 1,7,-1
 800 0 l 1,8,-1
 800 200 l 1,9,-1
 1000 200 l 1,10,-1
 1000 600 l 1,11,-1
 600 600 l 1,12,-1
 600 400 l 1,13,-1
 400 400 l 1,14,-1
 400 600 l 1,15,-1
 200 600 l 1,0,-1
EndSplineSet
EndChar

StartChar: 12461
Encoding: 12461 12461 197
Width: 1600
VWidth: 1200
GlyphClass: 2
Flags: W
LayerCount: 2
Fore
SplineSet
200 200 m 1,0,-1
 200 400 l 1,1,-1
 600 400 l 1,2,-1
 600 600 l 1,3,-1
 200 600 l 1,4,-1
 200 800 l 1,5,-1
 400 800 l 1,6,-1
 400 1000 l 1,7,-1
 600 1000 l 1,8,-1
 600 800 l 1,9,-1
 1000 800 l 1,10,-1
 1000 600 l 1,11,-1
 800 600 l 1,12,-1
 800 400 l 1,13,-1
 1200 400 l 1,14,-1
 1200 200 l 1,15,-1
 800 200 l 1,16,-1
 800 0 l 1,17,-1
 600 0 l 1,18,-1
 600 200 l 1,19,-1
 200 200 l 1,0,-1
EndSplineSet
EndChar

StartChar: 12463
Encoding: 12463 12463 198
Width: 1600
VWidth: 1200
GlyphClass: 2
Flags: W
LayerCount: 2
Fore
SplineSet
200 400 m 1,0,-1
 200 600 l 1,1,-1
 400 600 l 1,2,-1
 400 400 l 1,3,-1
 200 400 l 1,0,-1
400 600 m 1,0,-1
 400 1000 l 1,1,-1
 600 1000 l 1,2,-1
 600 800 l 1,3,-1
 1200 800 l 1,4,-1
 1200 400 l 1,5,-1
 1000 400 l 1,6,-1
 1000 600 l 1,7,-1
 400 600 l 1,0,-1
600 0 m 1,0,-1
 600 200 l 1,1,-1
 800 200 l 1,2,-1
 800 0 l 1,3,-1
 600 0 l 1,0,-1
800 200 m 1,0,-1
 800 400 l 1,1,-1
 1000 400 l 1,2,-1
 1000 200 l 1,3,-1
 800 200 l 1,0,-1
EndSplineSet
EndChar

StartChar: 12465
Encoding: 12465 12465 199
Width: 1600
VWidth: 1200
GlyphClass: 2
Flags: W
LayerCount: 2
Fore
SplineSet
200 400 m 1,0,-1
 200 600 l 1,1,-1
 400 600 l 1,2,-1
 400 400 l 1,3,-1
 200 400 l 1,0,-1
400 600 m 1,0,-1
 400 1000 l 1,1,-1
 600 1000 l 1,2,-1
 600 800 l 1,3,-1
 1400 800 l 1,4,-1
 1400 600 l 1,5,-1
 1000 600 l 1,6,-1
 1000 200 l 1,7,-1
 800 200 l 1,8,-1
 800 600 l 1,9,-1
 400 600 l 1,0,-1
600 0 m 1,0,-1
 600 200 l 1,1,-1
 800 200 l 1,2,-1
 800 0 l 1,3,-1
 600 0 l 1,0,-1
EndSplineSet
EndChar

StartChar: 12467
Encoding: 12467 12467 200
Width: 1600
VWidth: 1200
GlyphClass: 2
Flags: W
LayerCount: 2
Fore
SplineSet
200 0 m 1,0,-1
 200 200 l 1,1,-1
 1000 200 l 1,2,-1
 1000 800 l 1,3,-1
 200 800 l 1,4,-1
 200 1000 l 1,5,-1
 1200 1000 l 1,6,-1
 1200 0 l 1,7,-1
 200 0 l 1,0,-1
EndSplineSet
EndChar

StartChar: 12469
Encoding: 12469 12469 201
Width: 1600
VWidth: 1200
GlyphClass: 2
Flags: W
LayerCount: 2
Fore
SplineSet
200 600 m 1,0,-1
 200 800 l 1,1,-1
 400 800 l 1,2,-1
 400 1000 l 1,3,-1
 600 1000 l 1,4,-1
 600 800 l 1,5,-1
 1000 800 l 1,6,-1
 1000 1000 l 1,7,-1
 1200 1000 l 1,8,-1
 1200 800 l 1,9,-1
 1400 800 l 1,10,-1
 1400 600 l 1,11,-1
 1200 600 l 1,12,-1
 1200 200 l 1,13,-1
 1000 200 l 1,14,-1
 1000 600 l 1,15,-1
 600 600 l 1,16,-1
 600 400 l 1,17,-1
 400 400 l 1,18,-1
 400 600 l 1,19,-1
 200 600 l 1,0,-1
800 0 m 1,0,-1
 800 200 l 1,1,-1
 1000 200 l 1,2,-1
 1000 0 l 1,3,-1
 800 0 l 1,0,-1
EndSplineSet
EndChar

StartChar: 12471
Encoding: 12471 12471 202
Width: 1600
VWidth: 1200
GlyphClass: 2
Flags: W
LayerCount: 2
Fore
SplineSet
200 600 m 1,0,-1
 200 800 l 1,1,-1
 400 800 l 1,2,-1
 400 600 l 1,3,-1
 200 600 l 1,0,-1
400 0 m 1,0,-1
 400 200 l 1,1,-1
 1000 200 l 1,2,-1
 1000 0 l 1,3,-1
 400 0 l 1,0,-1
400 400 m 1,0,-1
 400 600 l 1,1,-1
 600 600 l 1,2,-1
 600 400 l 1,3,-1
 400 400 l 1,0,-1
600 800 m 1,0,-1
 600 1000 l 1,1,-1
 800 1000 l 1,2,-1
 800 800 l 1,3,-1
 600 800 l 1,0,-1
800 600 m 1,0,-1
 800 800 l 1,1,-1
 1000 800 l 1,2,-1
 1000 600 l 1,3,-1
 800 600 l 1,0,-1
1000 200 m 1,0,-1
 1000 400 l 1,1,-1
 1400 400 l 1,2,-1
 1400 200 l 1,3,-1
 1000 200 l 1,0,-1
EndSplineSet
EndChar

StartChar: 12473
Encoding: 12473 12473 203
Width: 1600
VWidth: 1200
GlyphClass: 2
Flags: W
LayerCount: 2
Fore
SplineSet
200 0 m 1,0,-1
 200 200 l 1,1,-1
 600 200 l 1,2,-1
 600 0 l 1,3,-1
 200 0 l 1,0,-1
200 800 m 1,0,-1
 200 1000 l 1,1,-1
 1200 1000 l 1,2,-1
 1200 600 l 1,3,-1
 1000 600 l 1,4,-1
 1000 800 l 1,5,-1
 200 800 l 1,0,-1
600 200 m 1,0,-1
 600 400 l 1,1,-1
 800 400 l 1,2,-1
 800 600 l 1,3,-1
 1000 600 l 1,4,-1
 1000 200 l 1,5,-1
 600 200 l 1,0,-1
1000 0 m 1,0,-1
 1000 200 l 1,1,-1
 1200 200 l 1,2,-1
 1200 0 l 1,3,-1
 1000 0 l 1,0,-1
EndSplineSet
EndChar

StartChar: 12475
Encoding: 12475 12475 204
Width: 1600
VWidth: 1200
GlyphClass: 2
Flags: W
LayerCount: 2
Fore
SplineSet
200 600 m 1,0,-1
 200 800 l 1,1,-1
 400 800 l 1,2,-1
 400 1000 l 1,3,-1
 600 1000 l 1,4,-1
 600 800 l 1,5,-1
 1400 800 l 1,6,-1
 1400 600 l 1,7,-1
 1200 600 l 1,8,-1
 1200 400 l 1,9,-1
 1000 400 l 1,10,-1
 1000 600 l 1,11,-1
 600 600 l 1,12,-1
 600 200 l 1,13,-1
 400 200 l 1,14,-1
 400 600 l 1,15,-1
 200 600 l 1,0,-1
600 0 m 1,0,-1
 600 200 l 1,1,-1
 1200 200 l 1,2,-1
 1200 0 l 1,3,-1
 600 0 l 1,0,-1
EndSplineSet
EndChar

StartChar: 12477
Encoding: 12477 12477 205
Width: 1600
VWidth: 1200
GlyphClass: 2
Flags: W
LayerCount: 2
Fore
SplineSet
200 800 m 1,0,-1
 200 1000 l 1,1,-1
 400 1000 l 1,2,-1
 400 800 l 1,3,-1
 200 800 l 1,0,-1
400 600 m 1,0,-1
 400 800 l 1,1,-1
 600 800 l 1,2,-1
 600 600 l 1,3,-1
 400 600 l 1,0,-1
600 0 m 1,0,-1
 600 200 l 1,1,-1
 800 200 l 1,2,-1
 800 0 l 1,3,-1
 600 0 l 1,0,-1
800 200 m 1,0,-1
 800 400 l 1,1,-1
 1000 400 l 1,2,-1
 1000 200 l 1,3,-1
 800 200 l 1,0,-1
1000 400 m 1,0,-1
 1000 1000 l 1,1,-1
 1200 1000 l 1,2,-1
 1200 400 l 1,3,-1
 1000 400 l 1,0,-1
EndSplineSet
EndChar

StartChar: 12479
Encoding: 12479 12479 206
Width: 1600
VWidth: 1200
GlyphClass: 2
Flags: W
LayerCount: 2
Fore
SplineSet
200 400 m 1,0,-1
 200 600 l 1,1,-1
 400 600 l 1,2,-1
 400 400 l 1,3,-1
 200 400 l 1,0,-1
400 600 m 1,0,-1
 400 1000 l 1,1,-1
 1400 1000 l 1,2,-1
 1400 200 l 1,3,-1
 1000 200 l 1,4,-1
 1000 400 l 1,5,-1
 1200 400 l 1,6,-1
 1200 800 l 1,7,-1
 600 800 l 1,8,-1
 600 600 l 1,9,-1
 400 600 l 1,0,-1
800 0 m 1,0,-1
 800 200 l 1,1,-1
 1000 200 l 1,2,-1
 1000 0 l 1,3,-1
 800 0 l 1,0,-1
800 400 m 1,0,-1
 800 600 l 1,1,-1
 1000 600 l 1,2,-1
 1000 400 l 1,3,-1
 800 400 l 1,0,-1
EndSplineSet
EndChar

StartChar: 12481
Encoding: 12481 12481 207
Width: 1600
VWidth: 1200
GlyphClass: 2
Flags: W
LayerCount: 2
Fore
SplineSet
200 400 m 1,0,-1
 200 600 l 1,1,-1
 600 600 l 1,2,-1
 600 800 l 1,3,-1
 400 800 l 1,4,-1
 400 1000 l 1,5,-1
 1000 1000 l 1,6,-1
 1000 800 l 1,7,-1
 800 800 l 1,8,-1
 800 600 l 1,9,-1
 1200 600 l 1,10,-1
 1200 400 l 1,11,-1
 800 400 l 1,12,-1
 800 200 l 1,13,-1
 600 200 l 1,14,-1
 600 400 l 1,15,-1
 200 400 l 1,0,-1
400 0 m 1,0,-1
 400 200 l 1,1,-1
 600 200 l 1,2,-1
 600 0 l 1,3,-1
 400 0 l 1,0,-1
EndSplineSet
EndChar

StartChar: 12484
Encoding: 12484 12484 208
Width: 1600
VWidth: 1200
GlyphClass: 2
Flags: W
LayerCount: 2
Fore
SplineSet
200 600 m 1,0,-1
 200 1000 l 1,1,-1
 400 1000 l 1,2,-1
 400 600 l 1,3,-1
 200 600 l 1,0,-1
400 0 m 1,0,-1
 400 200 l 1,1,-1
 800 200 l 1,2,-1
 800 0 l 1,3,-1
 400 0 l 1,0,-1
600 600 m 1,0,-1
 600 1000 l 1,1,-1
 800 1000 l 1,2,-1
 800 600 l 1,3,-1
 600 600 l 1,0,-1
800 200 m 1,0,-1
 800 400 l 1,1,-1
 1000 400 l 1,2,-1
 1000 200 l 1,3,-1
 800 200 l 1,0,-1
1000 400 m 1,0,-1
 1000 600 l 1,1,-1
 1200 600 l 1,2,-1
 1200 400 l 1,3,-1
 1000 400 l 1,0,-1
1200 600 m 1,0,-1
 1200 1000 l 1,1,-1
 1400 1000 l 1,2,-1
 1400 600 l 1,3,-1
 1200 600 l 1,0,-1
EndSplineSet
EndChar

StartChar: 12486
Encoding: 12486 12486 209
Width: 1600
VWidth: 1200
GlyphClass: 2
Flags: W
LayerCount: 2
Fore
SplineSet
200 400 m 1,0,-1
 200 600 l 1,1,-1
 1200 600 l 1,2,-1
 1200 400 l 1,3,-1
 800 400 l 1,4,-1
 800 200 l 1,5,-1
 600 200 l 1,6,-1
 600 400 l 1,7,-1
 200 400 l 1,0,-1
400 0 m 1,0,-1
 400 200 l 1,1,-1
 600 200 l 1,2,-1
 600 0 l 1,3,-1
 400 0 l 1,0,-1
400 800 m 1,0,-1
 400 1000 l 1,1,-1
 1000 1000 l 1,2,-1
 1000 800 l 1,3,-1
 400 800 l 1,0,-1
EndSplineSet
EndChar

StartChar: 12488
Encoding: 12488 12488 210
Width: 1600
VWidth: 1200
GlyphClass: 2
Flags: W
LayerCount: 2
Fore
SplineSet
400 0 m 1,0,-1
 400 1000 l 1,1,-1
 600 1000 l 1,2,-1
 600 600 l 1,3,-1
 1000 600 l 1,4,-1
 1000 400 l 1,5,-1
 600 400 l 1,6,-1
 600 0 l 1,7,-1
 400 0 l 1,0,-1
1000 200 m 1,0,-1
 1000 400 l 1,1,-1
 1200 400 l 1,2,-1
 1200 200 l 1,3,-1
 1000 200 l 1,0,-1
EndSplineSet
EndChar

StartChar: 12490
Encoding: 12490 12490 211
Width: 1600
VWidth: 1200
GlyphClass: 2
Flags: W
LayerCount: 2
Fore
SplineSet
200 600 m 1,0,-1
 200 800 l 1,1,-1
 600 800 l 1,2,-1
 600 1000 l 1,3,-1
 800 1000 l 1,4,-1
 800 800 l 1,5,-1
 1200 800 l 1,6,-1
 1200 600 l 1,7,-1
 800 600 l 1,8,-1
 800 200 l 1,9,-1
 600 200 l 1,10,-1
 600 600 l 1,11,-1
 200 600 l 1,0,-1
400 0 m 1,0,-1
 400 200 l 1,1,-1
 600 200 l 1,2,-1
 600 0 l 1,3,-1
 400 0 l 1,0,-1
EndSplineSet
EndChar

StartChar: 12491
Encoding: 12491 12491 212
Width: 1600
VWidth: 1200
GlyphClass: 2
Flags: W
LayerCount: 2
Fore
SplineSet
200 0 m 1,0,-1
 200 200 l 1,1,-1
 1200 200 l 1,2,-1
 1200 0 l 1,3,-1
 200 0 l 1,0,-1
400 600 m 1,0,-1
 400 800 l 1,1,-1
 1000 800 l 1,2,-1
 1000 600 l 1,3,-1
 400 600 l 1,0,-1
EndSplineSet
EndChar

StartChar: 12492
Encoding: 12492 12492 213
Width: 1600
VWidth: 1200
GlyphClass: 2
Flags: W
LayerCount: 2
Fore
SplineSet
200 800 m 1,0,-1
 200 1000 l 1,1,-1
 1200 1000 l 1,2,-1
 1200 200 l 1,3,-1
 800 200 l 1,4,-1
 800 400 l 1,5,-1
 1000 400 l 1,6,-1
 1000 800 l 1,7,-1
 200 800 l 1,0,-1
400 0 m 1,0,-1
 400 200 l 1,1,-1
 800 200 l 1,2,-1
 800 0 l 1,3,-1
 400 0 l 1,0,-1
600 400 m 1,0,-1
 600 600 l 1,1,-1
 800 600 l 1,2,-1
 800 400 l 1,3,-1
 600 400 l 1,0,-1
EndSplineSet
EndChar

StartChar: 12493
Encoding: 12493 12493 214
Width: 1600
VWidth: 1200
GlyphClass: 2
Flags: W
LayerCount: 2
Fore
SplineSet
0 200 m 1,0,-1
 0 400 l 1,1,-1
 1000 400 l 1,2,-1
 1000 200 l 1,3,-1
 800 200 l 1,4,-1
 800 0 l 1,5,-1
 600 0 l 1,6,-1
 600 200 l 1,7,-1
 0 200 l 1,0,-1
200 600 m 1,0,-1
 200 800 l 1,1,-1
 600 800 l 1,2,-1
 600 1000 l 1,3,-1
 800 1000 l 1,4,-1
 800 800 l 1,5,-1
 1200 800 l 1,6,-1
 1200 400 l 1,7,-1
 1000 400 l 1,8,-1
 1000 600 l 1,9,-1
 200 600 l 1,0,-1
1200 200 m 1,0,-1
 1200 400 l 1,1,-1
 1400 400 l 1,2,-1
 1400 200 l 1,3,-1
 1200 200 l 1,0,-1
EndSplineSet
EndChar

StartChar: 12494
Encoding: 12494 12494 215
Width: 1600
VWidth: 1200
GlyphClass: 2
Flags: W
LayerCount: 2
Fore
SplineSet
200 0 m 1,0,-1
 200 200 l 1,1,-1
 600 200 l 1,2,-1
 600 0 l 1,3,-1
 200 0 l 1,0,-1
600 200 m 1,0,-1
 600 400 l 1,1,-1
 800 400 l 1,2,-1
 800 200 l 1,3,-1
 600 200 l 1,0,-1
800 400 m 1,0,-1
 800 600 l 1,1,-1
 1000 600 l 1,2,-1
 1000 400 l 1,3,-1
 800 400 l 1,0,-1
1000 600 m 1,0,-1
 1000 1000 l 1,1,-1
 1200 1000 l 1,2,-1
 1200 600 l 1,3,-1
 1000 600 l 1,0,-1
EndSplineSet
EndChar

StartChar: 12495
Encoding: 12495 12495 216
Width: 1600
VWidth: 1200
GlyphClass: 2
Flags: W
LayerCount: 2
Fore
SplineSet
200 0 m 1,0,-1
 200 400 l 1,1,-1
 400 400 l 1,2,-1
 400 0 l 1,3,-1
 200 0 l 1,0,-1
400 400 m 1,0,-1
 400 800 l 1,1,-1
 600 800 l 1,2,-1
 600 400 l 1,3,-1
 400 400 l 1,0,-1
800 800 m 1,0,-1
 800 1000 l 1,1,-1
 1000 1000 l 1,2,-1
 1000 800 l 1,3,-1
 800 800 l 1,0,-1
1000 400 m 1,0,-1
 1000 800 l 1,1,-1
 1200 800 l 1,2,-1
 1200 400 l 1,3,-1
 1000 400 l 1,0,-1
1200 0 m 1,0,-1
 1200 400 l 1,1,-1
 1400 400 l 1,2,-1
 1400 0 l 1,3,-1
 1200 0 l 1,0,-1
EndSplineSet
EndChar

StartChar: 12498
Encoding: 12498 12498 217
Width: 1600
VWidth: 1200
GlyphClass: 2
Flags: W
LayerCount: 2
Fore
SplineSet
200 200 m 1,0,-1
 200 1000 l 1,1,-1
 400 1000 l 1,2,-1
 400 600 l 1,3,-1
 800 600 l 1,4,-1
 800 400 l 1,5,-1
 400 400 l 1,6,-1
 400 200 l 1,7,-1
 200 200 l 1,0,-1
400 0 m 1,0,-1
 400 200 l 1,1,-1
 1200 200 l 1,2,-1
 1200 0 l 1,3,-1
 400 0 l 1,0,-1
800 600 m 1,0,-1
 800 800 l 1,1,-1
 1200 800 l 1,2,-1
 1200 600 l 1,3,-1
 800 600 l 1,0,-1
EndSplineSet
EndChar

StartChar: 12501
Encoding: 12501 12501 218
Width: 1600
VWidth: 1200
GlyphClass: 2
Flags: W
LayerCount: 2
Fore
SplineSet
200 800 m 1,0,-1
 200 1000 l 1,1,-1
 1200 1000 l 1,2,-1
 1200 400 l 1,3,-1
 1000 400 l 1,4,-1
 1000 800 l 1,5,-1
 200 800 l 1,0,-1
400 0 m 1,0,-1
 400 200 l 1,1,-1
 800 200 l 1,2,-1
 800 0 l 1,3,-1
 400 0 l 1,0,-1
800 200 m 1,0,-1
 800 400 l 1,1,-1
 1000 400 l 1,2,-1
 1000 200 l 1,3,-1
 800 200 l 1,0,-1
EndSplineSet
EndChar

StartChar: 12504
Encoding: 12504 12504 219
Width: 1600
VWidth: 1200
GlyphClass: 2
Flags: W
LayerCount: 2
Fore
SplineSet
0 400 m 1,0,-1
 0 600 l 1,1,-1
 200 600 l 1,2,-1
 200 400 l 1,3,-1
 0 400 l 1,0,-1
200 600 m 1,0,-1
 200 800 l 1,1,-1
 400 800 l 1,2,-1
 400 600 l 1,3,-1
 200 600 l 1,0,-1
400 800 m 1,0,-1
 400 1000 l 1,1,-1
 800 1000 l 1,2,-1
 800 800 l 1,3,-1
 400 800 l 1,0,-1
800 600 m 1,0,-1
 800 800 l 1,1,-1
 1000 800 l 1,2,-1
 1000 600 l 1,3,-1
 800 600 l 1,0,-1
1000 400 m 1,0,-1
 1000 600 l 1,1,-1
 1200 600 l 1,2,-1
 1200 400 l 1,3,-1
 1000 400 l 1,0,-1
1200 200 m 1,0,-1
 1200 400 l 1,1,-1
 1400 400 l 1,2,-1
 1400 200 l 1,3,-1
 1200 200 l 1,0,-1
EndSplineSet
EndChar

StartChar: 12507
Encoding: 12507 12507 220
Width: 1600
VWidth: 1200
GlyphClass: 2
Flags: W
LayerCount: 2
Fore
SplineSet
0 0 m 1,0,-1
 0 200 l 1,1,-1
 200 200 l 1,2,-1
 200 0 l 1,3,-1
 0 0 l 1,0,-1
200 200 m 1,0,-1
 200 400 l 1,1,-1
 400 400 l 1,2,-1
 400 200 l 1,3,-1
 200 200 l 1,0,-1
200 600 m 1,0,-1
 200 800 l 1,1,-1
 600 800 l 1,2,-1
 600 1000 l 1,3,-1
 800 1000 l 1,4,-1
 800 800 l 1,5,-1
 1200 800 l 1,6,-1
 1200 600 l 1,7,-1
 800 600 l 1,8,-1
 800 0 l 1,9,-1
 400 0 l 1,10,-1
 400 200 l 1,11,-1
 600 200 l 1,12,-1
 600 600 l 1,13,-1
 200 600 l 1,0,-1
1000 200 m 1,0,-1
 1000 400 l 1,1,-1
 1200 400 l 1,2,-1
 1200 200 l 1,3,-1
 1000 200 l 1,0,-1
1200 0 m 1,0,-1
 1200 200 l 1,1,-1
 1400 200 l 1,2,-1
 1400 0 l 1,3,-1
 1200 0 l 1,0,-1
EndSplineSet
EndChar

StartChar: 12510
Encoding: 12510 12510 221
Width: 1600
VWidth: 1200
GlyphClass: 2
Flags: W
LayerCount: 2
Fore
SplineSet
200 800 m 1,0,-1
 200 1000 l 1,1,-1
 1200 1000 l 1,2,-1
 1200 600 l 1,3,-1
 1000 600 l 1,4,-1
 1000 800 l 1,5,-1
 200 800 l 1,0,-1
400 400 m 1,0,-1
 400 600 l 1,1,-1
 600 600 l 1,2,-1
 600 400 l 1,3,-1
 400 400 l 1,0,-1
600 200 m 1,0,-1
 600 400 l 1,1,-1
 800 400 l 1,2,-1
 800 200 l 1,3,-1
 600 200 l 1,0,-1
800 0 m 1,0,-1
 800 200 l 1,1,-1
 1000 200 l 1,2,-1
 1000 0 l 1,3,-1
 800 0 l 1,0,-1
800 400 m 1,0,-1
 800 600 l 1,1,-1
 1000 600 l 1,2,-1
 1000 400 l 1,3,-1
 800 400 l 1,0,-1
EndSplineSet
EndChar

StartChar: 12511
Encoding: 12511 12511 222
Width: 1600
VWidth: 1200
GlyphClass: 2
Flags: W
LayerCount: 2
Fore
SplineSet
200 0 m 1,0,-1
 200 200 l 1,1,-1
 1000 200 l 1,2,-1
 1000 0 l 1,3,-1
 200 0 l 1,0,-1
200 400 m 1,0,-1
 200 600 l 1,1,-1
 1200 600 l 1,2,-1
 1200 400 l 1,3,-1
 200 400 l 1,0,-1
400 800 m 1,0,-1
 400 1000 l 1,1,-1
 1200 1000 l 1,2,-1
 1200 800 l 1,3,-1
 400 800 l 1,0,-1
EndSplineSet
EndChar

StartChar: 12512
Encoding: 12512 12512 223
Width: 1600
VWidth: 1200
GlyphClass: 2
Flags: W
LayerCount: 2
Fore
SplineSet
200 0 m 1,0,-1
 200 400 l 1,1,-1
 400 400 l 1,2,-1
 400 200 l 1,3,-1
 1000 200 l 1,4,-1
 1000 0 l 1,5,-1
 200 0 l 1,0,-1
400 400 m 1,0,-1
 400 800 l 1,1,-1
 600 800 l 1,2,-1
 600 400 l 1,3,-1
 400 400 l 1,0,-1
600 800 m 1,0,-1
 600 1000 l 1,1,-1
 800 1000 l 1,2,-1
 800 800 l 1,3,-1
 600 800 l 1,0,-1
1000 200 m 1,0,-1
 1000 600 l 1,1,-1
 1200 600 l 1,2,-1
 1200 400 l 1,3,-1
 1400 400 l 1,4,-1
 1400 0 l 1,5,-1
 1200 0 l 1,6,-1
 1200 200 l 1,7,-1
 1000 200 l 1,0,-1
EndSplineSet
EndChar

StartChar: 12513
Encoding: 12513 12513 224
Width: 1600
VWidth: 1200
GlyphClass: 2
Flags: W
LayerCount: 2
Fore
SplineSet
200 0 m 1,0,-1
 200 200 l 1,1,-1
 600 200 l 1,2,-1
 600 0 l 1,3,-1
 200 0 l 1,0,-1
600 200 m 1,0,-1
 600 400 l 1,1,-1
 800 400 l 1,2,-1
 800 200 l 1,3,-1
 600 200 l 1,0,-1
600 600 m 1,0,-1
 600 800 l 1,1,-1
 800 800 l 1,2,-1
 800 600 l 1,3,-1
 600 600 l 1,0,-1
800 400 m 1,0,-1
 800 600 l 1,1,-1
 1000 600 l 1,2,-1
 1000 400 l 1,3,-1
 800 400 l 1,0,-1
1000 200 m 1,0,-1
 1000 400 l 1,1,-1
 1400 400 l 1,2,-1
 1400 200 l 1,3,-1
 1000 200 l 1,0,-1
1000 600 m 1,0,-1
 1000 800 l 1,1,-1
 1200 800 l 1,2,-1
 1200 600 l 1,3,-1
 1000 600 l 1,0,-1
1200 800 m 1,0,-1
 1200 1000 l 1,1,-1
 1400 1000 l 1,2,-1
 1400 800 l 1,3,-1
 1200 800 l 1,0,-1
EndSplineSet
EndChar

StartChar: 12514
Encoding: 12514 12514 225
Width: 1600
VWidth: 1200
GlyphClass: 2
Flags: W
LayerCount: 2
Fore
SplineSet
200 400 m 1,0,-1
 200 600 l 1,1,-1
 600 600 l 1,2,-1
 600 800 l 1,3,-1
 200 800 l 1,4,-1
 200 1000 l 1,5,-1
 1200 1000 l 1,6,-1
 1200 800 l 1,7,-1
 800 800 l 1,8,-1
 800 600 l 1,9,-1
 1400 600 l 1,10,-1
 1400 400 l 1,11,-1
 800 400 l 1,12,-1
 800 200 l 1,13,-1
 600 200 l 1,14,-1
 600 400 l 1,15,-1
 200 400 l 1,0,-1
800 0 m 1,0,-1
 800 200 l 1,1,-1
 1400 200 l 1,2,-1
 1400 0 l 1,3,-1
 800 0 l 1,0,-1
EndSplineSet
EndChar

StartChar: 12516
Encoding: 12516 12516 226
Width: 1600
VWidth: 1200
GlyphClass: 2
Flags: W
LayerCount: 2
Fore
SplineSet
200 600 m 1,0,-1
 200 800 l 1,1,-1
 400 800 l 1,2,-1
 400 1000 l 1,3,-1
 600 1000 l 1,4,-1
 600 800 l 1,5,-1
 800 800 l 1,6,-1
 800 600 l 1,7,-1
 600 600 l 1,8,-1
 600 400 l 1,9,-1
 400 400 l 1,10,-1
 400 600 l 1,11,-1
 200 600 l 1,0,-1
600 0 m 1,0,-1
 600 400 l 1,1,-1
 800 400 l 1,2,-1
 800 0 l 1,3,-1
 600 0 l 1,0,-1
800 800 m 1,0,-1
 800 1000 l 1,1,-1
 1400 1000 l 1,2,-1
 1400 600 l 1,3,-1
 1200 600 l 1,4,-1
 1200 800 l 1,5,-1
 800 800 l 1,0,-1
1000 400 m 1,0,-1
 1000 600 l 1,1,-1
 1200 600 l 1,2,-1
 1200 400 l 1,3,-1
 1000 400 l 1,0,-1
EndSplineSet
EndChar

StartChar: 12518
Encoding: 12518 12518 227
Width: 1600
VWidth: 1200
GlyphClass: 2
Flags: W
LayerCount: 2
Fore
SplineSet
400 0 m 1,0,-1
 400 200 l 1,1,-1
 1000 200 l 1,2,-1
 1000 600 l 1,3,-1
 1200 600 l 1,4,-1
 1200 200 l 1,5,-1
 1400 200 l 1,6,-1
 1400 0 l 1,7,-1
 400 0 l 1,0,-1
600 800 m 1,0,-1
 600 1000 l 1,1,-1
 1400 1000 l 1,2,-1
 1400 600 l 1,3,-1
 1200 600 l 1,4,-1
 1200 800 l 1,5,-1
 600 800 l 1,0,-1
EndSplineSet
EndChar

StartChar: 12520
Encoding: 12520 12520 228
Width: 1600
VWidth: 1200
GlyphClass: 2
Flags: W
LayerCount: 2
Fore
SplineSet
200 0 m 1,0,-1
 200 200 l 1,1,-1
 800 200 l 1,2,-1
 800 400 l 1,3,-1
 200 400 l 1,4,-1
 200 600 l 1,5,-1
 800 600 l 1,6,-1
 800 800 l 1,7,-1
 200 800 l 1,8,-1
 200 1000 l 1,9,-1
 1000 1000 l 1,10,-1
 1000 600 l 1,11,-1
 1200 600 l 1,12,-1
 1200 400 l 1,13,-1
 1000 400 l 1,14,-1
 1000 0 l 1,15,-1
 200 0 l 1,0,-1
EndSplineSet
EndChar

StartChar: 12521
Encoding: 12521 12521 229
Width: 1600
VWidth: 1200
GlyphClass: 2
Flags: W
LayerCount: 2
Fore
SplineSet
200 400 m 1,0,-1
 200 600 l 1,1,-1
 1200 600 l 1,2,-1
 1200 200 l 1,3,-1
 1000 200 l 1,4,-1
 1000 400 l 1,5,-1
 200 400 l 1,0,-1
400 800 m 1,0,-1
 400 1000 l 1,1,-1
 1000 1000 l 1,2,-1
 1000 800 l 1,3,-1
 400 800 l 1,0,-1
600 0 m 1,0,-1
 600 200 l 1,1,-1
 1000 200 l 1,2,-1
 1000 0 l 1,3,-1
 600 0 l 1,0,-1
EndSplineSet
EndChar

StartChar: 12522
Encoding: 12522 12522 230
Width: 1600
VWidth: 1200
GlyphClass: 2
Flags: W
LayerCount: 2
Fore
SplineSet
400 400 m 1,0,-1
 400 1000 l 1,1,-1
 600 1000 l 1,2,-1
 600 400 l 1,3,-1
 400 400 l 1,0,-1
600 0 m 1,0,-1
 600 200 l 1,1,-1
 1000 200 l 1,2,-1
 1000 0 l 1,3,-1
 600 0 l 1,0,-1
1000 200 m 1,0,-1
 1000 1000 l 1,1,-1
 1200 1000 l 1,2,-1
 1200 200 l 1,3,-1
 1000 200 l 1,0,-1
EndSplineSet
EndChar

StartChar: 12523
Encoding: 12523 12523 231
Width: 1600
VWidth: 1200
GlyphClass: 2
Flags: W
LayerCount: 2
Fore
SplineSet
200 0 m 1,0,-1
 200 200 l 1,1,-1
 400 200 l 1,2,-1
 400 0 l 1,3,-1
 200 0 l 1,0,-1
400 200 m 1,0,-1
 400 1000 l 1,1,-1
 600 1000 l 1,2,-1
 600 200 l 1,3,-1
 400 200 l 1,0,-1
800 0 m 1,0,-1
 800 1000 l 1,1,-1
 1000 1000 l 1,2,-1
 1000 200 l 1,3,-1
 1200 200 l 1,4,-1
 1200 0 l 1,5,-1
 800 0 l 1,0,-1
1200 200 m 1,0,-1
 1200 400 l 1,1,-1
 1400 400 l 1,2,-1
 1400 200 l 1,3,-1
 1200 200 l 1,0,-1
EndSplineSet
EndChar

StartChar: 12524
Encoding: 12524 12524 232
Width: 1600
VWidth: 1200
GlyphClass: 2
Flags: W
LayerCount: 2
Fore
SplineSet
200 0 m 1,0,-1
 200 1000 l 1,1,-1
 400 1000 l 1,2,-1
 400 200 l 1,3,-1
 800 200 l 1,4,-1
 800 0 l 1,5,-1
 200 0 l 1,0,-1
800 200 m 1,0,-1
 800 400 l 1,1,-1
 1200 400 l 1,2,-1
 1200 200 l 1,3,-1
 800 200 l 1,0,-1
EndSplineSet
EndChar

StartChar: 12525
Encoding: 12525 12525 233
Width: 1600
VWidth: 1200
GlyphClass: 2
Flags: W
LayerCount: 2
Fore
SplineSet
200 0 m 1,0,-1
 200 1000 l 1,1,-1
 1400 1000 l 1,2,-1
 1400 0 l 1,3,-1
 200 0 l 1,0,-1
400 200 m 1,0,-1
 1200 200 l 1,1,-1
 1200 800 l 1,2,-1
 400 800 l 1,3,-1
 400 200 l 1,0,-1
EndSplineSet
EndChar

StartChar: 12527
Encoding: 12527 12527 234
Width: 1600
VWidth: 1200
GlyphClass: 2
Flags: W
LayerCount: 2
Fore
SplineSet
200 600 m 1,0,-1
 200 1000 l 1,1,-1
 1200 1000 l 1,2,-1
 1200 400 l 1,3,-1
 1000 400 l 1,4,-1
 1000 800 l 1,5,-1
 400 800 l 1,6,-1
 400 600 l 1,7,-1
 200 600 l 1,0,-1
600 0 m 1,0,-1
 600 200 l 1,1,-1
 800 200 l 1,2,-1
 800 0 l 1,3,-1
 600 0 l 1,0,-1
800 200 m 1,0,-1
 800 400 l 1,1,-1
 1000 400 l 1,2,-1
 1000 200 l 1,3,-1
 800 200 l 1,0,-1
EndSplineSet
EndChar

StartChar: 12530
Encoding: 12530 12530 235
Width: 1600
VWidth: 1200
GlyphClass: 2
Flags: W
LayerCount: 2
Fore
SplineSet
200 400 m 1,0,-1
 200 600 l 1,1,-1
 1000 600 l 1,2,-1
 1000 800 l 1,3,-1
 200 800 l 1,4,-1
 200 1000 l 1,5,-1
 1200 1000 l 1,6,-1
 1200 200 l 1,7,-1
 1000 200 l 1,8,-1
 1000 400 l 1,9,-1
 200 400 l 1,0,-1
600 0 m 1,0,-1
 600 200 l 1,1,-1
 1000 200 l 1,2,-1
 1000 0 l 1,3,-1
 600 0 l 1,0,-1
EndSplineSet
EndChar

StartChar: 12531
Encoding: 12531 12531 236
Width: 1600
VWidth: 1200
GlyphClass: 2
Flags: W
LayerCount: 2
Fore
SplineSet
0 0 m 1,0,-1
 0 200 l 1,1,-1
 600 200 l 1,2,-1
 600 0 l 1,3,-1
 0 0 l 1,0,-1
0 800 m 1,0,-1
 0 1000 l 1,1,-1
 200 1000 l 1,2,-1
 200 800 l 1,3,-1
 0 800 l 1,0,-1
200 600 m 1,0,-1
 200 800 l 1,1,-1
 400 800 l 1,2,-1
 400 600 l 1,3,-1
 200 600 l 1,0,-1
600 200 m 1,0,-1
 600 400 l 1,1,-1
 800 400 l 1,2,-1
 800 200 l 1,3,-1
 600 200 l 1,0,-1
800 400 m 1,0,-1
 800 600 l 1,1,-1
 1000 600 l 1,2,-1
 1000 400 l 1,3,-1
 800 400 l 1,0,-1
EndSplineSet
EndChar

StartChar: 12483
Encoding: 12483 12483 237
Width: 1600
VWidth: 1200
GlyphClass: 2
Flags: W
LayerCount: 2
Fore
SplineSet
0 600 m 1,0,-1
 0 800 l 1,1,-1
 200 800 l 1,2,-1
 200 600 l 1,3,-1
 0 600 l 1,0,-1
200 0 m 1,0,-1
 200 200 l 1,1,-1
 600 200 l 1,2,-1
 600 0 l 1,3,-1
 200 0 l 1,0,-1
400 600 m 1,0,-1
 400 800 l 1,1,-1
 600 800 l 1,2,-1
 600 600 l 1,3,-1
 400 600 l 1,0,-1
600 200 m 1,0,-1
 600 400 l 1,1,-1
 800 400 l 1,2,-1
 800 200 l 1,3,-1
 600 200 l 1,0,-1
800 400 m 1,0,-1
 800 800 l 1,1,-1
 1000 800 l 1,2,-1
 1000 400 l 1,3,-1
 800 400 l 1,0,-1
EndSplineSet
EndChar

StartChar: 12515
Encoding: 12515 12515 238
Width: 1600
VWidth: 1200
GlyphClass: 2
Flags: W
LayerCount: 2
Fore
SplineSet
0 400 m 1,0,-1
 0 600 l 1,1,-1
 200 600 l 1,2,-1
 200 800 l 1,3,-1
 400 800 l 1,4,-1
 400 600 l 1,5,-1
 1000 600 l 1,6,-1
 1000 200 l 1,7,-1
 800 200 l 1,8,-1
 800 400 l 1,9,-1
 400 400 l 1,10,-1
 400 200 l 1,11,-1
 200 200 l 1,12,-1
 200 400 l 1,13,-1
 0 400 l 1,0,-1
400 0 m 1,0,-1
 400 200 l 1,1,-1
 600 200 l 1,2,-1
 600 0 l 1,3,-1
 400 0 l 1,0,-1
EndSplineSet
EndChar

StartChar: 12517
Encoding: 12517 12517 239
Width: 1600
VWidth: 1200
GlyphClass: 2
Flags: W
LayerCount: 2
Fore
SplineSet
200 0 m 1,0,-1
 200 200 l 1,1,-1
 600 200 l 1,2,-1
 600 400 l 1,3,-1
 200 400 l 1,4,-1
 200 600 l 1,5,-1
 800 600 l 1,6,-1
 800 200 l 1,7,-1
 1000 200 l 1,8,-1
 1000 0 l 1,9,-1
 200 0 l 1,0,-1
EndSplineSet
EndChar

StartChar: 12519
Encoding: 12519 12519 240
Width: 1600
VWidth: 1200
GlyphClass: 2
Flags: W
LayerCount: 2
Fore
SplineSet
200 0 m 1,0,-1
 200 200 l 1,1,-1
 600 200 l 1,2,-1
 600 400 l 1,3,-1
 200 400 l 1,4,-1
 200 800 l 1,5,-1
 800 800 l 1,6,-1
 800 600 l 1,7,-1
 1000 600 l 1,8,-1
 1000 400 l 1,9,-1
 800 400 l 1,10,-1
 800 0 l 1,11,-1
 200 0 l 1,0,-1
EndSplineSet
EndChar

StartChar: 9692
Encoding: 9692 9692 241
Width: 1600
VWidth: 1200
GlyphClass: 2
Flags: W
LayerCount: 2
Fore
SplineSet
0 400 m 1,0,-1
 0 600 l 1,1,-1
 400 600 l 1,2,-1
 400 400 l 1,3,-1
 0 400 l 1,0,-1
400 600 m 1,0,-1
 400 800 l 1,1,-1
 600 800 l 1,2,-1
 600 600 l 1,3,-1
 400 600 l 1,0,-1
600 0 m 1,0,-1
 600 200 l 1,1,-1
 800 200 l 1,2,-1
 800 0 l 1,3,-1
 600 0 l 1,0,-1
600 800 m 1,0,-1
 600 1000 l 1,1,-1
 800 1000 l 1,2,-1
 800 800 l 1,3,-1
 600 800 l 1,0,-1
800 200 m 1,0,-1
 800 400 l 1,1,-1
 1000 400 l 1,2,-1
 1000 200 l 1,3,-1
 800 200 l 1,0,-1
1000 400 m 1,0,-1
 1000 600 l 1,1,-1
 1400 600 l 1,2,-1
 1400 400 l 1,3,-1
 1000 400 l 1,0,-1
EndSplineSet
EndChar

StartChar: 9693
Encoding: 9693 9693 242
Width: 1600
VWidth: 1200
GlyphClass: 2
Flags: W
LayerCount: 2
Fore
SplineSet
0 400 m 1,0,-1
 0 600 l 1,1,-1
 400 600 l 1,2,-1
 400 400 l 1,3,-1
 0 400 l 1,0,-1
400 200 m 1,0,-1
 400 400 l 1,1,-1
 600 400 l 1,2,-1
 600 200 l 1,3,-1
 400 200 l 1,0,-1
600 0 m 1,0,-1
 600 200 l 1,1,-1
 800 200 l 1,2,-1
 800 0 l 1,3,-1
 600 0 l 1,0,-1
600 800 m 1,0,-1
 600 1000 l 1,1,-1
 800 1000 l 1,2,-1
 800 800 l 1,3,-1
 600 800 l 1,0,-1
800 600 m 1,0,-1
 800 800 l 1,1,-1
 1000 800 l 1,2,-1
 1000 600 l 1,3,-1
 800 600 l 1,0,-1
1000 400 m 1,0,-1
 1000 600 l 1,1,-1
 1400 600 l 1,2,-1
 1400 400 l 1,3,-1
 1000 400 l 1,0,-1
EndSplineSet
EndChar
